<svg width="90" height="20" viewBox="0 0 90 20" xmlns="http://www.w3.org/2000/svg"><title>header-logo</title><g fill="none" fill-rule="evenodd"><path d="M0 16.077l1.703-.33V4.264L0 3.934V2h12.736v4.385h-2.46l-.144-1.912h-5.22V8.88h5.604v2.472H4.912v4.395l1.714.33V18H0v-1.923zm11.51 0l1.144-.165L17.522 2h3.286l4.835 13.912 1.143.165V18h-5.45v-1.923l1.11-.198-.704-2.2h-5.187l-.703 2.2 1.11.197V18h-5.45v-1.923zm5.803-4.758h3.67l-1.8-5.64h-.067l-1.803 5.64zM40.28 2v4.264h-2.46l-.133-1.79h-2.945v11.273l1.714.33V18H29.82v-1.923l1.713-.33V4.473H28.6l-.133 1.79h-2.45V2H40.28zm31.683 4.165l-.066-.01L67.612 18h-2.154L61.194 6.198l-.066.01.308 7.023v2.517l1.714.33V18h-6.626v-1.923l1.703-.33V4.264l-1.703-.33V2H62.414l4.077 11.79h.067L70.667 2h5.912v1.934l-1.716.33v11.483l1.715.33V18H69.95v-1.923l1.704-.33V13.23l.307-7.065zM77.723 18v-1.923l1.702-.33V4.264l-1.703-.33V2h6.626v1.934l-1.714.33v11.274h4.516l.154-2.01h2.45V18H77.723z" fill="#FFF"/><path fill="#4DCFB6" d="M44.23 18.996H43L49.92 1h1.23"/></g></svg>