<?xml version="1.0" encoding="UTF-8"?>
<svg width="586px" height="662px" viewBox="0 0 586 662" version="1.1" xmlns="http://www.w3.org/2000/svg" xmlns:xlink="http://www.w3.org/1999/xlink">
    <!-- Generator: Sketch 40.1 (33804) - http://www.bohemiancoding.com/sketch -->
    <title>tictec-logo</title>
    <desc>Created with Sketch.</desc>
    <defs></defs>
    <g id="Page-1" stroke="none" stroke-width="1" fill="none" fill-rule="evenodd">
        <g id="tictec-logo" transform="translate(15.000000, 15.000000)">
            <g id="Page-1">
                <g id="Group">
                    <path d="M16,146.8076 L262.219,4.6526 C271.811,-0.8844 283.628,-0.8844 293.219,4.6526 L539.439,146.8076 C549.03,152.3456 554.939,162.5796 554.939,173.6546 L554.939,457.9636 C554.939,469.0396 549.03,479.2736 539.439,484.8106 L293.219,626.9656 C283.628,632.5036 271.811,632.5036 262.219,626.9656 L16,484.8106 C6.409,479.2736 0.5,469.0396 0.5,457.9636 L0.5,173.6546 C0.5,162.5796 6.409,152.3456 16,146.8076 L16,146.8076 L16,146.8076 Z" id="Stroke-1" stroke="#1D1D1B" stroke-width="31"></path>
                    <g id="T" transform="translate(95.000000, 335.000000)" fill="#000000">
                        <polygon points="74.6686 28.659536 74.6686 146.535536 42.0646 146.535536 42.0646 28.659536 0.6826 28.659536 0.6826 0.444536 116.0506 0.444536 116.0506 28.659536"></polygon>
                    </g>
                    <g id="e" transform="translate(196.000000, 367.000000)" fill="#000000">
                        <path d="M103.8756,98.233536 C91.1962033,110.216263 76.3225187,116.207536 59.2541,116.207536 C42.1856813,116.207536 28.0783224,110.947755 16.9316,100.428036 C5.7848776,89.9083167 0.2116,75.8009578 0.2116,58.105536 C0.2116,40.4101142 5.88937655,26.3375882 17.2451,15.887536 C28.6008234,5.43748375 42.0115227,0.212536 57.4776,0.212536 C72.9436773,0.212536 86.0757127,4.88015599 96.8741,14.215536 C107.672487,23.550916 113.0716,36.3694545 113.0716,52.671536 L113.0716,69.391536 L31.1436,69.391536 C32.1189382,75.5222333 35.3235728,80.5381832 40.7576,84.439536 C46.1916272,88.3408888 52.3222325,90.291536 59.1496,90.291536 C70.1569884,90.291536 79.2135645,86.5992396 86.3196,79.214536 L103.8756,98.233536 Z M73.7796,31.562536 C69.4602451,27.9398512 64.2004643,26.128536 58.0001,26.128536 C51.7997357,26.128536 46.1219591,28.0095172 40.9666,31.771536 C35.8112409,35.5335548 32.8156042,40.6191706 31.9796,47.028536 L81.3036,47.028536 C80.6069298,40.3405026 78.0989549,35.1852208 73.7796,31.562536 L73.7796,31.562536 Z"></path>
                    </g>
                    <g id="C" transform="translate(321.000000, 332.000000)" fill="#000000">
                        <path d="M76.6876,120.693536 C92.7110135,120.693536 105.808216,114.353933 115.9796,101.674536 L136.8796,123.201536 C120.29885,141.872296 100.757546,151.207536 78.2551,151.207536 C55.7526542,151.207536 37.2215061,144.101607 22.6611,129.889536 C8.10069387,115.677465 0.8206,97.7384777 0.8206,76.072036 C0.8206,54.4055943 8.24002581,36.3272751 23.0791,21.836536 C37.9181742,7.34579688 56.0661594,0.100536 77.5236,0.100536 C101.489053,0.100536 121.552853,9.22677807 137.7156,27.479536 L117.4426,50.469536 C107.131882,37.6508052 94.3133433,31.241536 78.9866,31.241536 C66.7252054,31.241536 56.2404769,35.2473293 47.5321,43.259036 C38.8237231,51.2707427 34.4696,62.0689681 34.4696,75.654036 C34.4696,89.2391039 38.5798922,100.141828 46.8006,108.362536 C55.0213078,116.583244 64.9835415,120.693536 76.6876,120.693536 L76.6876,120.693536 Z"></path>
                    </g>
                    <g id="T" transform="translate(115.000000, 139.000000)" fill="#000000">
                        <polygon points="74.5236 28.408536 74.5236 146.284536 41.9196 146.284536 41.9196 28.408536 0.5376 28.408536 0.5376 0.193536 115.9056 0.193536 115.9056 28.408536"></polygon>
                    </g>
                    <g id="I" transform="translate(250.000000, 139.000000)" fill="#000000">
                        <polygon points="0.5516 0.193536 33.1556 0.193536 33.1556 146.284536 0.5516 146.284536"></polygon>
                    </g>
                    <g id="C" transform="translate(301.000000, 135.000000)" fill="#000000">
                        <path d="M76.8326,121.442536 C92.8560135,121.442536 105.953216,115.102933 116.1246,102.423536 L137.0246,123.950536 C120.44385,142.621296 100.902546,151.956536 78.4001,151.956536 C55.8976542,151.956536 37.3665061,144.850607 22.8061,130.638536 C8.24569387,116.426465 0.9656,98.4874777 0.9656,76.821036 C0.9656,55.1545943 8.38502581,37.0762751 23.2241,22.585536 C38.0631742,8.09479688 56.2111594,0.849536 77.6686,0.849536 C101.634053,0.849536 121.697853,9.97577807 137.8606,28.228536 L117.5876,51.218536 C107.276882,38.3998052 94.4583433,31.990536 79.1316,31.990536 C66.8702054,31.990536 56.3854769,35.9963293 47.6771,44.008036 C38.9687231,52.0197427 34.6146,62.8179681 34.6146,76.403036 C34.6146,89.9881039 38.7248922,100.890828 46.9456,109.111536 C55.1663078,117.332244 65.1285415,121.442536 76.8326,121.442536 L76.8326,121.442536 Z"></path>
                    </g>
                </g>
            </g>
        </g>
    </g>
</svg>