<svg id="Layer_1" data-name="Layer 1" xmlns="http://www.w3.org/2000/svg" viewBox="0 0 138 42"><defs><style>.cls-1{fill:#fff;}</style></defs><title>gsco_AI-NOW_HeaderLogo_138x42</title><rect class="cls-1" width="138" height="42"/><path d="M84.87,34.19A13.22,13.22,0,1,1,98.09,21,13.23,13.23,0,0,1,84.87,34.19Zm0-24.91A11.69,11.69,0,1,0,96.56,21,11.7,11.7,0,0,0,84.87,9.29Zm38.47,24.53a0.46,0.46,0,0,1-.43-0.32L116,10.24l-6.8,23.26a0.45,0.45,0,0,1-.43.32h-1a0.46,0.46,0,0,1-.43-0.32l-7.5-25,0.09-.2a0.36,0.36,0,0,1,.29-0.14h0.69a0.46,0.46,0,0,1,.43.32l6.92,23.35L115,8.44a0.46,0.46,0,0,1,.43-0.32h1a0.46,0.46,0,0,1,.43.32l7,23.36L130.8,8.44a0.45,0.45,0,0,1,.43-0.32H132l0.17,0.14a0.36,0.36,0,0,1,.05.32L124.8,33.5a0.46,0.46,0,0,1-.43.32h-1Zm-57.47,0a0.57,0.57,0,0,1-.43-0.22L48,10.29V33.42a0.39,0.39,0,0,1-.39.39H47a0.39,0.39,0,0,1-.39-0.39V8.51A0.4,0.4,0,0,1,47,8.12h0.93a0.57,0.57,0,0,1,.43.22L65.79,31.61V8.51a0.4,0.4,0,0,1,.39-0.4h0.65a0.4,0.4,0,0,1,.39.4V33.42a0.39,0.39,0,0,1-.39.39h-1Z"/><path d="M34.49,34.7a0.36,0.36,0,0,1-.36-0.36V7.59a0.36,0.36,0,0,1,.36-0.36h6a0.36,0.36,0,0,1,.36.36V34.34a0.36,0.36,0,0,1-.36.36h-6Zm3.62-1.26h1.44l0-24.93H38.12V33.44Zm-2.7,0h1.44l0-24.93H35.42V33.44ZM23.25,34.7a0.36,0.36,0,0,1-.36-0.36V27.55h-8v6.79a0.36,0.36,0,0,1-.36.36h-6a0.36,0.36,0,0,1-.36-0.36V16.13a8.79,8.79,0,0,1,.66-3.35A9.16,9.16,0,0,1,10.64,10a8.59,8.59,0,0,1,2.95-2,9.57,9.57,0,0,1,3.74-.73h3.14A9.57,9.57,0,0,1,24.21,8a8.59,8.59,0,0,1,2.94,2A9.17,9.17,0,0,1,29,12.78a8.79,8.79,0,0,1,.66,3.35V34.34a0.36,0.36,0,0,1-.36.36h-6Zm-2.78-22a3.61,3.61,0,0,1,2.83,1.09,3.57,3.57,0,0,1,.88,2.44V33.44h1.44l0-17.25a4.79,4.79,0,0,0-5.12-4.94H17.33a4.79,4.79,0,0,0-5.12,4.94V33.44l1.44,0,0-3.73V26.62A0.36,0.36,0,0,1,14,26.26h8.92V24.85H14a0.36,0.36,0,0,1-.36-0.36V23.87A0.36,0.36,0,0,1,14,23.51h8.91V22.1H14a0.36,0.36,0,0,1-.36-0.36V16.19a3.57,3.57,0,0,1,.88-2.44,3.61,3.61,0,0,1,2.83-1.09h3.14Zm0-2.75a6.89,6.89,0,0,1,2.7.52,5.92,5.92,0,0,1,2,1.37,6.47,6.47,0,0,1,1.28,2,6.11,6.11,0,0,1,.46,2.33V33.44h1.44l0-17.32a7.51,7.51,0,0,0-.56-2.86,7.88,7.88,0,0,0-1.56-2.42,7.31,7.31,0,0,0-2.51-1.7,8.3,8.3,0,0,0-3.24-.63H17.33a8.29,8.29,0,0,0-3.24.63,7.3,7.3,0,0,0-2.51,1.7A7.87,7.87,0,0,0,10,13.27a7.51,7.51,0,0,0-.56,2.86V33.44l1.44,0,0-17.29a6.11,6.11,0,0,1,.46-2.33,6.45,6.45,0,0,1,1.28-2,5.93,5.93,0,0,1,2-1.37,6.89,6.89,0,0,1,2.69-.52h3.14Zm2.42,10.9V16.19a2.3,2.3,0,0,0-.55-1.58A2.4,2.4,0,0,0,20.47,14H17.33a2.4,2.4,0,0,0-1.87.66,2.3,2.3,0,0,0-.55,1.58v4.62h8Z"/></svg>