<?xml version="1.0" encoding="UTF-8" standalone="no"?>
<svg width="125px" height="28px" viewBox="0 0 125 28" version="1.1" xmlns="http://www.w3.org/2000/svg" xmlns:xlink="http://www.w3.org/1999/xlink">
    <!-- Generator: Sketch 3.8.3 (29802) - http://www.bohemiancoding.com/sketch -->
    <title>ainow-header-logo</title>
    <desc>Created with Sketch.</desc>
    <defs></defs>
    <g id="Page-1" stroke="none" stroke-width="1" fill="none" fill-rule="evenodd">
        <g id="ainow-header-logo" fill="#000000">
            <path d="M76.87,27.19 C71.5202821,27.1899862 66.6979033,23.965781 64.6534687,19.0221215 C62.6090341,14.0784619 63.7455906,8.38995811 67.5327071,4.61143574 C71.3198235,0.832913375 77.0108948,-0.290716685 81.9498968,1.76494392 C86.8888989,3.82060453 90.1021401,8.65029583 90.09,14 C90.0679696,21.2872004 84.1572316,27.1845252 76.87,27.19 L76.87,27.19 Z M76.87,2.28 C70.4177012,2.28002125 65.1855481,7.50772919 65.1800427,13.9600257 C65.1745374,20.4123221 70.3977619,25.648951 76.8500513,25.6599829 C83.3023407,25.6710148 88.5434415,20.4522776 88.56,14 C88.5626533,10.8969667 87.3325222,7.91997171 85.1402217,5.72392048 C82.9479212,3.52786924 79.9730333,2.29265103 76.87,2.29 L76.87,2.28 Z M115.34,26.81 C115.142908,26.8064855 114.969963,26.6777823 114.91,26.49 L108,3.24 L101.2,26.5 C101.142755,26.6897067 100.968155,26.8196418 100.77,26.82 L99.77,26.82 C99.5729077,26.8164855 99.3999628,26.6877823 99.34,26.5 L91.84,1.5 L91.93,1.3 C91.9992431,1.21028981 92.1066862,1.15842073 92.22,1.16 L92.91,1.16 C93.1070923,1.16351454 93.2800372,1.29221772 93.34,1.48 L100.26,24.83 L107,1.44 C107.059963,1.25221772 107.232908,1.12351454 107.43,1.12 L108.43,1.12 C108.627092,1.12351454 108.800037,1.25221772 108.86,1.44 L115.86,24.8 L122.8,1.44 C122.857245,1.25029333 123.031845,1.12035818 123.23,1.12 L124,1.12 L124.17,1.26 C124.236417,1.35272342 124.254966,1.47143538 124.22,1.58 L116.8,26.5 C116.740037,26.6877823 116.567092,26.8164855 116.37,26.82 L115.37,26.82 L115.34,26.81 Z M57.87,26.81 C57.7011443,26.8040222 57.5436425,26.7234399 57.44,26.59 L40,3.29 L40,26.42 C40,26.6353911 39.8253911,26.81 39.61,26.81 L39,26.81 C38.7846089,26.81 38.61,26.6353911 38.61,26.42 L38.61,1.51 C38.6152659,1.29682824 38.7868282,1.12526589 39,1.12 L39.93,1.12 C40.0988557,1.12597776 40.2563575,1.20656011 40.36,1.34 L57.79,24.61 L57.79,1.51 C57.7899322,1.29293314 57.963001,1.11542666 58.18,1.11 L58.83,1.11 C59.046999,1.11542666 59.2200678,1.29293314 59.22,1.51 L59.22,26.42 C59.22,26.6353911 59.0453911,26.81 58.83,26.81 L57.83,26.81 L57.87,26.81 Z" id="Shape"></path>
            <path d="M26.49,27.7 C26.2911775,27.7 26.13,27.5388225 26.13,27.34 L26.13,0.59 C26.13,0.39117749 26.2911775,0.23 26.49,0.23 L32.49,0.23 C32.6888225,0.23 32.85,0.39117749 32.85,0.59 L32.85,27.34 C32.85,27.5388225 32.6888225,27.7 32.49,27.7 L26.49,27.7 L26.49,27.7 Z M30.11,26.44 L31.55,26.44 L31.55,1.51 L30.12,1.51 L30.12,26.44 L30.11,26.44 Z M27.41,26.44 L28.85,26.44 L28.85,1.51 L27.42,1.51 L27.42,26.44 L27.41,26.44 Z M15.25,27.7 C15.0511775,27.7 14.89,27.5388225 14.89,27.34 L14.89,20.55 L6.89,20.55 L6.89,27.34 C6.89,27.5388225 6.72882251,27.7 6.53,27.7 L0.53,27.7 C0.33117749,27.7 0.17,27.5388225 0.17,27.34 L0.17,9.13 C0.168920932,7.98092813 0.393150463,6.84279339 0.83,5.78 C1.25910989,4.75089704 1.87249993,3.80878417 2.64,3 C3.47269591,2.13442516 4.47765711,1.45309554 5.59,1 C6.77512718,0.50841895 8.04700287,0.26016514 9.33,0.27 L12.47,0.27 C13.7529971,0.26016514 15.0248728,0.50841895 16.21,1 C17.3187656,1.45431706 18.3202179,2.13557719 19.15,3 C19.9316162,3.80562912 20.5586778,4.74791629 21,5.78 C21.4368495,6.84279339 21.6610791,7.98092813 21.66,9.13 L21.66,27.34 C21.66,27.5388225 21.4988225,27.7 21.3,27.7 L15.3,27.7 L15.25,27.7 Z M12.47,5.7 C13.5276053,5.63026965 14.5624204,6.02883799 15.3,6.79 C15.8888789,7.46423481 16.2029619,8.33510131 16.18,9.23 L16.18,26.44 L17.62,26.44 L17.62,9.19 C17.6657491,7.83446551 17.1346889,6.52307981 16.1586317,5.58133717 C15.1825746,4.63959453 13.8530302,4.15578748 12.5,4.25 L9.33,4.25 C7.97696979,4.15578748 6.64742543,4.63959453 5.67136828,5.58133717 C4.69531114,6.52307981 4.16425086,7.83446551 4.21,9.19 L4.21,26.44 L5.65,26.44 L5.65,22.71 L5.65,19.62 C5.64992476,19.4250182 5.80509338,19.2654161 6,19.26 L14.92,19.26 L14.92,17.85 L6,17.85 C5.80117749,17.85 5.64,17.6888225 5.64,17.49 L5.64,16.87 C5.64,16.6711775 5.80117749,16.51 6,16.51 L14.91,16.51 L14.91,15.1 L6,15.1 C5.80117749,15.1 5.64,14.9388225 5.64,14.74 L5.64,9.19 C5.61703813,8.29510131 5.93112112,7.42423481 6.52,6.75 C7.25757963,5.98883799 8.29239469,5.59026965 9.35,5.66 L12.49,5.66 L12.47,5.7 Z M12.47,2.95 C13.3957964,2.94016558 14.314079,3.11702 15.17,3.47 C15.9240324,3.78381658 16.604974,4.25026156 17.17,4.84 C17.7163961,5.42199275 18.15037,6.10007695 18.45,6.84 C18.7542566,7.57910325 18.9105418,8.37072196 18.91,9.17 L18.91,26.44 L20.35,26.44 L20.35,9.12 C20.3518725,8.13924608 20.1616244,7.16762167 19.79,6.26 C19.4230356,5.36437263 18.8942098,4.54401461 18.23,3.84 C17.5213169,3.10416667 16.6662663,2.52504873 15.72,2.14 C14.6930677,1.71520902 13.5912856,1.50097361 12.48,1.51 L9.33,1.51 C8.21868928,1.5007014 7.11685351,1.71494724 6.09,2.14 C5.14359311,2.52478566 4.28849098,3.1039385 3.58,3.84 C2.90742875,4.54519272 2.37167757,5.36916448 2,6.27 C1.62837564,7.17762167 1.43812751,8.14924608 1.44,9.13 L1.44,26.44 L2.88,26.44 L2.88,9.15 C2.87945818,8.35072196 3.03574342,7.55910325 3.34,6.82 C3.6392177,6.07986392 4.07323776,5.40170757 4.62,4.82 C5.18521335,4.2304824 5.86610579,3.76407108 6.62,3.45 C7.47281513,3.09833765 8.38756412,2.92150885 9.31,2.93 L12.45,2.93 L12.47,2.95 Z M14.89,13.85 L14.89,9.19 C14.9115033,8.61296494 14.7151699,8.04895264 14.34,7.61 C13.8324439,7.14884003 13.1518562,6.92683015 12.47,7 L9.33,7 C8.64067038,6.94015265 7.95905087,7.18072424 7.46,7.66 C7.08483013,8.09895264 6.88849673,8.66296494 6.91,9.24 L6.91,13.86 L14.91,13.86 L14.89,13.85 Z" id="Shape"></path>
        </g>
    </g>
</svg>