<?xml version="1.0" encoding="UTF-8" standalone="no"?>
<svg width="230px" height="70px" viewBox="0 0 230 70" version="1.1" xmlns="http://www.w3.org/2000/svg" xmlns:xlink="http://www.w3.org/1999/xlink">
    <!-- Generator: Sketch 3.8.3 (29802) - http://www.bohemiancoding.com/sketch -->
    <title>gsco_AI-NOW_HomepageLogo_230x70</title>
    <desc>Created with Sketch.</desc>
    <defs></defs>
    <g id="Page-1" stroke="none" stroke-width="1" fill="none" fill-rule="evenodd">
        <g id="gsco_AI-NOW_HomepageLogo_230x70">
            <rect id="Rectangle-path" fill="none" x="0" y="0" width="230" height="70"></rect>
            <path d="M111.75,13.95 L110.67,13.95 C110.537452,13.95 110.43,14.0574517 110.43,14.19 L110.43,53.69 C110.43,53.82 110.36,53.84 110.29,53.69 L80.6,14.14 C80.5015235,14.0259066 80.3605415,13.957223 80.21,13.95 L78.67,13.95 C78.5374517,13.95 78.43,14.0574517 78.43,14.19 L78.43,55.7 C78.43,55.8325483 78.5374517,55.94 78.67,55.94 L79.75,55.94 C79.8153663,55.942726 79.8790123,55.918649 79.9262077,55.8733414 C79.9734031,55.8280338 80.0000568,55.7654231 80,55.7 L80,16.15 C80,16.02 80.07,16 80.14,16.15 L109.76,55.8 C109.857726,55.9150638 109.999157,55.9839657 110.15,55.99 L111.76,55.99 C111.833345,55.9916135 111.903399,55.9595924 111.950173,55.9030743 C111.996947,55.8465562 112.015302,55.7717491 112,55.7 L112,14.19 C112.000057,14.1245769 111.973403,14.0619662 111.926208,14.0166586 C111.879012,13.971351 111.815366,13.947274 111.75,13.95 L111.75,13.95 Z M219.24,13.95 L218.09,13.95 C217.948944,13.9548917 217.825578,14.0464213 217.78,14.18 L205.91,54.18 C205.91,54.31 205.81,54.31 205.77,54.18 L193.84,14.18 C193.794422,14.0464213 193.671056,13.9548917 193.53,13.95 L191.8,13.95 C191.658944,13.9548917 191.535578,14.0464213 191.49,14.18 L179.79,54.18 C179.79,54.31 179.69,54.31 179.65,54.18 L167.78,14.18 C167.734422,14.0464213 167.611056,13.9548917 167.47,13.95 L166.32,13.95 C166.262276,13.9462308 166.206597,13.9720731 166.172213,14.0185923 C166.137829,14.0651114 166.129461,14.1259223 166.15,14.18 L178.59,55.71 C178.635578,55.8435787 178.758944,55.9351083 178.9,55.94 L180.62,55.94 C180.761056,55.9351083 180.884422,55.8435787 180.93,55.71 L192.6,15.83 C192.6,15.7 192.7,15.7 192.74,15.83 L204.64,55.71 C204.685578,55.8435787 204.808944,55.9351083 204.95,55.94 L206.67,55.94 C206.811056,55.9351083 206.934422,55.8435787 206.98,55.71 L219.42,14.18 C219.441618,14.1241442 219.432248,14.0610339 219.395336,14.0138677 C219.358423,13.9667014 219.299414,13.9424394 219.24,13.95 L219.24,13.95 Z M141.32,13.35 C129.390338,13.3500204 119.717388,23.0170316 119.710041,34.9466913 C119.702694,46.876351 129.36373,56.5552692 141.293383,56.5699836 C153.223036,56.5846979 162.907918,46.9296415 162.93,35 C162.940622,29.2617443 160.66855,23.7548746 156.614737,19.693558 C152.560924,15.6322415 147.058266,13.3499902 141.32,13.35 L141.32,13.35 Z M141.32,54.86 C133.267565,54.8599837 126.008785,50.007165 122.931001,42.5661327 C119.853218,35.1251004 121.563122,26.5626262 127.262779,20.8744258 C132.962436,15.1862255 141.528333,13.4935535 148.963158,16.5863026 C156.397982,19.6790517 161.236186,26.947581 161.22,35 C161.186962,45.9702726 152.290317,54.8490354 141.32,54.86 L141.32,54.86 Z" id="Shape" fill="#FFFFFF"></path>
            <path d="M68.77,12.3 L58.84,12.3 C58.6467003,12.3 58.49,12.4567003 58.49,12.65 L58.49,57.24 C58.49,57.4332997 58.6467003,57.59 58.84,57.59 L68.77,57.59 C68.9632997,57.59 69.12,57.4332997 69.12,57.24 L69.12,12.65 C69.12,12.4567003 68.9632997,12.3 68.77,12.3 L68.77,12.3 Z M63,55.74 C63,55.7930433 62.9789286,55.8439141 62.9414214,55.8814214 C62.9039141,55.9189286 62.8530433,55.94 62.8,55.94 L60.34,55.94 C60.2295431,55.94 60.14,55.8504569 60.14,55.74 L60.14,14.15 C60.14,14.0969567 60.1610714,14.0460859 60.1985786,14.0085786 C60.2360859,13.9710714 60.2869567,13.95 60.34,13.95 L62.78,13.95 C62.8904569,13.95 62.98,14.0395431 62.98,14.15 L62.98,55.74 L63,55.74 Z M67.49,55.74 C67.49,55.7930433 67.4689286,55.8439141 67.4314214,55.8814214 C67.3939141,55.9189286 67.3430433,55.94 67.29,55.94 L64.83,55.94 C64.7195431,55.94 64.63,55.8504569 64.63,55.74 L64.63,14.15 C64.63,14.0395431 64.7195431,13.95 64.83,13.95 L67.27,13.95 C67.3230433,13.95 67.3739141,13.9710714 67.4114214,14.0085786 C67.4489286,14.0460859 67.47,14.0969567 67.47,14.15 L67.47,55.74 L67.49,55.74 Z M46.93,16.74 C45.5701533,15.3219042 43.9281914,14.2045526 42.11,13.46 C40.1717622,12.6663575 38.0943195,12.2685493 36,12.29 L30.72,12.29 C28.613555,12.2740405 26.5254382,12.6821415 24.58,13.49 C22.7618086,14.2345526 21.1198467,15.3519042 19.76,16.77 C18.4833761,18.1116022 17.4662278,19.6780107 16.76,21.39 C16.0445133,23.1317853 15.6775881,24.9969887 15.68,26.88 L15.68,57.24 C15.68,57.3328258 15.7168749,57.4218496 15.7825126,57.4874874 C15.8481504,57.5531251 15.9371742,57.59 16.03,57.59 L26.03,57.59 C26.2232997,57.59 26.38,57.4332997 26.38,57.24 L26.38,47 L26.38,47 L26.38,45.7 L40.24,45.7 L40.24,57.24 C40.24,57.4332997 40.3967003,57.59 40.59,57.59 L50.59,57.59 C50.6926889,57.6078801 50.7980037,57.5790606 50.8772803,57.5113855 C50.9565569,57.4437103 51.001545,57.3442224 51,57.24 L51,26.88 C51.0024119,24.9969887 50.6354867,23.1317853 49.92,21.39 C49.2137722,19.6780107 48.1966239,18.1116022 46.92,16.77 L46.93,16.74 Z M40.24,34.94 L26.43,34.94 L26.43,33.11 L26.43,33.11 L26.43,27 C26.3992898,25.9741109 26.7563533,24.9743331 27.43,24.2 C28.3018167,23.3435013 29.5014737,22.9059364 30.72,23 L36,23 C37.2203873,22.9003487 38.4240795,23.3344074 39.3,24.19 C39.9736467,24.9643331 40.3307102,25.9641109 40.3,26.99 L40.3,34.99 L40.24,34.94 Z M44.74,55.74 C44.74,55.8504569 44.6504569,55.94 44.54,55.94 L42.09,55.94 C42.0369567,55.94 41.9860859,55.9189286 41.9485786,55.8814214 C41.9110714,55.8439141 41.89,55.7930433 41.89,55.74 L41.89,31.4 L41.89,31.4 L41.89,27 C41.9265895,25.5738225 41.4270344,24.1857731 40.49,23.11 C39.3194731,21.9008206 37.680064,21.2618527 36,21.36 L30.72,21.36 C29.0278569,21.2473486 27.3716161,21.8835206 26.19,23.1 C25.2506022,24.1783368 24.7508862,25.5704026 24.79,27 L24.79,31.4 L24.79,31.4 L24.79,36.24 C24.79,36.3328258 24.8268749,36.4218496 24.8925126,36.4874874 C24.9581504,36.5531251 25.0471742,36.59 25.14,36.59 L40.24,36.59 L40.24,39.43 L25.14,39.43 C25.0471742,39.43 24.9581504,39.4668749 24.8925126,39.5325126 C24.8268749,39.5981504 24.79,39.6871742 24.79,39.78 L24.79,40.78 C24.79,40.9732997 24.9467003,41.13 25.14,41.13 L40.24,41.13 L40.24,44 L25.13,44 C24.9367003,44 24.78,44.1567003 24.78,44.35 L24.78,44.87 L24.78,44.87 L24.78,49.46 L24.78,49.46 L24.78,55.72 C24.78,55.8304569 24.6904569,55.92 24.58,55.92 L22.14,55.92 C22.0295431,55.92 21.94,55.8304569 21.94,55.72 L21.94,27 C21.8640677,24.6754559 22.7752276,22.4273108 24.4481373,20.811562 C26.121047,19.1958132 28.3994988,18.3633311 30.72,18.52 L36,18.52 C38.3138037,18.3751245 40.5813991,19.2128574 42.2452713,20.8272322 C43.9091435,22.441607 44.8149544,24.6828771 44.74,27 L44.74,55.74 L44.74,55.74 Z M49.11,55.94 L46.67,55.94 C46.5595431,55.94 46.47,55.8504569 46.47,55.74 L46.47,26.88 C46.472153,25.5838033 46.2207675,24.299699 45.73,23.1 C45.2416828,21.9013457 44.536565,20.8029891 43.65,19.86 C42.7168399,18.8979804 41.5927703,18.1417881 40.35,17.64 C38.9714915,17.0673262 37.4927209,16.7749716 36,16.78 L30.72,16.78 C29.2144829,16.7661901 27.7215596,17.0552527 26.33,17.63 C25.0757547,18.1313118 23.9411366,18.8911312 23,19.86 C22.1132539,20.8028477 21.4081133,21.9012399 20.92,23.1 C20.4289843,24.2996248 20.1775891,25.5837785 20.18,26.88 L20.18,55.74 C20.18,55.7930433 20.1589286,55.8439141 20.1214214,55.8814214 C20.0839141,55.9189286 20.0330433,55.94 19.98,55.94 L17.56,55.94 C17.4495431,55.94 17.36,55.8504569 17.36,55.74 L17.36,26.88 C17.3721137,25.2101726 17.7118694,23.5589598 18.36,22.02 C18.9790552,20.4959545 19.8740414,19.0992336 21,17.9 C22.190352,16.6511628 23.6274565,15.6635792 25.22,15 C26.9629772,14.2779408 28.8334463,13.9140495 30.72,13.93 L36,13.93 C37.8697163,13.9210032 39.7224741,14.2847557 41.45,15 C43.0569956,15.6584583 44.5081795,16.6463535 45.71,17.9 C46.8374708,19.0924502 47.7357759,20.4822806 48.36,22 C49.0078818,23.5390369 49.3476273,25.1901999 49.36,26.86 L49.36,55.74 C49.3620087,55.8029653 49.3342333,55.8631968 49.2850407,55.9025509 C49.2358481,55.941905 49.1709886,55.9557814 49.11,55.94 L49.11,55.94 Z" id="Shape" fill="#FFFFFF"></path>
        </g>
    </g>
</svg>
