<svg xmlns="http://www.w3.org/2000/svg" width="300" height="35" viewBox="0 0 300 35"><path fill="#64747F" fill-rule="evenodd" d="M133.9 28.8v4.1c0 .3-.2.5-.5.5h-23.8c-.3 0-.5-.2-.5-.5V2c0-.2.2-.4.5-.4H133c.3 0 .5.2.5.4v4.2c0 .3-.2.5-.5.5h-18.5v8.2h15c.3 0 .5.2.5.5v4.1c0 .3-.2.5-.4.5h-15v8.3h18.8c.3 0 .5.2.5.5m35.5-4.6c0-3-2-4.3-6.3-4.3h-10.7v8.5h10.7c4.4 0 6.3-1.2 6.3-4.2zm-7.8-17.7h-9.2v8.6h9.2c4.1 0 6-1.4 6-4.3 0-3-1.9-4.3-6-4.3zM175 24.7c0 5.5-4.2 8.7-11.8 8.7h-15.6c-.3 0-.5-.2-.5-.5V2c0-.2.2-.4.5-.4h14.2c7.4 0 11.4 2.9 11.4 8.2 0 3.5-1.8 5.8-5.4 6.9 5 1 7.2 4 7.2 8zm26.6 4.1c6.5 0 10.6-4.5 10.6-11.3 0-6.8-4.1-11.3-10.6-11.3h-.7c-6.5 0-10.6 4.5-10.6 11.3 0 6.8 4 11.3 10.6 11.3h.7zm-17-11.3c0-9.6 6.3-16.5 16.3-16.5h.7c10 0 16.3 6.9 16.3 16.5S211.5 34 201.5 34h-.7c-10 0-16.4-7-16.4-16.5zM23.7 2v4.2c0 .3-.2.5-.5.5H5.4v8.5h14.8c.3 0 .5.2.5.5v4.2c0 .2-.2.4-.5.4H5.4V33c0 .3-.2.5-.4.5H.5c-.3 0-.5-.2-.5-.5V2c0-.2.2-.4.5-.4h22.8c.3 0 .5.2.5.4m27.1 18c-1.7-4.6-3.5-9.2-5.4-13.4h-1c-2 4.2-3.8 8.8-5.5 13.3H51zm9.5 13.4h-5c-.2 0-.4-.1-.5-.4-.6-2.6-1.4-5.4-2.3-8.2H37.4c-1 2.8-1.7 5.6-2.4 8.2 0 .3-.2.4-.5.4h-4.7c-.4 0-.5-.2-.5-.5 3-10.1 7.3-21.3 11.7-30.7.2-.5.4-.6.9-.6h6.4c.4 0 .7.1.9.6a208 208 0 0 1 11.6 30.7c.1.3 0 .5-.4.5zm8.1-15.6C68.5 7.9 75 1 84.3 1h.7c5.8 0 10.3 3 12.7 7.2.1.3.1.5-.2.7l-4 2c-.2 0-.6 0-.8-.3a8.4 8.4 0 0 0-7.9-4.4h-.7c-5.8 0-9.8 4.6-9.8 11.3 0 6.8 4 11.3 9.8 11.3h.7c3.8 0 6-1.3 7.8-3.3.2-.2.4-.3.7-.1l4.1 2c.2 0 .2.2.2.3v.3c-2.6 3.7-7.2 6-12.7 6h-.7c-9.4 0-15.7-6.5-15.7-16.2m175.6 11c6.5 0 10.6-4.5 10.6-11.3 0-6.8-4-11.3-10.6-11.3h-.7c-6.5 0-10.6 4.5-10.6 11.3 0 6.8 4 11.3 10.6 11.3h.7zm-17-11.3C227 7.9 233.4 1 243.4 1h.7c10 0 16.3 6.9 16.3 16.5S254.1 34 244.1 34h-.7c-10 0-16.3-7-16.3-16.5zm72.5 15.9h-5.8c-.4 0-.6-.1-.8-.4a124 124 0 0 0-13.1-13.2h-2.7V33c0 .3-.2.5-.4.5h-4.5c-.3 0-.5-.2-.5-.5V2c0-.2.2-.4.5-.4h4.5c.2 0 .4.2.4.4v12.6h2.7c4.4-4 8.5-8.3 11.9-12.7.2-.3.4-.3.6-.3h5.6c.3 0 .4.1.4.3 0 .1 0 .2-.2.3-4.8 6-9.7 11-14.2 14.8 5.7 4.8 11 10.1 15.9 15.8.2.3 0 .6-.3.6"/></svg>