<svg width="232" height="30" viewBox="0 0 232 30" xmlns="http://www.w3.org/2000/svg" xmlns:xlink="http://www.w3.org/1999/xlink"><title>hero-logo</title><defs><path d="M151.24 8.828c-.546 0-.818-.247-.818-.74.026-.88.208-1.8.545-2.76.337-.96.85-1.834 1.536-2.625.687-.79 1.562-1.44 2.625-1.945C156.19.253 157.46 0 158.938 0c1.48 0 2.736.22 3.773.66 1.038.442 1.887 1.025 2.548 1.75.66.727 1.14 1.57 1.44 2.53.297.958.446 1.943.446 2.954 0 1.608-.35 3.034-1.05 4.278-.7 1.245-1.763 2.528-3.188 3.85l-9.1 9.256h13.027c.597 0 .895.298.895.894v.584c0 .57-.298.855-.895.855H150.89c-.57 0-.857-.284-.857-.854v-.584c0-.26.072-.512.214-.758.143-.246.396-.538.76-.875l10.07-10.073c.727-.674 1.323-1.284 1.79-1.828.466-.546.836-1.07 1.108-1.576.272-.506.46-1.01.564-1.517.103-.505.154-1.056.154-1.653 0-1.737-.492-3.098-1.477-4.083-.986-.984-2.41-1.477-4.278-1.477-1.79 0-3.19.512-4.2 1.536-1.012 1.024-1.62 2.378-1.83 4.063-.05.31-.174.538-.368.68-.195.143-.37.215-.525.215h-.778zm21.193 1.905c.026-1.426.195-2.787.506-4.083.31-1.296.83-2.437 1.554-3.422.726-.985 1.68-1.77 2.86-2.353C178.53.292 180.003 0 181.766 0c1.763 0 3.234.292 4.414.875 1.18.583 2.126 1.368 2.84 2.353.712.985 1.23 2.126 1.555 3.422.324 1.296.5 2.657.525 4.083.052 2.23.052 4.408 0 6.534-.052 1.426-.233 2.787-.544 4.083-.312 1.296-.824 2.437-1.537 3.422-.714.985-1.66 1.77-2.84 2.353-1.18.583-2.65.875-4.413.875-1.763 0-3.235-.292-4.414-.875-1.18-.583-2.126-1.368-2.84-2.353-.712-.985-1.23-2.126-1.555-3.422-.324-1.296-.5-2.657-.525-4.083-.052-2.126-.052-4.304 0-6.534zm16.217.195c-.052-2.62-.642-4.706-1.77-6.26-1.127-1.557-2.832-2.335-5.113-2.335-2.308 0-4.02.778-5.134 2.334-1.114 1.555-1.698 3.642-1.75 6.26-.026 1.09-.04 2.107-.04 3.054 0 .947.014 1.977.04 3.092.052 2.67.636 4.77 1.75 6.3 1.115 1.53 2.826 2.295 5.134 2.295 2.307 0 4.018-.765 5.133-2.295 1.115-1.53 1.698-3.63 1.75-6.3.026-1.115.04-2.145.04-3.09 0-.948-.014-1.965-.04-3.054zm17.422 15.828c0 .57-.285.855-.855.855h-.74c-.57 0-.855-.284-.855-.854V3.578l-6.96 5.366c-.468.337-.87.286-1.206-.155l-.428-.546c-.156-.207-.22-.42-.195-.64.026-.222.143-.41.35-.565l8.284-6.38c.18-.13.35-.206.505-.232.156-.026.324-.04.506-.04h.74c.57 0 .854.286.854.856v25.512zm5.29-7.934c0-.752.083-1.478.252-2.178.168-.7.382-1.34.642-1.925.26-.584.525-1.115.797-1.595s.525-.875.758-1.186l7.662-10.773c.13-.13.272-.292.428-.486.156-.194.415-.29.778-.29h.74c.232 0 .42.083.563.252.143.168.214.37.214.602 0 .13-.02.234-.058.312-.04.077-.084.142-.136.194l-5.833 8.244c.363-.103.784-.18 1.264-.233.48-.05.94-.077 1.38-.077 1.557 0 2.924.253 4.104.76 1.18.504 2.165 1.185 2.955 2.04.79.856 1.386 1.835 1.788 2.936.402 1.1.603 2.236.603 3.402 0 1.167-.2 2.3-.602 3.403-.402 1.102-.998 2.08-1.79 2.936-.79.857-1.774 1.544-2.954 2.062-1.18.52-2.547.778-4.103.778-1.554 0-2.922-.26-4.102-.778-1.18-.518-2.164-1.205-2.955-2.06-.79-.856-1.387-1.835-1.79-2.937-.4-1.102-.602-2.236-.602-3.403zm16.45 0c0-1.115-.195-2.093-.584-2.936-.39-.842-.908-1.55-1.556-2.12-.648-.57-1.393-1.004-2.236-1.302-.842-.298-1.717-.447-2.625-.447-.906 0-1.78.15-2.624.447-.842.298-1.588.732-2.236 1.303-.648.57-1.167 1.277-1.556 2.12-.388.842-.583 1.82-.583 2.935s.196 2.1.584 2.956c.39.855.908 1.568 1.556 2.14.648.57 1.394 1.003 2.236 1.3.843.3 1.718.45 2.625.45.91 0 1.784-.15 2.626-.45.843-.297 1.588-.73 2.236-1.3.648-.572 1.167-1.285 1.556-2.14.39-.856.583-1.84.583-2.956z" id="b"/><filter x="-50%" y="-50%" width="200%" height="200%" filterUnits="objectBoundingBox" id="a"><feOffset dy="2" in="SourceAlpha" result="shadowOffsetOuter1"/><feGaussianBlur stdDeviation=".5" in="shadowOffsetOuter1" result="shadowBlurOuter1"/><feColorMatrix values="0 0 0 0 0 0 0 0 0 0 0 0 0 0 0 0 0 0 0.3 0" in="shadowBlurOuter1"/></filter><path d="M20.65.39c.285 0 .53.103.74.31.206.207.31.454.31.74v5.91c0 .285-.104.53-.31.74-.21.206-.455.31-.74.31H9.528v2.878h10.344c.285 0 .532.103.74.31.207.208.31.455.31.74V18.2c0 .285-.103.53-.31.74-.208.206-.455.31-.74.31H9.528v7.31c0 .286-.104.533-.31.74-.21.207-.455.31-.74.31H1.05c-.285 0-.53-.103-.74-.31-.206-.207-.31-.454-.31-.74V1.44C0 1.153.104.906.31.7.52.493.766.39 1.05.39h19.6zm19.833 0c.52 0 .92.14 1.206.427.284.285.466.57.543.855l8.673 24.81c.025.08.038.17.038.274 0 .233-.084.434-.252.602-.17.17-.37.253-.603.253h-7.196c-.518 0-.88-.11-1.088-.33-.208-.22-.35-.434-.428-.64l-.934-2.568h-8.36l-.934 2.567c-.078.206-.22.42-.428.64-.207.22-.57.33-1.09.33H22.44c-.234 0-.435-.083-.604-.252-.168-.168-.253-.37-.253-.602 0-.104.013-.195.04-.273l8.67-24.81c.08-.286.26-.57.546-.856.284-.286.686-.428 1.204-.428h8.44zm-2.022 16.1l-2.216-7.234-2.177 7.233h4.394zM72.76.39c.286 0 .533.103.74.31.207.207.31.454.31.74V7.7c0 .285-.103.53-.31.74-.207.206-.454.31-.74.31h-6.454v17.81c0 .286-.104.533-.312.74-.207.207-.453.31-.738.31h-7.778c-.285 0-.532-.103-.74-.31-.207-.207-.31-.454-.31-.74V8.75h-6.456c-.285 0-.53-.104-.74-.31-.206-.21-.31-.455-.31-.74V1.44c0-.286.104-.533.31-.74.21-.207.455-.31.74-.31h22.79zM97.534 10.77l5.64-9.333c.077-.13.246-.338.505-.623.26-.286.648-.428 1.166-.428h6.145c.284 0 .53.103.738.31.207.207.31.454.31.74v25.12c0 .286-.103.533-.31.74-.208.207-.454.31-.74.31h-7.038c-.285 0-.53-.103-.74-.31-.206-.207-.31-.454-.31-.74V15.907l-2.567 4.2c-.13.207-.304.42-.525.64-.22.222-.525.332-.914.332h-2.722c-.39 0-.693-.11-.914-.33-.22-.22-.395-.435-.525-.642l-2.566-4.2V26.56c0 .286-.104.533-.31.74-.21.207-.455.31-.74.31h-7.04c-.284 0-.53-.103-.738-.31-.21-.207-.312-.454-.312-.74V1.44c0-.286.103-.533.31-.74.208-.207.455-.31.74-.31h6.144c.52 0 .908.14 1.167.427.258.285.427.492.504.622l5.64 9.332zm39.434 8.867c.285 0 .53.103.74.31.206.207.31.454.31.74v5.87c0 .286-.104.533-.31.74-.21.207-.455.31-.74.31h-19.6c-.286 0-.532-.103-.74-.31-.207-.207-.31-.454-.31-.74V1.44c0-.286.103-.533.31-.74.208-.207.454-.31.74-.31h7.777c.286 0 .532.103.74.31.207.207.31.454.31.74v18.2h10.773z" id="d"/><filter x="-50%" y="-50%" width="200%" height="200%" filterUnits="objectBoundingBox" id="c"><feOffset dy="2" in="SourceAlpha" result="shadowOffsetOuter1"/><feGaussianBlur stdDeviation=".5" in="shadowOffsetOuter1" result="shadowBlurOuter1"/><feColorMatrix values="0 0 0 0 0 0 0 0 0 0 0 0 0 0 0 0 0 0 0.3 0" in="shadowBlurOuter1"/></filter></defs><g fill="none" fill-rule="evenodd"><g transform="translate(1)"><use fill="#000" filter="url(#a)" xlink:href="#b"/><use fill="#4DCFB6" xlink:href="#b"/></g><g transform="translate(1)"><use fill="#000" filter="url(#c)" xlink:href="#d"/><use fill="#FFF" xlink:href="#d"/></g></g></svg>