<svg width="165" height="20" viewBox="0 0 165 20" xmlns="http://www.w3.org/2000/svg"><title>header-logo</title><g fill="none" fill-rule="evenodd"><path d="M108.028 6.306c-.39 0-.584-.176-.584-.528.02-.63.15-1.287.39-1.972.24-.686.606-1.31 1.097-1.875.49-.564 1.116-1.027 1.876-1.388.76-.36 1.666-.542 2.722-.542 1.055 0 1.953.157 2.694.472.74.315 1.347.732 1.82 1.25.472.52.814 1.12 1.027 1.806.212.685.32 1.39.32 2.11 0 1.15-.25 2.168-.75 3.056-.5.89-1.26 1.806-2.28 2.75l-6.5 6.612h9.307c.426 0 .64.213.64.638v.417c0 .41-.214.612-.64.612h-11.39c-.407 0-.61-.203-.61-.61v-.418c0-.185.05-.365.152-.54.1-.177.282-.385.54-.626l7.196-7.195c.518-.48.944-.916 1.277-1.305.334-.39.598-.764.792-1.125.194-.36.33-.722.403-1.084.074-.362.11-.755.11-1.18 0-1.242-.35-2.214-1.055-2.918-.703-.703-1.722-1.055-3.055-1.055-1.278 0-2.278.365-3 1.097-.722.73-1.158 1.7-1.306 2.903-.037.222-.125.384-.264.486-.14.102-.264.153-.375.153h-.555zm15.14 1.36c.017-1.018.138-1.99.36-2.916.222-.926.592-1.74 1.11-2.444.52-.704 1.2-1.264 2.043-1.68.843-.418 1.894-.626 3.153-.626 1.26 0 2.31.208 3.153.625.843.417 1.52.977 2.028 1.68.51.704.88 1.52 1.11 2.445.232.926.357 1.898.376 2.917.037 1.592.037 3.148 0 4.666-.037 1.02-.167 1.99-.39 2.917-.22.926-.587 1.74-1.096 2.444-.51.704-1.185 1.264-2.028 1.68-.842.418-1.893.626-3.153.626s-2.31-.208-3.152-.625c-.842-.417-1.518-.977-2.027-1.68-.51-.704-.88-1.52-1.11-2.445-.233-.926-.358-1.898-.376-2.917-.037-1.518-.037-3.074 0-4.666zm11.582.14c-.037-1.87-.458-3.362-1.264-4.473-.805-1.11-2.023-1.666-3.653-1.666-1.648 0-2.87.555-3.666 1.666-.797 1.11-1.213 2.602-1.25 4.473-.02.777-.028 1.504-.028 2.18 0 .676.008 1.412.027 2.208.037 1.908.453 3.408 1.25 4.5.796 1.093 2.018 1.64 3.666 1.64 1.648 0 2.87-.547 3.667-1.64.796-1.092 1.213-2.592 1.25-4.5.02-.796.028-1.532.028-2.208 0-.676-.01-1.403-.028-2.18zm12.444 11.305c0 .41-.203.612-.61.612h-.528c-.408 0-.612-.203-.612-.61V2.555l-4.972 3.833c-.333.24-.62.203-.86-.112l-.306-.39c-.112-.147-.158-.3-.14-.457.02-.157.103-.29.25-.402l5.917-4.556c.13-.092.25-.148.36-.166.113-.02.233-.028.363-.028h.527c.408 0 .61.203.61.61v18.223zm3.778-5.666c0-.537.06-1.055.18-1.555s.274-.96.46-1.376c.184-.417.374-.796.57-1.14.193-.342.374-.624.54-.846l5.472-7.695c.093-.092.195-.208.306-.347.11-.14.296-.208.556-.208h.527c.167 0 .3.06.403.18.102.12.153.264.153.43 0 .093-.015.168-.043.223-.028.057-.06.103-.097.14l-4.167 5.89c.26-.075.56-.13.903-.168.343-.037.67-.055.986-.055 1.11 0 2.088.18 2.93.54.843.362 1.547.85 2.112 1.46.565.61.99 1.31 1.278 2.097.287.787.43 1.597.43 2.43 0 .834-.143 1.644-.43 2.43-.287.788-.713 1.487-1.278 2.098-.565.61-1.27 1.102-2.11 1.472-.844.37-1.82.556-2.932.556-1.11 0-2.088-.185-2.93-.556-.843-.37-1.547-.86-2.11-1.472-.566-.61-.992-1.31-1.28-2.097-.286-.787-.43-1.597-.43-2.43zm11.75 0c0-.796-.14-1.495-.416-2.097-.278-.602-.65-1.106-1.112-1.514-.463-.407-.995-.717-1.597-.93-.602-.213-1.227-.32-1.875-.32-.648 0-1.273.107-1.875.32-.602.213-1.134.523-1.597.93-.463.408-.833.912-1.11 1.514-.28.602-.418 1.3-.418 2.097 0 .797.14 1.5.417 2.112.277.61.647 1.12 1.11 1.527.463.408.995.718 1.597.93.602.214 1.227.32 1.875.32.648 0 1.273-.106 1.875-.32.602-.212 1.134-.522 1.597-.93.463-.407.834-.916 1.112-1.527.277-.612.416-1.315.416-2.112z" fill="#4DCFB6"/><path d="M14.75.278c.204 0 .38.074.528.222.148.148.222.324.222.528V5.25c0 .204-.074.38-.222.528-.148.148-.324.222-.528.222H6.806v2.056h7.388c.204 0 .38.074.528.222.148.148.222.324.222.528V13c0 .204-.074.38-.222.528-.148.148-.324.222-.528.222H6.806v5.222c0 .204-.075.38-.223.528-.148.148-.324.222-.527.222H.75c-.204 0-.38-.074-.528-.222-.148-.148-.222-.324-.222-.528V1.028C0 .824.074.648.222.5.37.352.546.278.75.278h14zm14.167 0c.37 0 .657.102.86.305.204.204.334.408.39.61l6.194 17.724c.02.055.03.12.03.194 0 .168-.06.31-.182.432-.12.12-.264.18-.43.18h-5.14c-.37 0-.63-.078-.777-.236-.147-.157-.25-.31-.304-.458l-.667-1.834h-5.973l-.667 1.834c-.056.148-.157.3-.306.458-.148.158-.407.236-.777.236h-5.14c-.166 0-.31-.06-.43-.18s-.18-.264-.18-.43c0-.075.01-.14.027-.195L21.64 1.194c.054-.203.184-.407.388-.61.203-.204.49-.306.86-.306h6.03zm-1.445 11.5L25.89 6.61l-1.557 5.168h3.14zm24.5-11.5c.204 0 .38.074.528.222.148.148.222.324.222.528V5.5c0 .204-.074.38-.222.528-.148.148-.324.222-.528.222h-4.61v12.722c0 .204-.075.38-.223.528-.15.148-.325.222-.53.222h-5.554c-.204 0-.38-.074-.528-.222-.148-.148-.222-.324-.222-.528V6.25h-4.612c-.203 0-.38-.074-.527-.222-.148-.148-.223-.324-.223-.528V1.028c0-.204.075-.38.223-.528.148-.148.324-.222.527-.222h16.278zm17.695 7.416l4.027-6.666c.056-.093.176-.24.362-.445.185-.203.463-.305.833-.305h4.388c.203 0 .38.074.528.222.148.148.222.324.222.528v17.944c0 .204-.074.38-.222.528-.15.148-.325.222-.528.222H74.25c-.204 0-.38-.074-.528-.222-.148-.148-.222-.324-.222-.528v-7.61l-1.833 3c-.093.147-.218.3-.375.457-.158.157-.375.236-.653.236h-1.946c-.277 0-.495-.08-.652-.237-.158-.158-.283-.31-.375-.46l-1.834-3v7.612c0 .204-.074.38-.222.528-.147.148-.323.222-.527.222h-5.027c-.204 0-.38-.074-.528-.222-.148-.148-.222-.324-.222-.528V1.028c0-.204.074-.38.222-.528.148-.148.324-.222.528-.222h4.388c.37 0 .65.102.834.305.185.204.305.352.36.445l4.03 6.666zm28.166 6.334c.204 0 .38.074.528.222.15.148.223.324.223.528v4.194c0 .204-.074.38-.222.528-.147.148-.323.222-.527.222h-14c-.203 0-.38-.074-.527-.222-.15-.148-.223-.324-.223-.528V1.028c0-.204.074-.38.223-.528.148-.148.324-.222.527-.222h5.556c.203 0 .38.074.527.222.148.148.222.324.222.528v13h7.693z" fill="#FFF"/></g></svg>