<svg xmlns="http://www.w3.org/2000/svg" width="300" height="75"><g fill="none" fill-rule="evenodd"><path fill="#000000" d="M294.76 9.6c-3.08-3.12-7.01-4.77-12.18-4.77-10.91 0-18.25 8-18.25 19.9 0 11.69 7.3 19.24 18.61 19.24 8.57 0 14.98-4.53 16.75-11.83l.08-.35h-9.11l-.06.2c-1.05 3.14-3.72 4.8-7.73 4.8-5.52 0-8.81-3.31-9.53-9.58h26.54l.02-.25c0-.04.08-.88.08-2.09.07-6.46-1.73-11.74-5.22-15.27m-21.2 11.28c.93-5.68 4.2-8.93 9.02-8.93 5.04 0 8.07 3.17 8.55 8.93h-17.57M0 5.26v37.86h26.91v-8.48H9.47V5.26H0M117.39 4.83c-5.17 0-9.4 2.28-11.97 6.42-2.3-4.14-6.39-6.42-11.57-6.42-4.65 0-8.49 1.87-10.92 5.28V5.69H74.6v37.43h9.04v-22.1c0-5.04 2.95-8.29 7.5-8.29 4.59 0 7.21 3.2 7.21 8.78v21.6h9.05v-22.1c0-5.03 2.94-8.28 7.5-8.28 4.53 0 7.13 3.2 7.13 8.78v21.6h9.05V19.95c0-9.32-5.25-15.1-13.7-15.1M140.18 43.12h9.05V5.69h-9.05zM177.9 4.83c-4.97 0-8.71 1.79-11.14 5.32V5.69h-8.32v37.43h9.04v-21.4c0-5.63 3-9.13 7.85-9.13 4.81 0 7.36 3.14 7.36 9.07v21.46h9.04V19.8c0-9.37-5.17-14.97-13.83-14.97m38.06 0c-9.64 0-15.54 4.42-16.61 12.44l-.04.31h9.1l.05-.23c.67-3.83 3.05-5.62 7.5-5.62 3.16 0 6.92 1.1 6.92 6.29v1.89l-11.16 1.11c-8.6.9-13.16 4.93-13.16 11.7 0 6.52 5.67 11.25 13.47 11.25 4.89 0 8.77-1.71 11.57-5.1v4.25h8.25V18.45c0-8.91-5.5-13.62-15.9-13.62m6.86 20.92v2.68c0 5.64-3.25 9-8.7 9-3.77 0-6.3-2.07-6.3-5.15 0-3.06 2.04-4.91 5.9-5.36l9.1-1.17M251.71.08h-9.04v.89c0 .88-.21 2.41-1.24 3.51-1 1.07-2.74 1.2-3.39 1.2h-1.29v7.62h5.92v17.84c0 8.12 4.04 12.4 11.69 12.4 1.98 0 3.24-.12 4.98-.5l.22-.05v-7.54l-.33.06c-.79.14-1.72.2-2.95.2-3.07 0-4.57-1.65-4.57-5.07V13.3h7.85V5.7h-7.85V.09M56.95 27.5c0 5.33-3.13 8.78-8 8.78-4.18 0-6.5-2.56-6.5-7.21V5.68h-9.03v24.46c0 8.8 4.8 13.83 13.18 13.83 4.77 0 8.6-1.91 11.14-5.55v4.7H66V5.69h-9.05V27.5"/><path fill="#000000" d="M8.43 65.83c0-1.4-1.04-1.94-2.63-1.94H2.44v3.97h3.34c1.65 0 2.65-.57 2.65-2.03zm-6-7.5V62h3.15c1.46 0 2.26-.73 2.26-1.87 0-1.23-.9-1.8-2.42-1.8H2.44zm8.44 7.6c0 2.22-1.44 3.84-4.74 3.84H0V56.42h5.78c3.08 0 4.52 1.4 4.52 3.54 0 1.31-.79 2.41-2.2 2.8 1.9.42 2.77 1.5 2.77 3.17zm10.28-6.33v10.17h-2.12v-1.48A3.5 3.5 0 0 1 15.88 70c-2.24 0-3.56-1.32-3.56-3.73V59.6h2.34v6.37c0 1.32.65 2.07 1.87 2.07 1.4 0 2.28-.99 2.28-2.5V59.6h2.34m2.06 10.17h2.34V59.6h-2.34v10.17zm-.27-13.13c0-.81.6-1.42 1.45-1.42.83 0 1.43.61 1.43 1.42 0 .78-.6 1.41-1.43 1.41a1.4 1.4 0 0 1-1.45-1.41zM27.65 69.77H30V55.6h-2.34zM39.23 64.7c0-2.05-1.12-3.43-2.67-3.43-1.64 0-2.68 1.36-2.68 3.42 0 2.07 1.1 3.4 2.68 3.4 1.55 0 2.67-1.27 2.67-3.4zm2.34-9.09v14.16h-2.12v-1.8A3.54 3.54 0 0 1 36.06 70c-2.43 0-4.56-1.96-4.56-5.3 0-3.37 2.03-5.33 4.47-5.33 1.49 0 2.57.59 3.26 1.6v-5.36h2.34zm2.08 14.16h2.34V59.6h-2.34v10.17zm-.27-13.13c0-.81.6-1.42 1.45-1.42.83 0 1.43.61 1.43 1.42 0 .78-.6 1.41-1.43 1.41a1.4 1.4 0 0 1-1.45-1.41zm13.7 6.78v6.35h-2.34v-5.84c0-1.77-.81-2.58-2.1-2.58s-2.25.87-2.25 2.6v5.82h-2.34V59.6h2.15v1.42c.64-1.1 1.7-1.65 3.14-1.65 2.16 0 3.73 1.31 3.73 4.05m9.12.9c0-1.87-1.16-3.05-2.67-3.05-1.6 0-2.71 1.18-2.71 3.07 0 1.87 1.18 3.05 2.71 3.05s2.67-1.24 2.67-3.07zm2.34-4.72v9.67c0 2.44-1.41 4.43-4.93 4.43-3.6 0-4.78-1.58-4.97-3.6h2.45c.1 1.14.83 1.85 2.5 1.85s2.61-.89 2.61-2.58v-1.7c-.7 1.11-1.8 1.62-3.2 1.62-2.5 0-4.52-1.9-4.52-4.95 0-3.07 2-4.97 4.52-4.97 1.51 0 2.67.65 3.38 1.8V59.6h2.16zm5.74 7.2h2.3c.22 1 .96 1.51 2.3 1.51 1.38 0 2.02-.51 2.02-1.26 0-.65-.35-1.1-1.4-1.27l-2.15-.4c-2-.4-2.87-1.33-2.87-2.89 0-1.67 1.41-3.12 4.1-3.12 2.68 0 4.17 1.3 4.49 3.36h-2.3c-.18-1.12-.93-1.67-2.2-1.67-1.24 0-1.9.57-1.9 1.3 0 .58.34 1 1.44 1.17l2.15.38c2.16.37 2.98 1.41 2.98 2.97 0 1.69-1.33 3.12-4.34 3.12-2.97 0-4.29-1.3-4.62-3.2m13.46-5.25v4.85c0 1.03.48 1.48 1.34 1.48.35 0 .6-.02.83-.06v1.93c-.46.1-.8.13-1.36.13-2.14 0-3.15-1.22-3.15-3.34v-5h-1.63V59.6h1.63v-2.87h2.34v2.87h2.17v1.95h-2.17m9.04-1.97v2.07c-.15-.02-.35-.02-.59-.02-1.63 0-2.45.76-2.45 2.38v5.76h-2.34V59.6h2.14v1.67a2.68 2.68 0 0 1 2.58-1.76c.2 0 .45.01.66.07M105 64.7c0-2.04-1.06-3.4-2.7-3.4-1.64 0-2.7 1.36-2.7 3.42 0 2 1.08 3.36 2.7 3.36 1.64 0 2.7-1.35 2.7-3.38zm-7.74.02c0-3.26 2.1-5.34 5.05-5.34 2.95 0 5.05 2.08 5.05 5.32 0 3.23-2.1 5.31-5.03 5.31-2.97 0-5.07-2.06-5.07-5.29zm20.5-1.3v6.36h-2.34v-5.84c0-1.77-.8-2.58-2.1-2.58-1.28 0-2.25.87-2.25 2.6v5.82h-2.34V59.6h2.15v1.42c.64-1.1 1.7-1.65 3.14-1.65 2.16 0 3.74 1.31 3.74 4.05m9.11.9c0-1.87-1.16-3.05-2.67-3.05-1.59 0-2.71 1.18-2.71 3.07 0 1.87 1.18 3.05 2.71 3.05s2.67-1.24 2.67-3.07zm2.34-4.72v9.67c0 2.44-1.41 4.43-4.93 4.43-3.6 0-4.78-1.58-4.97-3.6h2.45c.1 1.14.83 1.85 2.5 1.85s2.61-.89 2.61-2.58v-1.7c-.7 1.11-1.8 1.62-3.2 1.62-2.5 0-4.52-1.9-4.52-4.95 0-3.07 2-4.97 4.52-4.97 1.51 0 2.67.65 3.38 1.8V59.6h2.16zm8.77 4.19c-.12-1.73-1.02-2.61-2.44-2.61-1.31 0-2.32.86-2.57 2.61h5zm2.4 1.02c0 .34-.02.57-.02.57h-7.45c.2 1.95 1.26 2.8 2.71 2.8 1.22 0 1.93-.56 2.2-1.38h2.36c-.43 1.79-2 3.2-4.54 3.2-3.2 0-5.05-2.14-5.05-5.23 0-3.28 2.04-5.4 4.95-5.4 3.13 0 4.88 2.16 4.84 5.44zm6.97-5.23v2.07c-.15-.02-.35-.02-.59-.02-1.63 0-2.45.76-2.45 2.38v5.76h-2.34V59.6h2.14v1.67a2.68 2.68 0 0 1 2.57-1.76c.2 0 .46.01.67.07m4.44 7.22h2.3c.22 1 .97 1.51 2.3 1.51 1.38 0 2.03-.51 2.03-1.26 0-.65-.35-1.1-1.4-1.27l-2.16-.4c-2-.4-2.87-1.33-2.87-2.89 0-1.67 1.42-3.12 4.1-3.12 2.68 0 4.18 1.3 4.5 3.36h-2.3c-.19-1.12-.93-1.67-2.21-1.67-1.24 0-1.89.57-1.89 1.3 0 .58.34 1 1.44 1.17l2.14.38c2.16.37 2.99 1.41 2.99 2.97 0 1.69-1.34 3.12-4.35 3.12-2.96 0-4.28-1.3-4.62-3.2m17.7-2.1c0-2.05-1.07-3.4-2.7-3.4-1.65 0-2.71 1.35-2.71 3.41 0 2 1.08 3.36 2.71 3.36s2.7-1.35 2.7-3.38zm-7.75.01c0-3.26 2.1-5.34 5.05-5.34 2.95 0 5.05 2.08 5.05 5.32 0 3.23-2.1 5.31-5.03 5.31-2.97 0-5.07-2.06-5.07-5.29zm11.12-.04c0-3.3 2.1-5.3 5-5.3 2.83 0 4.34 1.57 4.65 3.8h-2.4c-.23-1.23-.96-1.88-2.27-1.88-1.61 0-2.62 1.26-2.62 3.36 0 2.1 1 3.42 2.62 3.42 1.31 0 2.02-.64 2.28-1.86h2.37c-.33 2.26-1.9 3.8-4.63 3.8-2.9 0-5-2.03-5-5.34m11.1 5.1h2.35V59.6h-2.34v10.17zm-.27-13.13c0-.81.61-1.42 1.46-1.42.82 0 1.43.61 1.43 1.42 0 .78-.6 1.41-1.43 1.41a1.4 1.4 0 0 1-1.46-1.41zm11.42 7.15c-.12-1.73-1.02-2.61-2.44-2.61-1.31 0-2.31.86-2.57 2.61h5.01zm2.4 1.02c0 .34-.02.57-.02.57h-7.45c.2 1.95 1.26 2.8 2.71 2.8 1.22 0 1.93-.56 2.2-1.38h2.36c-.43 1.79-2 3.2-4.54 3.2-3.2 0-5.05-2.14-5.05-5.23 0-3.28 2.05-5.4 4.95-5.4 3.13 0 4.88 2.16 4.84 5.44zm4.7-3.26v4.85c0 1.03.47 1.48 1.33 1.48.36 0 .61-.02.83-.06v1.93c-.45.1-.79.13-1.36.13-2.14 0-3.14-1.22-3.14-3.34v-5h-1.63V59.6h1.63v-2.87h2.34v2.87h2.16v1.95h-2.16m3.7 8.22h2.33V59.6h-2.34v10.17zm-.28-13.13c0-.81.6-1.42 1.45-1.42.83 0 1.44.61 1.44 1.42 0 .78-.61 1.41-1.44 1.41a1.4 1.4 0 0 1-1.45-1.41zm11.41 7.15c-.11-1.73-1.02-2.61-2.43-2.61-1.32 0-2.32.86-2.58 2.61h5.01zm2.4 1.02c0 .34-.02.57-.02.57h-7.45c.2 1.95 1.26 2.8 2.72 2.8 1.22 0 1.92-.56 2.2-1.38h2.36c-.43 1.79-2 3.2-4.54 3.2-3.2 0-5.05-2.14-5.05-5.23 0-3.28 2.04-5.4 4.95-5.4 3.12 0 4.87 2.16 4.83 5.44zm.99 1.99h2.3c.21 1 .96 1.51 2.3 1.51 1.37 0 2.02-.51 2.02-1.26 0-.65-.35-1.1-1.4-1.27l-2.16-.4c-2-.4-2.87-1.33-2.87-2.89 0-1.67 1.42-3.12 4.1-3.12 2.68 0 4.18 1.3 4.5 3.36h-2.3c-.19-1.12-.93-1.67-2.21-1.67-1.24 0-1.89.57-1.89 1.3 0 .58.34 1 1.44 1.17l2.14.38c2.16.37 2.99 1.41 2.99 2.97 0 1.69-1.34 3.12-4.35 3.12-2.96 0-4.28-1.3-4.61-3.2"/></g></svg>