<svg xmlns="http://www.w3.org/2000/svg" viewBox="0 0 841.89 396.85"><path d="M421.8 277.91a11.3 11.3 0 0 1-5.64-1.5l-59.83-34.55a11.33 11.33 0 0 1-5.65-9.78v-69.09a11.33 11.33 0 0 1 5.65-9.78l59.83-34.54a11.33 11.33 0 0 1 11.3 0l59.82 34.54a11.34 11.34 0 0 1 5.65 9.78v69.09a11.33 11.33 0 0 1-5.65 9.78l-59.82 34.54a11.3 11.3 0 0 1-5.65 1.51z" fill="#f9f7f2"/><path d="M347.64 308.1c60.97 40.35 143.4 23.57 183.74-37.4s23.56-143.4-37.4-183.73l-5.3 7.99a123.04 123.04 0 1 1-63.56-20.34l-19.08 16.76 6.28 7.26 30.85-26.95-28.66-28.4-6.8 6.77L422.92 65a132.4 132.4 0 0 0-112.67 59.38c-40.35 60.97-23.57 143.4 37.4 183.73z" fill="#dcd9d2"/><circle cx="485.57" cy="85.34" r="23.72" fill="#e14c4c"/><circle cx="485.56" cy="309.2" r="23.72" fill="#ffd837"/><circle cx="550.19" cy="197.27" r="23.72" fill="#f5a240"/><circle cx="356.32" cy="309.19" r="23.72" fill="#63b456"/><circle cx="291.7" cy="197.26" r="23.72" fill="#5aaadf"/><circle cx="356.32" cy="85.34" r="23.72" fill="#a1509a"/><path d="M526.23 33.27h6.8v1.26h-5.29v3.7h4.47v1.28h-4.47v4.29h5.48v1.28h-7zM534.27 36.33h1.54l1.65 4.97c.25.86.54 1.74.81 2.57h.07c.26-.83.54-1.7.8-2.57l1.65-4.97h1.46l-3.1 8.75h-1.72zM543.67 33.57a1.03 1.03 0 0 1 2.05 0 1.03 1.03 0 0 1-2.05 0zm.27 2.76h1.48v8.75h-1.48zM551.54 36.11a3.6 3.6 0 0 1 2.45 1l-.08-1.48v-3.37h1.5v12.82h-1.23l-.12-1.03H554a3.95 3.95 0 0 1-2.64 1.24c-2.2 0-3.62-1.65-3.62-4.57 0-2.84 1.8-4.6 3.8-4.6zm.14 7.94a2.96 2.96 0 0 0 2.23-1.2v-4.58a3.05 3.05 0 0 0-2.12-.92c-1.4 0-2.52 1.35-2.52 3.35 0 2.1.88 3.35 2.41 3.35zM561.64 36.11c2.23 0 3.49 1.6 3.49 4.1a5.2 5.2 0 0 1-.06.82h-5.9c.1 1.89 1.24 3.08 2.92 3.08a3.96 3.96 0 0 0 2.17-.69l.53.97a5.21 5.21 0 0 1-2.88.9c-2.35 0-4.2-1.7-4.2-4.57s1.93-4.6 3.93-4.6zm2.2 3.94c0-1.78-.8-2.77-2.17-2.77-1.22 0-2.34 1.01-2.52 2.77zM567.29 36.33h1.22l.13 1.26h.05a4.13 4.13 0 0 1 2.94-1.48c1.83 0 2.66 1.19 2.66 3.42v5.55h-1.48v-5.35c0-1.64-.5-2.34-1.65-2.34-.9 0-1.52.47-2.4 1.35v6.34h-1.47zM580.7 36.11a3.6 3.6 0 0 1 2.55 1.05l-.73.95a2.65 2.65 0 0 0-1.77-.77c-1.58 0-2.73 1.36-2.73 3.38 0 2 1.1 3.35 2.7 3.35a3.12 3.12 0 0 0 2.05-.88l.66.97a4.33 4.33 0 0 1-2.84 1.13c-2.32 0-4.1-1.67-4.1-4.57 0-2.93 1.96-4.6 4.2-4.6zM588.24 36.11c2.23 0 3.5 1.6 3.5 4.1a5.19 5.19 0 0 1-.06.82h-5.9c.1 1.89 1.24 3.08 2.91 3.08a3.96 3.96 0 0 0 2.18-.69l.52.97a5.21 5.21 0 0 1-2.88.9c-2.34 0-4.2-1.7-4.2-4.57s1.93-4.6 3.93-4.6zm2.2 3.94c0-1.78-.8-2.77-2.16-2.77-1.23 0-2.34 1.01-2.53 2.77zM593.26 40h4.14v1.13h-4.14zM599.6 32.26h1.47v3.5l-.03 1.58a4.32 4.32 0 0 1 2.73-1.23c2.27 0 3.48 1.75 3.48 4.45 0 2.99-1.78 4.73-3.78 4.73a3.96 3.96 0 0 1-2.5-1.08h-.06l-.13.87h-1.18zm3.62 11.8c1.44 0 2.5-1.32 2.5-3.48 0-1.93-.65-3.23-2.3-3.23a3.61 3.61 0 0 0-2.35 1.2v4.58a3.43 3.43 0 0 0 2.15.92zM614.28 39.53c0-1.11-.37-2.2-1.8-2.2a4.7 4.7 0 0 0-2.6.94l-.6-1.02a6.5 6.5 0 0 1 3.44-1.14c2.14 0 3.04 1.42 3.04 3.6v5.37h-1.22l-.13-1.05h-.03a4.76 4.76 0 0 1-2.9 1.26 2.39 2.39 0 0 1-2.58-2.48c0-1.91 1.66-2.86 5.38-3.28zm-2.39 4.58a3.58 3.58 0 0 0 2.4-1.17V40.5c-2.94.36-3.93 1.08-3.93 2.2a1.34 1.34 0 0 0 1.53 1.4zM618.31 43.1a3.94 3.94 0 0 0 2.58 1.04c1.15 0 1.73-.61 1.73-1.37 0-.9-1.05-1.3-2-1.65-1.24-.45-2.61-1.05-2.61-2.52 0-1.4 1.12-2.49 3-2.49a4.37 4.37 0 0 1 2.72 1l-.7.93a3.25 3.25 0 0 0-2-.78c-1.1 0-1.6.6-1.6 1.26 0 .81.96 1.14 1.95 1.52 1.26.46 2.66.99 2.66 2.64 0 1.43-1.13 2.61-3.2 2.61a5.27 5.27 0 0 1-3.26-1.2zM629.37 36.11c2.23 0 3.5 1.6 3.5 4.1a5.19 5.19 0 0 1-.06.82h-5.9c.1 1.89 1.23 3.08 2.9 3.08a3.96 3.96 0 0 0 2.19-.69l.52.97a5.21 5.21 0 0 1-2.88.9c-2.34 0-4.2-1.7-4.2-4.57s1.93-4.6 3.93-4.6zm2.2 3.94c0-1.78-.8-2.77-2.17-2.77-1.22 0-2.34 1.01-2.52 2.77zM638.19 36.11a3.6 3.6 0 0 1 2.45 1l-.08-1.48v-3.37h1.5v12.82h-1.23l-.12-1.03h-.06a3.95 3.95 0 0 1-2.64 1.24c-2.2 0-3.62-1.65-3.62-4.57 0-2.84 1.8-4.6 3.8-4.6zm.14 7.94a2.96 2.96 0 0 0 2.23-1.2v-4.58a3.05 3.05 0 0 0-2.12-.92c-1.4 0-2.52 1.35-2.52 3.35 0 2.1.88 3.35 2.41 3.35zM652.2 36.11a3.6 3.6 0 0 1 2.57 1.05l-.74.95a2.64 2.64 0 0 0-1.77-.77c-1.58 0-2.73 1.36-2.73 3.38 0 2 1.1 3.35 2.7 3.35a3.12 3.12 0 0 0 2.05-.88l.67.97a4.33 4.33 0 0 1-2.85 1.13c-2.32 0-4.1-1.67-4.1-4.57 0-2.93 1.96-4.6 4.2-4.6zM656.58 33.57a1.03 1.03 0 0 1 2.06 0 1.03 1.03 0 0 1-2.06 0zm.27 2.76h1.48v8.75h-1.48zM660.02 36.33h1.53l1.66 4.97c.25.86.54 1.74.8 2.57h.08c.25-.83.54-1.7.8-2.57l1.65-4.97H668l-3.1 8.75h-1.73zM669.42 33.57a1.03 1.03 0 0 1 2.05 0 1.03 1.03 0 0 1-2.05 0zm.27 2.76h1.47v8.75h-1.47zM677.68 36.11a3.6 3.6 0 0 1 2.56 1.05l-.74.95a2.65 2.65 0 0 0-1.77-.77c-1.58 0-2.73 1.36-2.73 3.38 0 2 1.1 3.35 2.7 3.35a3.12 3.12 0 0 0 2.05-.88l.67.97a4.33 4.33 0 0 1-2.85 1.13c-2.32 0-4.1-1.67-4.1-4.57 0-2.93 1.96-4.6 4.2-4.6zM686.2 37.53h-1.29v-1.11l1.37-.1.18-2.44h1.24v2.45h2.36v1.2h-2.36v4.87c0 1.08.35 1.69 1.35 1.69a3.17 3.17 0 0 0 1-.24l.28 1.12a5.4 5.4 0 0 1-1.62.32c-1.87 0-2.5-1.18-2.5-2.91zM695.14 36.11c2.23 0 3.5 1.6 3.5 4.1a5.19 5.19 0 0 1-.06.82h-5.9c.1 1.89 1.23 3.08 2.9 3.08a3.96 3.96 0 0 0 2.19-.69l.52.97a5.21 5.21 0 0 1-2.88.9c-2.34 0-4.2-1.7-4.2-4.57s1.93-4.6 3.93-4.6zm2.2 3.94c0-1.78-.8-2.77-2.16-2.77-1.23 0-2.35 1.01-2.53 2.77zM704.35 36.11a3.6 3.6 0 0 1 2.56 1.05l-.74.95a2.65 2.65 0 0 0-1.76-.77c-1.59 0-2.74 1.36-2.74 3.38 0 2 1.1 3.35 2.7 3.35a3.12 3.12 0 0 0 2.06-.88l.66.97a4.33 4.33 0 0 1-2.84 1.13c-2.33 0-4.1-1.67-4.1-4.57 0-2.93 1.95-4.6 4.2-4.6zM709 32.26h1.47v3.5l-.05 1.8a4.18 4.18 0 0 1 2.92-1.45c1.83 0 2.66 1.19 2.66 3.42v5.55h-1.48v-5.35c0-1.64-.5-2.34-1.65-2.34-.9 0-1.51.47-2.4 1.35v6.34H709zM526.14 57.93h1.22l.13 1.58h.05a3 3 0 0 1 2.49-1.8 2.17 2.17 0 0 1 .93.18l-.28 1.3a2.45 2.45 0 0 0-.85-.15c-.74 0-1.62.54-2.21 2.02v5.62h-1.48zM535.48 57.71c2.23 0 3.5 1.6 3.5 4.1a5.2 5.2 0 0 1-.06.82h-5.9c.1 1.89 1.24 3.08 2.91 3.08a3.95 3.95 0 0 0 2.18-.69l.52.97a5.21 5.21 0 0 1-2.88.9c-2.34 0-4.2-1.7-4.2-4.57s1.93-4.6 3.93-4.6zm2.2 3.94c0-1.78-.8-2.77-2.16-2.77-1.23 0-2.34 1.01-2.52 2.77zM540.9 64.7a3.94 3.94 0 0 0 2.57 1.04c1.16 0 1.73-.61 1.73-1.37 0-.9-1.04-1.3-2-1.65-1.24-.45-2.6-1.05-2.6-2.52 0-1.4 1.1-2.49 3-2.49a4.37 4.37 0 0 1 2.72 1l-.7.93a3.25 3.25 0 0 0-2-.78c-1.1 0-1.6.6-1.6 1.26 0 .81.95 1.14 1.94 1.52 1.26.46 2.66.99 2.66 2.64 0 1.43-1.13 2.61-3.2 2.61a5.27 5.27 0 0 1-3.26-1.2zM551.95 57.71c2.23 0 3.5 1.6 3.5 4.1a5.2 5.2 0 0 1-.06.82h-5.9c.1 1.89 1.24 3.08 2.91 3.08a3.95 3.95 0 0 0 2.18-.69l.52.97a5.21 5.21 0 0 1-2.88.9c-2.34 0-4.2-1.7-4.2-4.57s1.93-4.6 3.93-4.6zm2.2 3.94c0-1.78-.8-2.77-2.16-2.77-1.23 0-2.34 1.01-2.52 2.77zM562.3 61.13c0-1.11-.38-2.2-1.8-2.2a4.7 4.7 0 0 0-2.6.94l-.6-1.02a6.5 6.5 0 0 1 3.44-1.14c2.14 0 3.04 1.42 3.04 3.6v5.37h-1.23l-.12-1.05h-.04a4.75 4.75 0 0 1-2.9 1.26 2.39 2.39 0 0 1-2.57-2.48c0-1.9 1.65-2.86 5.38-3.28zm-2.4 4.58a3.59 3.59 0 0 0 2.4-1.17V62.1c-2.93.36-3.92 1.08-3.92 2.2a1.34 1.34 0 0 0 1.53 1.4zM566.57 57.93h1.22l.13 1.58h.05a3 3 0 0 1 2.49-1.8 2.18 2.18 0 0 1 .93.18l-.29 1.3a2.45 2.45 0 0 0-.84-.15c-.74 0-1.62.54-2.22 2.02v5.62h-1.47zM576.2 57.71a3.6 3.6 0 0 1 2.55 1.05l-.73.95a2.64 2.64 0 0 0-1.77-.77c-1.58 0-2.74 1.36-2.74 3.38 0 2 1.1 3.35 2.7 3.35a3.12 3.12 0 0 0 2.06-.88l.66.97a4.34 4.34 0 0 1-2.84 1.13c-2.32 0-4.1-1.67-4.1-4.57 0-2.93 1.96-4.6 4.2-4.6zM580.84 53.86h1.48v3.5l-.06 1.8a4.19 4.19 0 0 1 2.92-1.45c1.84 0 2.66 1.19 2.66 3.42v5.55h-1.47v-5.35c0-1.64-.5-2.34-1.66-2.34-.9 0-1.51.47-2.4 1.35v6.34h-1.47zM599.22 61.13c0-1.11-.38-2.2-1.8-2.2a4.7 4.7 0 0 0-2.61.94l-.6-1.02a6.5 6.5 0 0 1 3.44-1.14c2.15 0 3.05 1.42 3.05 3.6v5.37h-1.23l-.12-1.05h-.04a4.75 4.75 0 0 1-2.9 1.26 2.39 2.39 0 0 1-2.57-2.48c0-1.9 1.65-2.86 5.38-3.28zm-2.4 4.58a3.59 3.59 0 0 0 2.4-1.17V62.1c-2.94.36-3.93 1.08-3.93 2.2a1.34 1.34 0 0 0 1.53 1.4zM603.48 57.93h1.23l.12 1.26h.06a4.13 4.13 0 0 1 2.93-1.48c1.84 0 2.67 1.19 2.67 3.42v5.55H609v-5.35c0-1.64-.5-2.34-1.66-2.34-.9 0-1.5.47-2.4 1.35v6.34h-1.47zM616.5 57.71a3.6 3.6 0 0 1 2.45 1l-.08-1.48v-3.37h1.5v12.82h-1.23l-.12-1.03h-.05a3.95 3.95 0 0 1-2.65 1.24c-2.2 0-3.62-1.65-3.62-4.57 0-2.84 1.8-4.6 3.8-4.6zm.14 7.94a2.96 2.96 0 0 0 2.23-1.2v-4.58a3.05 3.05 0 0 0-2.12-.92c-1.4 0-2.52 1.35-2.52 3.35 0 2.1.88 3.35 2.41 3.35zM626.95 57.93h1.23l.13 1.58h.05a3 3 0 0 1 2.48-1.8 2.17 2.17 0 0 1 .94.18l-.29 1.3a2.45 2.45 0 0 0-.84-.15c-.74 0-1.63.54-2.22 2.02v5.62h-1.48zM636.3 57.71c2.23 0 3.49 1.6 3.49 4.1a5.2 5.2 0 0 1-.05.82h-5.9c.1 1.89 1.23 3.08 2.9 3.08a3.95 3.95 0 0 0 2.19-.69l.52.97a5.21 5.21 0 0 1-2.88.9c-2.34 0-4.2-1.7-4.2-4.57s1.93-4.6 3.93-4.6zm2.2 3.94c0-1.78-.8-2.77-2.17-2.77-1.22 0-2.34 1.01-2.52 2.77zM646.65 61.13c0-1.11-.38-2.2-1.8-2.2a4.7 4.7 0 0 0-2.61.94l-.6-1.02a6.5 6.5 0 0 1 3.44-1.14c2.14 0 3.04 1.42 3.04 3.6v5.37h-1.22l-.13-1.05h-.03a4.75 4.75 0 0 1-2.9 1.26 2.39 2.39 0 0 1-2.58-2.48c0-1.9 1.66-2.86 5.39-3.28zm-2.4 4.58a3.59 3.59 0 0 0 2.4-1.17V62.1c-2.94.36-3.93 1.08-3.93 2.2a1.34 1.34 0 0 0 1.53 1.4zM650.91 53.86h1.48v11.16c0 .47.2.65.41.65a1.23 1.23 0 0 0 .33-.04l.2 1.12a1.98 1.98 0 0 1-.85.14c-1.12 0-1.57-.7-1.57-1.98zM659.14 53.86h1.47v11.16c0 .47.2.65.42.65a1.23 1.23 0 0 0 .32-.04l.2 1.12a1.98 1.98 0 0 1-.85.14c-1.11 0-1.56-.7-1.56-1.98zM663.46 55.17a1.03 1.03 0 0 1 2.05 0 1.03 1.03 0 0 1-2.05 0zm.27 2.76h1.47v8.75h-1.47zM672.1 55.06a2.46 2.46 0 0 0-1-.21c-.82 0-1.22.57-1.22 1.7v1.38h1.86v1.2h-1.86v7.55h-1.47v-7.55h-1.2v-1.11l1.2-.1v-1.38c0-1.78.8-2.9 2.55-2.9a3.96 3.96 0 0 1 1.46.29zM676.5 57.71c2.24 0 3.5 1.6 3.5 4.1a5.2 5.2 0 0 1-.05.82h-5.9c.1 1.89 1.23 3.08 2.9 3.08a3.95 3.95 0 0 0 2.19-.69l.52.97a5.21 5.21 0 0 1-2.88.9c-2.34 0-4.2-1.7-4.2-4.57s1.93-4.6 3.93-4.6zm2.2 3.94c0-1.78-.79-2.77-2.16-2.77-1.22 0-2.34 1.01-2.52 2.77zM689.07 57.71c2.23 0 3.5 1.6 3.5 4.1a5.2 5.2 0 0 1-.06.82h-5.9c.1 1.89 1.24 3.08 2.91 3.08a3.95 3.95 0 0 0 2.18-.69l.52.97a5.21 5.21 0 0 1-2.88.9c-2.34 0-4.2-1.7-4.2-4.57s1.93-4.6 3.93-4.6zm2.2 3.94c0-1.78-.8-2.77-2.16-2.77-1.23 0-2.34 1.01-2.52 2.77zM696.23 62.1l-2.64-4.17h1.6l1.17 1.92c.27.47.56.98.87 1.46h.07c.25-.48.52-.99.79-1.46l1.06-1.92h1.55l-2.65 4.34 2.85 4.4h-1.6l-1.28-2.03c-.3-.52-.63-1.06-.96-1.56H697c-.3.5-.6 1.02-.88 1.56l-1.19 2.04h-1.55zM704.1 67.42v2.95h-1.48V57.93h1.23l.13 1h.05a4.53 4.53 0 0 1 2.79-1.22c2.25 0 3.46 1.75 3.46 4.47 0 2.97-1.79 4.71-3.78 4.71a4.06 4.06 0 0 1-2.44-1zm2.14-1.77c1.44 0 2.5-1.31 2.5-3.47 0-1.93-.64-3.23-2.3-3.23a3.69 3.69 0 0 0-2.34 1.2v4.58a3.46 3.46 0 0 0 2.14.92zM715.9 57.71c2.22 0 3.48 1.6 3.48 4.1a5.2 5.2 0 0 1-.05.82h-5.9c.1 1.89 1.24 3.08 2.91 3.08a3.95 3.95 0 0 0 2.18-.69l.52.97a5.21 5.21 0 0 1-2.88.9c-2.34 0-4.2-1.7-4.2-4.57s1.93-4.6 3.93-4.6zm2.19 3.94c0-1.78-.8-2.77-2.16-2.77-1.23 0-2.34 1.01-2.52 2.77zM721.54 57.93h1.23l.12 1.58h.06a3 3 0 0 1 2.48-1.8 2.18 2.18 0 0 1 .94.18l-.29 1.3a2.45 2.45 0 0 0-.85-.15c-.74 0-1.62.54-2.21 2.02v5.62h-1.48zM727.52 55.17a1.03 1.03 0 0 1 2.05 0 1.03 1.03 0 0 1-2.05 0zm.27 2.76h1.47v8.75h-1.47zM735.5 57.71c2.23 0 3.49 1.6 3.49 4.1a5.19 5.19 0 0 1-.06.82h-5.9c.1 1.89 1.24 3.08 2.91 3.08a3.95 3.95 0 0 0 2.18-.69l.52.97a5.21 5.21 0 0 1-2.88.9c-2.34 0-4.2-1.7-4.2-4.57s1.93-4.6 3.93-4.6zm2.19 3.94c0-1.78-.8-2.77-2.16-2.77-1.23 0-2.34 1.01-2.52 2.77zM741.14 57.93h1.23l.12 1.26h.06a4.13 4.13 0 0 1 2.93-1.48c1.84 0 2.67 1.19 2.67 3.42v5.55h-1.48v-5.35c0-1.64-.5-2.34-1.66-2.34-.9 0-1.5.47-2.39 1.35v6.34h-1.48zM754.55 57.71a3.61 3.61 0 0 1 2.56 1.05l-.74.95a2.65 2.65 0 0 0-1.76-.77c-1.59 0-2.74 1.36-2.74 3.38 0 2 1.1 3.35 2.7 3.35a3.12 3.12 0 0 0 2.06-.88l.66.97a4.33 4.33 0 0 1-2.84 1.13c-2.33 0-4.1-1.67-4.1-4.57 0-2.93 1.95-4.6 4.2-4.6zM762.1 57.71c2.23 0 3.49 1.6 3.49 4.1a5.2 5.2 0 0 1-.05.82h-5.91c.1 1.89 1.24 3.08 2.92 3.08a3.95 3.95 0 0 0 2.18-.69l.52.97a5.21 5.21 0 0 1-2.88.9c-2.34 0-4.2-1.7-4.2-4.57s1.93-4.6 3.93-4.6zm2.2 3.94c0-1.78-.8-2.77-2.17-2.77-1.22 0-2.34 1.01-2.52 2.77zM767.51 64.7a3.94 3.94 0 0 0 2.58 1.04c1.15 0 1.73-.61 1.73-1.37 0-.9-1.05-1.3-2-1.65-1.24-.45-2.61-1.05-2.61-2.52 0-1.4 1.11-2.49 3-2.49a4.37 4.37 0 0 1 2.72 1l-.7.93a3.25 3.25 0 0 0-2-.78c-1.1 0-1.6.6-1.6 1.26 0 .81.95 1.14 1.94 1.52 1.26.46 2.67.99 2.67 2.64 0 1.43-1.14 2.61-3.2 2.61a5.27 5.27 0 0 1-3.27-1.2zM531.09 82.73c0-1.11-.38-2.2-1.8-2.2a4.71 4.71 0 0 0-2.61.94l-.6-1.03a6.5 6.5 0 0 1 3.44-1.13c2.15 0 3.05 1.42 3.05 3.6v5.37h-1.23l-.12-1.05h-.04a4.76 4.76 0 0 1-2.9 1.26 2.39 2.39 0 0 1-2.57-2.48c0-1.91 1.65-2.86 5.38-3.28zm-2.4 4.58a3.58 3.58 0 0 0 2.4-1.18V83.7c-2.93.36-3.92 1.08-3.92 2.2a1.34 1.34 0 0 0 1.53 1.4zM535.35 79.53h1.23l.13 1.58h.05a3 3 0 0 1 2.48-1.8 2.17 2.17 0 0 1 .94.18l-.29 1.3a2.45 2.45 0 0 0-.84-.15c-.74 0-1.62.54-2.22 2.02v5.62h-1.48zM544.7 79.31c2.23 0 3.5 1.6 3.5 4.1a5.2 5.2 0 0 1-.06.82h-5.9c.1 1.89 1.23 3.08 2.9 3.08a3.95 3.95 0 0 0 2.19-.69l.52.97a5.21 5.21 0 0 1-2.88.9c-2.34 0-4.2-1.7-4.2-4.57s1.93-4.6 3.93-4.6zm2.2 3.94c0-1.78-.8-2.77-2.17-2.77-1.22 0-2.34 1-2.52 2.77zM553.75 86.3a3.94 3.94 0 0 0 2.57 1.04c1.16 0 1.73-.61 1.73-1.37 0-.9-1.04-1.3-2-1.65-1.24-.45-2.6-1.05-2.6-2.52 0-1.4 1.11-2.49 3-2.49a4.37 4.37 0 0 1 2.72 1l-.7.93a3.25 3.25 0 0 0-2-.78c-1.1 0-1.6.6-1.6 1.26 0 .81.95 1.14 1.94 1.52 1.26.46 2.67.99 2.67 2.64 0 1.43-1.14 2.61-3.2 2.61a5.27 5.27 0 0 1-3.27-1.2zM561.53 75.46H563v3.5l-.05 1.8a4.19 4.19 0 0 1 2.92-1.45c1.83 0 2.66 1.19 2.66 3.42v5.55h-1.48v-5.35c0-1.64-.5-2.34-1.65-2.34-.9 0-1.51.47-2.4 1.35v6.34h-1.47zM576.27 82.73c0-1.11-.38-2.2-1.8-2.2a4.7 4.7 0 0 0-2.61.94l-.6-1.03a6.5 6.5 0 0 1 3.44-1.13c2.15 0 3.05 1.42 3.05 3.6v5.37h-1.23l-.12-1.05h-.04a4.75 4.75 0 0 1-2.9 1.26 2.39 2.39 0 0 1-2.57-2.48c0-1.91 1.65-2.86 5.38-3.28zm-2.4 4.58a3.59 3.59 0 0 0 2.4-1.18V83.7c-2.93.36-3.92 1.08-3.92 2.2a1.34 1.34 0 0 0 1.53 1.4zM580.53 79.53h1.23l.12 1.58h.06a3 3 0 0 1 2.48-1.8 2.18 2.18 0 0 1 .94.18l-.29 1.3a2.45 2.45 0 0 0-.84-.15c-.74 0-1.63.54-2.22 2.02v5.62h-1.48zM589.88 79.31c2.23 0 3.49 1.6 3.49 4.1a5.2 5.2 0 0 1-.05.82h-5.91c.1 1.89 1.24 3.08 2.92 3.08a3.95 3.95 0 0 0 2.18-.69l.52.97a5.21 5.21 0 0 1-2.88.9c-2.34 0-4.2-1.7-4.2-4.57s1.93-4.6 3.93-4.6zm2.2 3.94c0-1.78-.8-2.77-2.17-2.77-1.22 0-2.34 1-2.52 2.77zM598.7 79.31a3.6 3.6 0 0 1 2.44 1l-.07-1.49v-3.36h1.5v12.82h-1.23l-.12-1.03h-.06a3.95 3.95 0 0 1-2.64 1.24c-2.2 0-3.62-1.65-3.62-4.57 0-2.84 1.8-4.6 3.8-4.6zm.14 7.94a2.96 2.96 0 0 0 2.23-1.2v-4.58a3.05 3.05 0 0 0-2.12-.92c-1.4 0-2.52 1.35-2.52 3.35 0 2.1.88 3.35 2.41 3.35zM608.88 76.77a1.03 1.03 0 0 1 2.06 0 1.03 1.03 0 0 1-2.06 0zm.27 2.76h1.48v8.75h-1.48zM613.58 79.53h1.23l.12 1.26h.05a4.13 4.13 0 0 1 2.94-1.48c1.84 0 2.66 1.19 2.66 3.42v5.55h-1.47v-5.35c0-1.64-.5-2.34-1.66-2.34-.9 0-1.51.47-2.4 1.35v6.34h-1.47zM622.69 83.2h4.14v1.13h-4.14zM632.2 79.31a3.6 3.6 0 0 1 2.44 1l-.07-1.49v-3.36h1.5v12.82h-1.23l-.13-1.03h-.05a3.95 3.95 0 0 1-2.65 1.24c-2.2 0-3.62-1.65-3.62-4.57 0-2.84 1.8-4.6 3.8-4.6zm.14 7.94a2.96 2.96 0 0 0 2.23-1.2v-4.58a3.05 3.05 0 0 0-2.12-.92c-1.4 0-2.53 1.35-2.53 3.35 0 2.1.89 3.35 2.42 3.35zM642.3 79.31c2.22 0 3.48 1.6 3.48 4.1a5.19 5.19 0 0 1-.05.82h-5.9c.1 1.89 1.24 3.08 2.91 3.08a3.95 3.95 0 0 0 2.18-.69l.52.97a5.21 5.21 0 0 1-2.88.9c-2.34 0-4.2-1.7-4.2-4.57s1.93-4.6 3.93-4.6zm2.19 3.94c0-1.78-.8-2.77-2.16-2.77-1.23 0-2.34 1-2.52 2.77zM649.42 89.02v2.95h-1.48V79.53h1.23l.12 1h.06a4.53 4.53 0 0 1 2.79-1.22c2.25 0 3.45 1.75 3.45 4.47 0 2.97-1.78 4.71-3.78 4.71a4.06 4.06 0 0 1-2.43-1zm2.14-1.77c1.44 0 2.5-1.31 2.5-3.47 0-1.93-.64-3.23-2.3-3.23a3.69 3.69 0 0 0-2.34 1.2v4.58a3.46 3.46 0 0 0 2.14.92zM658.18 80.73h-1.3v-1.11l1.38-.1.18-2.44h1.24v2.45h2.36v1.2h-2.36v4.86c0 1.08.34 1.7 1.35 1.7a3.18 3.18 0 0 0 .99-.24l.29 1.12a5.4 5.4 0 0 1-1.62.32c-1.88 0-2.5-1.18-2.5-2.91zM664.02 75.46h1.47v3.5l-.05 1.8a4.18 4.18 0 0 1 2.91-1.45c1.84 0 2.67 1.19 2.67 3.42v5.55h-1.48v-5.35c0-1.64-.5-2.34-1.65-2.34-.9 0-1.52.47-2.4 1.35v6.34h-1.47zM677.17 76.77a1.03 1.03 0 0 1 2.06 0 1.03 1.03 0 0 1-2.06 0zm.27 2.76h1.48v8.75h-1.48zM681.87 79.53h1.23l.12 1.26h.06a4.13 4.13 0 0 1 2.93-1.48c1.84 0 2.67 1.19 2.67 3.42v5.55h-1.48v-5.35c0-1.64-.5-2.34-1.66-2.34-.9 0-1.51.47-2.4 1.35v6.34h-1.47zM696.83 89.02v2.95h-1.48V79.53h1.23l.12 1h.06a4.53 4.53 0 0 1 2.79-1.22c2.25 0 3.46 1.75 3.46 4.47 0 2.97-1.79 4.71-3.79 4.71a4.05 4.05 0 0 1-2.43-1zm2.14-1.77c1.44 0 2.5-1.31 2.5-3.47 0-1.93-.64-3.23-2.3-3.23a3.69 3.69 0 0 0-2.34 1.2v4.58a3.47 3.47 0 0 0 2.14.92zM708.62 79.31c2.23 0 3.5 1.6 3.5 4.1a5.19 5.19 0 0 1-.06.82h-5.9c.1 1.89 1.23 3.08 2.91 3.08a3.95 3.95 0 0 0 2.18-.69l.52.97a5.21 5.21 0 0 1-2.88.9c-2.34 0-4.2-1.7-4.2-4.57s1.93-4.6 3.93-4.6zm2.2 3.94c0-1.78-.8-2.77-2.16-2.77-1.23 0-2.35 1-2.53 2.77zM714.27 79.53h1.22l.13 1.58h.05a3 3 0 0 1 2.49-1.8 2.17 2.17 0 0 1 .94.18l-.3 1.3a2.45 2.45 0 0 0-.84-.15c-.74 0-1.62.54-2.21 2.02v5.62h-1.48zM720.1 86.3a3.94 3.94 0 0 0 2.58 1.04c1.15 0 1.72-.61 1.72-1.37 0-.9-1.04-1.3-2-1.65-1.24-.45-2.6-1.05-2.6-2.52 0-1.4 1.11-2.49 3-2.49a4.37 4.37 0 0 1 2.72 1l-.7.93a3.25 3.25 0 0 0-2-.78c-1.1 0-1.6.6-1.6 1.26 0 .81.95 1.14 1.94 1.52 1.26.46 2.67.99 2.67 2.64 0 1.43-1.14 2.61-3.2 2.61a5.27 5.27 0 0 1-3.27-1.2zM731.28 79.31c2.14 0 4.05 1.68 4.05 4.61 0 2.9-1.9 4.57-4.05 4.57s-4.05-1.67-4.05-4.57c0-2.93 1.9-4.6 4.05-4.6zm0 7.96c1.51 0 2.52-1.35 2.52-3.35 0-2.02-1-3.38-2.52-3.38-1.5 0-2.52 1.36-2.52 3.38 0 2 1.03 3.35 2.52 3.35zM737.63 79.53h1.23l.12 1.26h.06a4.13 4.13 0 0 1 2.93-1.48c1.84 0 2.67 1.19 2.67 3.42v5.55h-1.48v-5.35c0-1.64-.5-2.34-1.65-2.34-.9 0-1.52.47-2.4 1.35v6.34h-1.48zM591.76 180.24h3.5c2.4 0 4.08.8 4.08 2.88a2.57 2.57 0 0 1-2.07 2.57v.07c1.72.27 2.73 1.21 2.73 2.83 0 2.32-1.83 3.46-4.46 3.46h-3.78zm3.26 5.04c2 0 2.84-.72 2.84-2.04 0-1.28-.95-1.82-2.77-1.82h-1.82v3.86zm.3 5.58c2.02 0 3.2-.74 3.2-2.34 0-1.46-1.13-2.13-3.2-2.13h-2.05v4.47zM605.44 183.08c2.23 0 3.49 1.6 3.49 4.1a5.19 5.19 0 0 1-.05.82h-5.91c.1 1.89 1.24 3.08 2.92 3.08a3.95 3.95 0 0 0 2.18-.69l.52.97a5.21 5.21 0 0 1-2.88.9c-2.34 0-4.2-1.7-4.2-4.57s1.93-4.6 3.93-4.6zm2.2 3.94c0-1.78-.8-2.77-2.17-2.77-1.22 0-2.34 1.01-2.52 2.77zM611.09 184.5h-1.3v-1.11l1.37-.1.18-2.44h1.24v2.45h2.36v1.2h-2.36v4.87c0 1.08.34 1.69 1.35 1.69a3.18 3.18 0 0 0 1-.24l.28 1.12a5.4 5.4 0 0 1-1.62.32c-1.87 0-2.5-1.18-2.5-2.91zM617.17 184.5h-1.3v-1.11l1.37-.1.18-2.44h1.25v2.45h2.35v1.2h-2.35v4.87c0 1.08.34 1.69 1.35 1.69a3.18 3.18 0 0 0 .99-.24l.28 1.12a5.4 5.4 0 0 1-1.62.32c-1.87 0-2.5-1.18-2.5-2.91zM626.1 183.08c2.23 0 3.5 1.6 3.5 4.1a5.19 5.19 0 0 1-.06.82h-5.9c.1 1.89 1.24 3.08 2.91 3.08a3.95 3.95 0 0 0 2.18-.69l.52.97a5.21 5.21 0 0 1-2.88.9c-2.34 0-4.2-1.7-4.2-4.57s1.93-4.6 3.93-4.6zm2.2 3.94c0-1.78-.8-2.77-2.16-2.77-1.23 0-2.34 1.01-2.52 2.77zM631.75 183.3h1.23l.12 1.58h.06a3 3 0 0 1 2.48-1.8 2.17 2.17 0 0 1 .94.18l-.3 1.3a2.45 2.45 0 0 0-.84-.15c-.74 0-1.62.54-2.21 2.02v5.62h-1.48zM641.5 183.3h1.5v5.35c0 1.63.49 2.34 1.64 2.34.9 0 1.53-.45 2.36-1.48v-6.21h1.48v8.75h-1.23l-.13-1.37h-.05a3.7 3.7 0 0 1-2.88 1.58c-1.85 0-2.68-1.18-2.68-3.42zM651.43 183.3h1.22l.12 1.26h.06a4.13 4.13 0 0 1 2.93-1.48c1.84 0 2.67 1.19 2.67 3.42v5.55h-1.48v-5.35c0-1.64-.5-2.34-1.65-2.34-.9 0-1.52.47-2.4 1.35v6.34h-1.47zM664.44 183.08a3.6 3.6 0 0 1 2.45 1l-.07-1.48v-3.37h1.5v12.82h-1.23l-.13-1.03h-.05a3.95 3.95 0 0 1-2.65 1.24c-2.2 0-3.62-1.65-3.62-4.57 0-2.84 1.8-4.6 3.8-4.6zm.14 7.94a2.96 2.96 0 0 0 2.24-1.2v-4.58a3.05 3.05 0 0 0-2.13-.92c-1.4 0-2.52 1.35-2.52 3.35 0 2.1.88 3.35 2.41 3.35zM674.54 183.08c2.23 0 3.5 1.6 3.5 4.1a5.19 5.19 0 0 1-.06.82h-5.9c.1 1.89 1.23 3.08 2.9 3.08a3.95 3.95 0 0 0 2.19-.69l.52.97a5.21 5.21 0 0 1-2.88.9c-2.34 0-4.2-1.7-4.2-4.57s1.93-4.6 3.93-4.6zm2.2 3.94c0-1.78-.8-2.77-2.17-2.77-1.22 0-2.34 1.01-2.52 2.77zM680.19 183.3h1.22l.13 1.58h.05a3 3 0 0 1 2.49-1.8 2.17 2.17 0 0 1 .93.18l-.28 1.3a2.45 2.45 0 0 0-.85-.15c-.74 0-1.62.54-2.22 2.02v5.62h-1.47zM686.02 190.07a3.94 3.94 0 0 0 2.57 1.04c1.16 0 1.73-.61 1.73-1.37 0-.9-1.04-1.3-2-1.65-1.24-.45-2.6-1.05-2.6-2.52 0-1.4 1.11-2.49 3-2.49a4.37 4.37 0 0 1 2.72 1l-.7.93a3.25 3.25 0 0 0-2-.78c-1.1 0-1.6.6-1.6 1.26 0 .81.95 1.14 1.94 1.52 1.26.46 2.67.99 2.67 2.64 0 1.43-1.14 2.61-3.2 2.61a5.27 5.27 0 0 1-3.27-1.2zM694.05 184.5h-1.3v-1.11l1.37-.1.18-2.44h1.24v2.45h2.36v1.2h-2.36v4.87c0 1.08.34 1.69 1.35 1.69a3.18 3.18 0 0 0 1-.24l.28 1.12a5.4 5.4 0 0 1-1.62.32c-1.87 0-2.5-1.18-2.5-2.91zM704.5 186.5c0-1.11-.37-2.2-1.8-2.2a4.7 4.7 0 0 0-2.6.94l-.6-1.02a6.5 6.5 0 0 1 3.44-1.14c2.14 0 3.04 1.42 3.04 3.6v5.37h-1.22l-.13-1.05h-.03a4.75 4.75 0 0 1-2.9 1.26 2.39 2.39 0 0 1-2.58-2.48c0-1.9 1.66-2.86 5.39-3.28zm-2.39 4.58a3.59 3.59 0 0 0 2.4-1.17v-2.44c-2.94.36-3.93 1.08-3.93 2.2a1.34 1.34 0 0 0 1.53 1.4zM708.77 183.3H710l.12 1.26h.06a4.13 4.13 0 0 1 2.93-1.48c1.84 0 2.67 1.19 2.67 3.42v5.55h-1.48v-5.35c0-1.64-.5-2.34-1.66-2.34-.9 0-1.51.47-2.4 1.35v6.34h-1.47zM721.79 183.08a3.6 3.6 0 0 1 2.44 1l-.07-1.48v-3.37h1.5v12.82h-1.23l-.12-1.03h-.06a3.95 3.95 0 0 1-2.64 1.24c-2.2 0-3.62-1.65-3.62-4.57 0-2.84 1.8-4.6 3.8-4.6zm.14 7.94a2.96 2.96 0 0 0 2.23-1.2v-4.58a3.05 3.05 0 0 0-2.12-.92c-1.4 0-2.52 1.35-2.52 3.35 0 2.1.88 3.35 2.41 3.35zM728.34 180.54a1.03 1.03 0 0 1 2.05 0 1.03 1.03 0 0 1-2.05 0zm.27 2.76h1.47v8.75h-1.47zM733.03 183.3h1.23l.13 1.26h.05a4.13 4.13 0 0 1 2.93-1.48c1.84 0 2.67 1.19 2.67 3.42v5.55h-1.48v-5.35c0-1.64-.5-2.34-1.65-2.34-.9 0-1.52.47-2.4 1.35v6.34h-1.48zM743.5 191.74v-.07a1.61 1.61 0 0 1-.78-1.42 2.05 2.05 0 0 1 .95-1.62v-.08a3.09 3.09 0 0 1 2.16-5.47 3.5 3.5 0 0 1 1.25.22h3.04v1.13h-1.8a2.54 2.54 0 0 1 .72 1.8 3 3 0 0 1-3.2 3.05 3.05 3.05 0 0 1-1.32-.31 1.32 1.32 0 0 0-.56 1.04c0 .56.36.96 1.55.96h1.7c2.03 0 3.05.63 3.05 2.09 0 1.62-1.7 3.02-4.43 3.02-2.14 0-3.61-.85-3.61-2.36a2.53 2.53 0 0 1 1.27-1.98zm2.55 3.31c1.68 0 2.77-.86 2.77-1.78 0-.8-.63-1.08-1.76-1.08h-1.51a4.26 4.26 0 0 1-1.14-.14 1.84 1.84 0 0 0-.9 1.47c0 .94.96 1.53 2.54 1.53zm1.64-8.85a1.86 1.86 0 1 0-3.71 0 1.87 1.87 0 1 0 3.7 0zM760.54 186.5c0-1.11-.38-2.2-1.8-2.2a4.7 4.7 0 0 0-2.61.94l-.6-1.02a6.5 6.5 0 0 1 3.44-1.14c2.15 0 3.05 1.42 3.05 3.6v5.37h-1.23l-.12-1.05h-.04a4.75 4.75 0 0 1-2.9 1.26 2.39 2.39 0 0 1-2.57-2.48c0-1.9 1.65-2.86 5.38-3.28zm-2.4 4.58a3.58 3.58 0 0 0 2.4-1.17v-2.44c-2.93.36-3.92 1.08-3.92 2.2a1.34 1.34 0 0 0 1.53 1.4zM764.8 183.3h1.23l.13 1.26h.05a4.13 4.13 0 0 1 2.93-1.48c1.84 0 2.67 1.19 2.67 3.42v5.55h-1.48v-5.35c0-1.64-.5-2.34-1.65-2.34-.9 0-1.52.47-2.4 1.35v6.34h-1.47zM777.82 183.08a3.6 3.6 0 0 1 2.45 1l-.07-1.48v-3.37h1.5v12.82h-1.23l-.13-1.03h-.05a3.95 3.95 0 0 1-2.65 1.24c-2.2 0-3.62-1.65-3.62-4.57 0-2.84 1.8-4.6 3.8-4.6zm.14 7.94a2.96 2.96 0 0 0 2.24-1.2v-4.58a3.05 3.05 0 0 0-2.13-.92c-1.4 0-2.52 1.35-2.52 3.35 0 2.1.88 3.35 2.41 3.35zM594.94 204.68c2.24 0 3.5 1.6 3.5 4.1a5.2 5.2 0 0 1-.06.82h-5.9c.1 1.89 1.24 3.08 2.91 3.08a3.96 3.96 0 0 0 2.18-.69l.52.97a5.21 5.21 0 0 1-2.88.9c-2.34 0-4.2-1.7-4.2-4.57s1.93-4.6 3.93-4.6zm2.2 3.94c0-1.78-.8-2.77-2.16-2.77-1.23 0-2.34 1.01-2.52 2.77zM599.42 204.9h1.53l1.66 4.97c.25.86.54 1.74.81 2.57h.07c.25-.83.54-1.7.8-2.57l1.65-4.97h1.46l-3.1 8.75h-1.73zM613.68 208.1c0-1.11-.38-2.2-1.8-2.2a4.7 4.7 0 0 0-2.61.94l-.6-1.02a6.5 6.5 0 0 1 3.44-1.14c2.15 0 3.05 1.42 3.05 3.6v5.37h-1.23l-.12-1.05h-.04a4.75 4.75 0 0 1-2.9 1.26 2.39 2.39 0 0 1-2.57-2.48c0-1.9 1.65-2.86 5.38-3.28zm-2.4 4.58a3.59 3.59 0 0 0 2.4-1.17v-2.44c-2.93.36-3.92 1.08-3.92 2.2a1.34 1.34 0 0 0 1.53 1.4zM617.95 200.83h1.47v11.16c0 .47.2.65.42.65a1.23 1.23 0 0 0 .32-.04l.2 1.12a2 2 0 0 1-.85.14c-1.11 0-1.56-.7-1.56-1.98zM622.41 204.9h1.5v5.35c0 1.63.48 2.34 1.63 2.34.9 0 1.53-.45 2.36-1.48v-6.21h1.48v8.75h-1.23l-.12-1.37h-.06a3.7 3.7 0 0 1-2.88 1.58c-1.85 0-2.68-1.18-2.68-3.42zM637.28 208.1c0-1.11-.38-2.2-1.8-2.2a4.7 4.7 0 0 0-2.61.94l-.6-1.02a6.5 6.5 0 0 1 3.44-1.14c2.14 0 3.05 1.42 3.05 3.6v5.37h-1.23l-.13-1.05h-.03a4.75 4.75 0 0 1-2.9 1.26 2.39 2.39 0 0 1-2.58-2.48c0-1.9 1.66-2.86 5.39-3.28zm-2.4 4.58a3.59 3.59 0 0 0 2.4-1.17v-2.44c-2.94.36-3.93 1.08-3.93 2.2a1.34 1.34 0 0 0 1.53 1.4zM641.8 206.1h-1.3V205l1.37-.1.18-2.44h1.24v2.45h2.36v1.2h-2.36v4.87c0 1.08.34 1.69 1.35 1.69a3.17 3.17 0 0 0 .99-.24l.29 1.12a5.4 5.4 0 0 1-1.62.32c-1.87 0-2.5-1.18-2.5-2.91zM647.36 202.14a1.03 1.03 0 0 1 2.05 0 1.03 1.03 0 0 1-2.05 0zm.27 2.76h1.47v8.75h-1.47zM655.46 204.68c2.14 0 4.05 1.68 4.05 4.61 0 2.9-1.91 4.57-4.05 4.57s-4.05-1.67-4.05-4.57c0-2.93 1.9-4.6 4.05-4.6zm0 7.96c1.51 0 2.52-1.35 2.52-3.35 0-2.02-1.01-3.38-2.52-3.38-1.5 0-2.52 1.36-2.52 3.38 0 2 1.02 3.35 2.52 3.35zM661.81 204.9h1.22l.13 1.26h.06a4.13 4.13 0 0 1 2.93-1.48c1.84 0 2.66 1.19 2.66 3.42v5.55h-1.47v-5.35c0-1.64-.5-2.34-1.66-2.34-.9 0-1.51.47-2.4 1.35v6.34h-1.47zM678.7 204.68c2.14 0 4.05 1.68 4.05 4.61 0 2.9-1.91 4.57-4.05 4.57s-4.06-1.67-4.06-4.57c0-2.93 1.91-4.6 4.06-4.6zm0 7.96c1.5 0 2.52-1.35 2.52-3.35 0-2.02-1.01-3.38-2.52-3.38-1.5 0-2.52 1.36-2.52 3.38 0 2 1.02 3.35 2.52 3.35zM689 202.03a2.46 2.46 0 0 0-1-.21c-.83 0-1.22.57-1.22 1.7v1.38h1.85v1.2h-1.85v7.55h-1.48v-7.55h-1.19V205l1.19-.1v-1.38c0-1.78.81-2.9 2.56-2.9a3.97 3.97 0 0 1 1.46.29zM697.5 204.68a3.6 3.6 0 0 1 2.56 1.05l-.74.95a2.65 2.65 0 0 0-1.76-.77c-1.58 0-2.74 1.36-2.74 3.38 0 2 1.1 3.35 2.7 3.35a3.12 3.12 0 0 0 2.06-.88l.66.97a4.33 4.33 0 0 1-2.84 1.13c-2.33 0-4.1-1.67-4.1-4.57 0-2.93 1.95-4.6 4.2-4.6zM701.88 202.14a1.03 1.03 0 1 1 1.02.96.97.97 0 0 1-1.02-.96zm.27 2.76h1.47v8.75h-1.47zM705.32 204.9h1.53l1.65 4.97c.25.86.54 1.74.81 2.57h.07c.26-.83.55-1.7.8-2.57l1.65-4.97h1.46l-3.1 8.75h-1.72zM714.71 202.14a1.03 1.03 0 0 1 2.05 0 1.03 1.03 0 0 1-2.05 0zm.27 2.76h1.48v8.75h-1.48zM722.97 204.68a3.6 3.6 0 0 1 2.56 1.05l-.74.95a2.64 2.64 0 0 0-1.76-.77c-1.59 0-2.74 1.36-2.74 3.38 0 2 1.1 3.35 2.7 3.35a3.12 3.12 0 0 0 2.06-.88l.66.97a4.33 4.33 0 0 1-2.84 1.13c-2.33 0-4.1-1.67-4.1-4.57 0-2.93 1.95-4.6 4.2-4.6zM731.5 206.1h-1.3V205l1.38-.1.18-2.44H733v2.45h2.36v1.2H733v4.87c0 1.08.34 1.69 1.35 1.69a3.17 3.17 0 0 0 .99-.24l.29 1.12a5.4 5.4 0 0 1-1.62.32c-1.87 0-2.5-1.18-2.5-2.91zM740.43 204.68c2.24 0 3.5 1.6 3.5 4.1a5.2 5.2 0 0 1-.06.82h-5.9c.1 1.89 1.24 3.08 2.91 3.08a3.95 3.95 0 0 0 2.18-.69l.53.97a5.21 5.21 0 0 1-2.89.9c-2.34 0-4.2-1.7-4.2-4.57s1.94-4.6 3.93-4.6zm2.2 3.94c0-1.78-.8-2.77-2.16-2.77-1.22 0-2.34 1.01-2.52 2.77zM749.65 204.68a3.6 3.6 0 0 1 2.56 1.05l-.74.95a2.65 2.65 0 0 0-1.77-.77c-1.58 0-2.73 1.36-2.73 3.38 0 2 1.1 3.35 2.7 3.35a3.12 3.12 0 0 0 2.05-.88l.67.97a4.33 4.33 0 0 1-2.85 1.13c-2.32 0-4.1-1.67-4.1-4.57 0-2.93 1.96-4.6 4.21-4.6zM754.3 200.83h1.47v3.5l-.05 1.8a4.19 4.19 0 0 1 2.91-1.45c1.84 0 2.67 1.19 2.67 3.42v5.55h-1.48v-5.35c0-1.64-.5-2.34-1.66-2.34-.9 0-1.5.47-2.39 1.35v6.34h-1.48zM767.97 206.1h-1.3V205l1.38-.1.18-2.44h1.24v2.45h2.36v1.2h-2.36v4.87c0 1.08.34 1.69 1.35 1.69a3.17 3.17 0 0 0 .99-.24l.29 1.12a5.4 5.4 0 0 1-1.62.32c-1.88 0-2.5-1.18-2.5-2.91zM777.03 204.68c2.14 0 4.05 1.68 4.05 4.61 0 2.9-1.9 4.57-4.05 4.57-2.14 0-4.05-1.67-4.05-4.57 0-2.93 1.9-4.6 4.05-4.6zm0 7.96c1.51 0 2.52-1.35 2.52-3.35 0-2.02-1.01-3.38-2.52-3.38-1.5 0-2.52 1.36-2.52 3.38 0 2 1.02 3.35 2.52 3.35zM786.78 204.68c2.15 0 4.06 1.68 4.06 4.61 0 2.9-1.91 4.57-4.06 4.57-2.14 0-4.05-1.67-4.05-4.57 0-2.93 1.91-4.6 4.05-4.6zm0 7.96c1.52 0 2.53-1.35 2.53-3.35 0-2.02-1.01-3.38-2.53-3.38-1.49 0-2.52 1.36-2.52 3.38 0 2 1.03 3.35 2.52 3.35zM793.14 200.83h1.47v11.16c0 .47.2.65.42.65a1.24 1.24 0 0 0 .32-.04l.2 1.12a1.99 1.99 0 0 1-.85.14c-1.11 0-1.56-.7-1.56-1.98zM797.5 211.67a3.94 3.94 0 0 0 2.57 1.04c1.15 0 1.73-.61 1.73-1.37 0-.9-1.05-1.3-2-1.65-1.24-.45-2.61-1.05-2.61-2.52 0-1.4 1.11-2.49 3-2.49a4.37 4.37 0 0 1 2.72 1l-.7.93a3.25 3.25 0 0 0-2-.78c-1.1 0-1.6.6-1.6 1.26 0 .81.95 1.14 1.94 1.52 1.26.46 2.67.99 2.67 2.64 0 1.43-1.14 2.61-3.2 2.61a5.27 5.27 0 0 1-3.27-1.2zM532.63 313.07h-4.3l-1.14 3.6h-1.53l4-11.81h1.7l3.99 11.8h-1.58zm-.38-1.2l-.56-1.8c-.4-1.32-.79-2.62-1.17-3.99h-.07c-.38 1.37-.75 2.67-1.17 3.98l-.57 1.8zM540.46 303.85h1.46v8.68h.05l3.73-4.61h1.64l-2.94 3.5 3.33 5.25h-1.62l-2.55-4.21-1.64 1.9v2.3h-1.46zM549.37 307.92h1.22l.13 1.26h.05a4.13 4.13 0 0 1 2.94-1.48c1.84 0 2.66 1.2 2.66 3.42v5.55h-1.47v-5.35c0-1.64-.5-2.34-1.66-2.34-.9 0-1.51.47-2.4 1.35v6.34h-1.47zM562.62 307.7c2.14 0 4.05 1.68 4.05 4.61 0 2.9-1.91 4.58-4.05 4.58s-4.05-1.68-4.05-4.58c0-2.93 1.9-4.6 4.05-4.6zm0 7.96c1.51 0 2.52-1.35 2.52-3.35 0-2.02-1.01-3.38-2.52-3.38-1.5 0-2.52 1.36-2.52 3.38 0 2 1.02 3.35 2.52 3.35zM567.85 307.92h1.52l1.3 5.06c.2.83.35 1.62.52 2.43h.07c.2-.81.38-1.62.6-2.43l1.34-5.06h1.44l1.37 5.06c.22.83.42 1.62.61 2.43h.08c.2-.81.36-1.6.54-2.43l1.27-5.06h1.4l-2.33 8.75h-1.8l-1.26-4.7c-.22-.83-.38-1.64-.6-2.52h-.07c-.2.88-.38 1.7-.61 2.54l-1.23 4.68h-1.72zM581.82 303.85h1.48V315c0 .47.2.65.41.65a1.24 1.24 0 0 0 .33-.04l.2 1.12a1.98 1.98 0 0 1-.85.15c-1.12 0-1.57-.7-1.57-1.99zM589.69 307.7c2.23 0 3.5 1.6 3.5 4.1a5.19 5.19 0 0 1-.06.82h-5.9c.1 1.89 1.24 3.08 2.91 3.08a3.95 3.95 0 0 0 2.18-.69l.52.97a5.21 5.21 0 0 1-2.88.9c-2.34 0-4.2-1.7-4.2-4.57s1.93-4.6 3.93-4.6zm2.2 3.95c0-1.79-.8-2.78-2.16-2.78-1.23 0-2.34 1.01-2.53 2.78zM598.5 307.7a3.6 3.6 0 0 1 2.46 1.01l-.07-1.5v-3.36h1.49v12.82h-1.22l-.13-1.03h-.05a3.95 3.95 0 0 1-2.65 1.25c-2.2 0-3.62-1.66-3.62-4.58 0-2.84 1.8-4.6 3.8-4.6zm.15 7.94a2.96 2.96 0 0 0 2.24-1.2v-4.58a3.05 3.05 0 0 0-2.13-.92c-1.4 0-2.52 1.35-2.52 3.35 0 2.1.88 3.35 2.41 3.35zM605.94 316.36v-.07a1.61 1.61 0 0 1-.77-1.42 2.05 2.05 0 0 1 .95-1.62v-.07a3.09 3.09 0 0 1 2.16-5.48 3.5 3.5 0 0 1 1.25.22h3.04v1.13h-1.8a2.54 2.54 0 0 1 .72 1.8 3 3 0 0 1-3.2 3.05 3.06 3.06 0 0 1-1.32-.31 1.33 1.33 0 0 0-.56 1.04c0 .56.36.96 1.55.96h1.7c2.03 0 3.05.63 3.05 2.09 0 1.62-1.7 3.02-4.43 3.02-2.14 0-3.62-.84-3.62-2.36a2.53 2.53 0 0 1 1.28-1.98zm2.56 3.32c1.67 0 2.77-.87 2.77-1.79 0-.8-.63-1.08-1.76-1.08h-1.52a4.26 4.26 0 0 1-1.13-.14 1.84 1.84 0 0 0-.9 1.48c0 .93.95 1.53 2.54 1.53zm1.64-8.86a1.86 1.86 0 1 0-3.71 0 1.87 1.87 0 1 0 3.7 0zM617.43 307.7c2.23 0 3.49 1.6 3.49 4.1a5.19 5.19 0 0 1-.05.82h-5.91c.1 1.89 1.24 3.08 2.92 3.08a3.95 3.95 0 0 0 2.18-.69l.52.97a5.21 5.21 0 0 1-2.88.9c-2.34 0-4.2-1.7-4.2-4.57s1.93-4.6 3.93-4.6zm2.2 3.95c0-1.79-.8-2.78-2.17-2.78-1.22 0-2.34 1.01-2.52 2.78zM626.71 303.85h1.48v3.5l-.04 1.58a4.32 4.32 0 0 1 2.74-1.23c2.27 0 3.48 1.75 3.48 4.45 0 2.99-1.79 4.74-3.79 4.74a3.96 3.96 0 0 1-2.5-1.09h-.05l-.13.87h-1.19zm3.62 11.8c1.44 0 2.5-1.32 2.5-3.48 0-1.93-.64-3.23-2.3-3.23a3.6 3.6 0 0 0-2.34 1.2v4.58a3.42 3.42 0 0 0 2.14.92zM641.4 311.12c0-1.11-.38-2.2-1.8-2.2a4.7 4.7 0 0 0-2.6.94l-.6-1.02a6.5 6.5 0 0 1 3.44-1.14c2.14 0 3.04 1.42 3.04 3.6v5.37h-1.23l-.12-1.05h-.04a4.75 4.75 0 0 1-2.9 1.27 2.39 2.39 0 0 1-2.57-2.49c0-1.9 1.66-2.86 5.38-3.28zm-2.4 4.58a3.59 3.59 0 0 0 2.4-1.17v-2.43c-2.93.36-3.92 1.08-3.92 2.2a1.34 1.34 0 0 0 1.53 1.4zM645.43 314.69a3.94 3.94 0 0 0 2.58 1.04c1.15 0 1.73-.6 1.73-1.37 0-.9-1.05-1.3-2-1.65-1.24-.45-2.61-1.05-2.61-2.52 0-1.4 1.11-2.49 3-2.49a4.37 4.37 0 0 1 2.72 1l-.7.93a3.25 3.25 0 0 0-2-.78c-1.1 0-1.6.6-1.6 1.26 0 .82.95 1.14 1.94 1.52 1.26.47 2.67.99 2.67 2.64 0 1.43-1.14 2.62-3.2 2.62a5.27 5.27 0 0 1-3.27-1.21zM656.49 307.7c2.23 0 3.49 1.6 3.49 4.1a5.2 5.2 0 0 1-.05.82h-5.91c.1 1.89 1.24 3.08 2.92 3.08a3.95 3.95 0 0 0 2.17-.69l.53.97a5.21 5.21 0 0 1-2.88.9c-2.34 0-4.2-1.7-4.2-4.57s1.93-4.6 3.93-4.6zm2.2 3.95c0-1.79-.8-2.78-2.17-2.78-1.22 0-2.34 1.01-2.52 2.78zM670.72 311.12c0-1.11-.37-2.2-1.8-2.2a4.7 4.7 0 0 0-2.6.94l-.6-1.02a6.5 6.5 0 0 1 3.44-1.14c2.14 0 3.04 1.42 3.04 3.6v5.37h-1.22l-.13-1.05h-.04a4.75 4.75 0 0 1-2.9 1.27 2.39 2.39 0 0 1-2.57-2.49c0-1.9 1.66-2.86 5.38-3.28zm-2.39 4.58a3.59 3.59 0 0 0 2.4-1.17v-2.43c-2.94.36-3.93 1.08-3.93 2.2a1.34 1.34 0 0 0 1.53 1.4zM674.99 307.92h1.22l.13 1.26h.05a4.13 4.13 0 0 1 2.94-1.48c1.83 0 2.66 1.2 2.66 3.42v5.55h-1.47v-5.35c0-1.64-.5-2.34-1.66-2.34-.9 0-1.51.47-2.4 1.35v6.34H675zM688 307.7a3.6 3.6 0 0 1 2.45 1.01l-.07-1.5v-3.36h1.5v12.82h-1.23l-.13-1.03h-.05a3.95 3.95 0 0 1-2.65 1.25c-2.2 0-3.61-1.66-3.61-4.58 0-2.84 1.8-4.6 3.8-4.6zm.15 7.94a2.96 2.96 0 0 0 2.23-1.2v-4.58a3.05 3.05 0 0 0-2.12-.92c-1.4 0-2.52 1.35-2.52 3.35 0 2.1.88 3.35 2.4 3.35zM702.02 307.7a3.61 3.61 0 0 1 2.56 1.05l-.74.95a2.65 2.65 0 0 0-1.76-.77c-1.59 0-2.74 1.36-2.74 3.38 0 2 1.1 3.35 2.7 3.35a3.12 3.12 0 0 0 2.06-.88l.66.97a4.33 4.33 0 0 1-2.84 1.14c-2.33 0-4.1-1.68-4.1-4.58 0-2.93 1.95-4.6 4.2-4.6zM709.7 307.7c2.14 0 4.04 1.68 4.04 4.61 0 2.9-1.9 4.58-4.05 4.58-2.14 0-4.05-1.68-4.05-4.58 0-2.93 1.91-4.6 4.05-4.6zm0 7.96c1.5 0 2.51-1.35 2.51-3.35 0-2.02-1-3.38-2.52-3.38-1.5 0-2.52 1.36-2.52 3.38 0 2 1.03 3.35 2.52 3.35zM716.05 307.92h1.22l.13 1.26h.05a3.85 3.85 0 0 1 2.72-1.48 2.3 2.3 0 0 1 2.41 1.68 4.13 4.13 0 0 1 2.88-1.68c1.8 0 2.67 1.2 2.67 3.42v5.55h-1.48v-5.35c0-1.64-.52-2.34-1.62-2.34a3.21 3.21 0 0 0-2.2 1.35v6.34h-1.47v-5.35c0-1.64-.52-2.34-1.64-2.34a3.28 3.28 0 0 0-2.2 1.35v6.34h-1.47zM730.97 307.92h1.22l.13 1.26h.05a3.85 3.85 0 0 1 2.72-1.48 2.3 2.3 0 0 1 2.41 1.68 4.13 4.13 0 0 1 2.89-1.68c1.8 0 2.66 1.2 2.66 3.42v5.55h-1.48v-5.35c0-1.64-.52-2.34-1.62-2.34a3.21 3.21 0 0 0-2.2 1.35v6.34h-1.47v-5.35c0-1.64-.52-2.34-1.64-2.34a3.28 3.28 0 0 0-2.2 1.35v6.34h-1.47zM745.76 307.92h1.5v5.35c0 1.63.48 2.34 1.64 2.34.9 0 1.53-.45 2.36-1.48v-6.21h1.47v8.75h-1.22l-.13-1.37h-.05a3.7 3.7 0 0 1-2.88 1.59c-1.86 0-2.69-1.2-2.69-3.43zM755.68 307.92h1.23l.12 1.26h.06a4.13 4.13 0 0 1 2.93-1.48c1.84 0 2.67 1.2 2.67 3.42v5.55h-1.48v-5.35c0-1.64-.5-2.34-1.66-2.34-.9 0-1.5.47-2.39 1.35v6.34h-1.48zM765.26 305.16a1.03 1.03 0 0 1 2.05 0 1.03 1.03 0 0 1-2.05 0zm.27 2.76H767v8.75h-1.48zM770.2 309.12h-1.29v-1.11l1.37-.1.18-2.44h1.24v2.45h2.36v1.2h-2.36V314c0 1.08.35 1.69 1.35 1.69a3.18 3.18 0 0 0 1-.24l.28 1.12a5.4 5.4 0 0 1-1.62.33c-1.87 0-2.5-1.2-2.5-2.92zM776.11 319.2c1 0 1.62-.78 1.98-1.86l.2-.65-3.51-8.77h1.53l1.78 4.84.85 2.47h.07l.74-2.47 1.57-4.84h1.44l-3.3 9.47c-.61 1.73-1.51 3.04-3.28 3.04a2.91 2.91 0 0 1-1.02-.18l.29-1.17a2.57 2.57 0 0 0 .66.13zM526.9 336.29a3.93 3.93 0 0 0 2.58 1.04c1.15 0 1.73-.6 1.73-1.37 0-.9-1.05-1.3-2-1.65-1.24-.45-2.61-1.05-2.61-2.52 0-1.4 1.12-2.49 3-2.49a4.37 4.37 0 0 1 2.73 1l-.7.93a3.25 3.25 0 0 0-2-.77c-1.1 0-1.6.59-1.6 1.26 0 .8.95 1.13 1.94 1.5 1.26.48 2.66 1 2.66 2.66 0 1.42-1.13 2.6-3.2 2.6a5.27 5.27 0 0 1-3.26-1.2zM534.56 329.52h1.49v5.35c0 1.63.49 2.34 1.64 2.34.9 0 1.53-.45 2.36-1.48v-6.21h1.47v8.75h-1.22l-.13-1.37h-.05a3.7 3.7 0 0 1-2.88 1.59c-1.86 0-2.68-1.2-2.68-3.43zM545.95 339v2.96h-1.48v-12.44h1.23l.12 1h.06a4.52 4.52 0 0 1 2.79-1.22c2.25 0 3.46 1.75 3.46 4.47 0 2.97-1.79 4.72-3.78 4.72a4.06 4.06 0 0 1-2.44-1.01zm2.14-1.76c1.44 0 2.5-1.31 2.5-3.47 0-1.93-.64-3.23-2.3-3.23a3.68 3.68 0 0 0-2.34 1.2v4.59a3.46 3.46 0 0 0 2.14.91zM555.94 339v2.96h-1.48v-12.44h1.23l.12 1h.06a4.53 4.53 0 0 1 2.79-1.22c2.25 0 3.46 1.75 3.46 4.47 0 2.97-1.79 4.72-3.79 4.72a4.06 4.06 0 0 1-2.43-1.01zm2.14-1.76c1.44 0 2.5-1.31 2.5-3.47 0-1.93-.64-3.23-2.3-3.23a3.69 3.69 0 0 0-2.34 1.2v4.59a3.46 3.46 0 0 0 2.14.91zM567.86 329.3c2.14 0 4.05 1.68 4.05 4.61 0 2.9-1.91 4.58-4.05 4.58s-4.05-1.68-4.05-4.58c0-2.93 1.9-4.6 4.05-4.6zm0 7.96c1.5 0 2.52-1.35 2.52-3.35 0-2.01-1.01-3.38-2.52-3.38-1.5 0-2.52 1.37-2.52 3.38 0 2 1.02 3.35 2.52 3.35zM574.2 329.52h1.23l.13 1.58h.05a3 3 0 0 1 2.49-1.8 2.18 2.18 0 0 1 .93.18l-.28 1.3a2.45 2.45 0 0 0-.85-.15c-.74 0-1.62.54-2.21 2.02v5.62h-1.48zM580.7 330.72h-1.29v-1.11l1.37-.1.18-2.44h1.24v2.45h2.36v1.2h-2.36v4.87c0 1.08.34 1.69 1.35 1.69a3.17 3.17 0 0 0 1-.24l.28 1.12a5.4 5.4 0 0 1-1.62.33c-1.87 0-2.5-1.2-2.5-2.92zM590.17 329.52h1.23l.12 1.26h.06a4.13 4.13 0 0 1 2.93-1.48c1.84 0 2.67 1.2 2.67 3.42v5.55h-1.48v-5.35c0-1.64-.5-2.34-1.65-2.34-.9 0-1.52.47-2.4 1.35v6.34h-1.48zM603.3 329.3c2.23 0 3.49 1.6 3.49 4.1a5.2 5.2 0 0 1-.05.82h-5.9c.1 1.89 1.23 3.08 2.9 3.08a3.96 3.96 0 0 0 2.19-.69l.52.98a5.21 5.21 0 0 1-2.88.9c-2.34 0-4.2-1.72-4.2-4.58 0-2.86 1.93-4.6 3.93-4.6zm2.2 3.95c0-1.79-.8-2.78-2.17-2.78-1.22 0-2.34 1.01-2.52 2.78zM608.95 330.72h-1.3v-1.11l1.37-.1.18-2.44h1.24v2.45h2.36v1.2h-2.36v4.87c0 1.08.34 1.69 1.35 1.69a3.17 3.17 0 0 0 1-.24l.28 1.12a5.4 5.4 0 0 1-1.62.33c-1.87 0-2.5-1.2-2.5-2.92zM613.74 329.52h1.5l1.3 5.06c.2.83.36 1.62.53 2.43h.07c.2-.81.38-1.62.6-2.43l1.34-5.06h1.44l1.37 5.06c.22.83.42 1.62.61 2.43h.08c.2-.81.36-1.6.54-2.43l1.27-5.06h1.4l-2.33 8.75h-1.8l-1.26-4.7c-.22-.83-.38-1.64-.6-2.52h-.07c-.2.88-.38 1.71-.61 2.54l-1.23 4.68h-1.72zM631.04 329.3c2.14 0 4.05 1.68 4.05 4.61 0 2.9-1.91 4.58-4.05 4.58s-4.06-1.68-4.06-4.58c0-2.93 1.91-4.6 4.06-4.6zm0 7.96c1.5 0 2.52-1.35 2.52-3.35 0-2.01-1.01-3.38-2.52-3.38-1.5 0-2.52 1.37-2.52 3.38 0 2 1.02 3.35 2.52 3.35zM637.39 329.52h1.22l.13 1.58h.05a3 3 0 0 1 2.49-1.8 2.17 2.17 0 0 1 .93.18l-.28 1.3a2.45 2.45 0 0 0-.85-.15c-.74 0-1.62.54-2.22 2.02v5.62h-1.47zM643.63 325.45h1.46v8.68h.06l3.72-4.61h1.64l-2.93 3.5 3.33 5.25h-1.62l-2.56-4.21-1.64 1.9v2.31h-1.46zM656.43 330.72h-1.3v-1.11l1.37-.1.18-2.44h1.25v2.45h2.35v1.2h-2.35v4.87c0 1.08.34 1.69 1.35 1.69a3.17 3.17 0 0 0 .99-.24l.28 1.12a5.4 5.4 0 0 1-1.62.33c-1.87 0-2.5-1.2-2.5-2.92zM665.49 329.3c2.14 0 4.05 1.68 4.05 4.61 0 2.9-1.91 4.58-4.05 4.58s-4.05-1.68-4.05-4.58c0-2.93 1.9-4.6 4.05-4.6zm0 7.96c1.5 0 2.52-1.35 2.52-3.35 0-2.01-1.01-3.38-2.52-3.38-1.5 0-2.52 1.37-2.52 3.38 0 2 1.02 3.35 2.52 3.35zM678.64 329.3a3.6 3.6 0 0 1 2.45 1.01l-.07-1.5v-3.36h1.5v12.82h-1.23l-.13-1.03h-.05a3.95 3.95 0 0 1-2.65 1.25c-2.2 0-3.62-1.66-3.62-4.58 0-2.84 1.8-4.6 3.8-4.6zm.15 7.94a2.96 2.96 0 0 0 2.23-1.2v-4.58a3.05 3.05 0 0 0-2.12-.92c-1.4 0-2.52 1.36-2.52 3.35 0 2.1.88 3.35 2.4 3.35zM685.47 329.52h1.22l.13 1.58h.05a3 3 0 0 1 2.48-1.8 2.17 2.17 0 0 1 .94.18l-.29 1.3a2.45 2.45 0 0 0-.84-.15c-.74 0-1.62.54-2.22 2.02v5.62h-1.47zM696.21 332.72c0-1.11-.38-2.2-1.8-2.2a4.71 4.71 0 0 0-2.6.94l-.6-1.02a6.5 6.5 0 0 1 3.44-1.14c2.14 0 3.04 1.42 3.04 3.6v5.37h-1.23l-.12-1.05h-.04a4.75 4.75 0 0 1-2.9 1.27 2.39 2.39 0 0 1-2.57-2.49c0-1.9 1.66-2.86 5.38-3.28zm-2.4 4.58a3.58 3.58 0 0 0 2.4-1.17v-2.43c-2.93.36-3.92 1.08-3.92 2.2a1.34 1.34 0 0 0 1.53 1.4zM699.43 329.52h1.52l1.3 5.06c.2.83.35 1.62.51 2.43h.08c.2-.81.37-1.62.6-2.43l1.34-5.06h1.44l1.37 5.06c.22.83.41 1.62.61 2.43h.07c.2-.81.36-1.6.54-2.43l1.28-5.06h1.4l-2.33 8.75h-1.8l-1.26-4.7c-.22-.83-.38-1.64-.6-2.52h-.07c-.2.88-.38 1.71-.61 2.54l-1.23 4.68h-1.73zM720.98 326.66a2.45 2.45 0 0 0-.99-.22c-.83 0-1.22.58-1.22 1.7v1.38h1.85v1.2h-1.85v7.55h-1.48v-7.55h-1.19v-1.11l1.19-.1v-1.38c0-1.78.8-2.9 2.56-2.9a3.97 3.97 0 0 1 1.45.3zM722.3 329.52h1.22l.12 1.58h.06a3 3 0 0 1 2.48-1.8 2.17 2.17 0 0 1 .94.18l-.29 1.3a2.45 2.45 0 0 0-.85-.15c-.73 0-1.62.54-2.21 2.02v5.62h-1.48zM731.76 329.3c2.14 0 4.05 1.68 4.05 4.61 0 2.9-1.9 4.58-4.05 4.58-2.14 0-4.05-1.68-4.05-4.58 0-2.93 1.9-4.6 4.05-4.6zm0 7.96c1.51 0 2.52-1.35 2.52-3.35 0-2.01-1-3.38-2.52-3.38-1.5 0-2.52 1.37-2.52 3.38 0 2 1.03 3.35 2.52 3.35zM738.11 329.52h1.23l.13 1.26h.05a3.85 3.85 0 0 1 2.72-1.48 2.3 2.3 0 0 1 2.41 1.68 4.13 4.13 0 0 1 2.88-1.68c1.8 0 2.67 1.2 2.67 3.42v5.55h-1.48v-5.35c0-1.64-.52-2.34-1.62-2.34a3.21 3.21 0 0 0-2.2 1.35v6.34h-1.47v-5.35c0-1.64-.53-2.34-1.64-2.34a3.28 3.28 0 0 0-2.2 1.35v6.34h-1.48zM526.1 351.12h1.5l1.3 5.06c.2.83.36 1.62.53 2.43h.07c.2-.81.38-1.62.6-2.43l1.34-5.06h1.44l1.37 5.06c.22.83.42 1.62.61 2.43h.08c.2-.81.36-1.6.54-2.43l1.27-5.06h1.4l-2.33 8.75h-1.8l-1.26-4.7c-.22-.83-.38-1.64-.6-2.52h-.07c-.2.88-.38 1.7-.61 2.54l-1.23 4.68h-1.72zM540.06 347.05h1.48v3.5l-.05 1.8a4.19 4.19 0 0 1 2.91-1.45c1.84 0 2.67 1.2 2.67 3.42v5.55h-1.48v-5.35c0-1.64-.5-2.34-1.66-2.34-.9 0-1.5.47-2.39 1.35v6.34h-1.48zM553.13 350.9c2.24 0 3.5 1.6 3.5 4.1a5.2 5.2 0 0 1-.06.82h-5.9c.1 1.89 1.24 3.08 2.91 3.08a3.96 3.96 0 0 0 2.18-.69l.52.97a5.21 5.21 0 0 1-2.88.9c-2.34 0-4.2-1.7-4.2-4.57 0-2.86 1.93-4.6 3.93-4.6zm2.2 3.95c0-1.79-.8-2.78-2.16-2.78-1.23 0-2.34 1.01-2.52 2.78zM558.78 351.12h1.23l.12 1.26h.06a4.13 4.13 0 0 1 2.93-1.48c1.84 0 2.67 1.2 2.67 3.42v5.55h-1.48v-5.35c0-1.64-.5-2.34-1.66-2.34-.9 0-1.5.47-2.39 1.35v6.34h-1.48zM575.43 350.9a3.6 3.6 0 0 1 2.45 1.01l-.07-1.5v-3.36h1.5v12.82h-1.23l-.13-1.03h-.05a3.95 3.95 0 0 1-2.65 1.25c-2.2 0-3.62-1.66-3.62-4.58 0-2.84 1.8-4.6 3.8-4.6zm.15 7.94a2.96 2.96 0 0 0 2.23-1.2v-4.58a3.05 3.05 0 0 0-2.12-.92c-1.4 0-2.52 1.36-2.52 3.35 0 2.1.88 3.35 2.4 3.35zM585.53 350.9c2.23 0 3.5 1.6 3.5 4.1a5.19 5.19 0 0 1-.06.82h-5.9c.1 1.89 1.24 3.08 2.91 3.08a3.96 3.96 0 0 0 2.18-.69l.52.97a5.2 5.2 0 0 1-2.88.9c-2.34 0-4.2-1.7-4.2-4.57 0-2.86 1.93-4.6 3.93-4.6zm2.2 3.95c0-1.79-.8-2.78-2.16-2.78-1.23 0-2.34 1.01-2.52 2.78zM590.01 351.12h1.53l1.66 4.97c.25.86.54 1.74.8 2.57h.08c.25-.83.54-1.7.8-2.57l1.65-4.97h1.46l-3.1 8.75h-1.73zM602.88 350.9c2.24 0 3.5 1.6 3.5 4.1a5.19 5.19 0 0 1-.06.82h-5.9c.1 1.89 1.24 3.08 2.91 3.08a3.96 3.96 0 0 0 2.18-.69l.52.97a5.2 5.2 0 0 1-2.88.9c-2.34 0-4.2-1.7-4.2-4.57 0-2.86 1.93-4.6 3.93-4.6zm2.2 3.95c0-1.79-.8-2.78-2.16-2.78-1.23 0-2.34 1.01-2.52 2.78zM608.53 347.05h1.48v11.16c0 .47.2.65.41.65a1.24 1.24 0 0 0 .33-.04l.2 1.12a2 2 0 0 1-.85.15c-1.12 0-1.57-.7-1.57-1.99zM616.53 350.9c2.14 0 4.05 1.68 4.05 4.61 0 2.9-1.91 4.57-4.05 4.57s-4.05-1.67-4.05-4.57c0-2.93 1.9-4.6 4.05-4.6zm0 7.96c1.51 0 2.52-1.35 2.52-3.35 0-2.01-1.01-3.38-2.52-3.38-1.5 0-2.52 1.37-2.52 3.38 0 2 1.02 3.35 2.52 3.35zM624.36 360.6v2.96h-1.48v-12.44h1.22l.13 1h.05a4.53 4.53 0 0 1 2.8-1.22c2.25 0 3.45 1.75 3.45 4.47 0 2.97-1.78 4.71-3.78 4.71a4.06 4.06 0 0 1-2.43-1zm2.14-1.76c1.44 0 2.5-1.31 2.5-3.47 0-1.93-.65-3.23-2.3-3.23a3.69 3.69 0 0 0-2.34 1.2v4.58a3.46 3.46 0 0 0 2.14.92zM632.6 348.36a1.03 1.03 0 0 1 2.05 0 1.03 1.03 0 0 1-2.05 0zm.27 2.76h1.48v8.75h-1.48zM637.3 351.12h1.22l.13 1.26h.05a4.13 4.13 0 0 1 2.94-1.48c1.83 0 2.66 1.2 2.66 3.42v5.55h-1.48v-5.35c0-1.64-.5-2.34-1.65-2.34-.9 0-1.51.47-2.4 1.35v6.34h-1.47zM647.76 359.56v-.07a1.62 1.62 0 0 1-.78-1.42 2.05 2.05 0 0 1 .96-1.62v-.07a3.09 3.09 0 0 1 2.16-5.48 3.5 3.5 0 0 1 1.24.22h3.04v1.13h-1.8a2.54 2.54 0 0 1 .72 1.8 3 3 0 0 1-3.2 3.05 3.05 3.05 0 0 1-1.32-.31 1.33 1.33 0 0 0-.56 1.04c0 .56.36.96 1.55.96h1.7c2.03 0 3.06.63 3.06 2.09 0 1.62-1.72 3.02-4.43 3.02-2.15 0-3.62-.84-3.62-2.36a2.53 2.53 0 0 1 1.28-1.98zm2.55 3.32c1.68 0 2.78-.87 2.78-1.79 0-.8-.64-1.08-1.77-1.08h-1.51a4.3 4.3 0 0 1-1.14-.14 1.84 1.84 0 0 0-.9 1.48c0 .93.96 1.53 2.54 1.53zm1.64-8.86a1.86 1.86 0 1 0-3.7 0 1.87 1.87 0 1 0 3.7 0zM663.42 350.9a3.6 3.6 0 0 1 2.55 1.05l-.74.95a2.65 2.65 0 0 0-1.76-.77c-1.58 0-2.74 1.37-2.74 3.38 0 2 1.1 3.35 2.7 3.35a3.12 3.12 0 0 0 2.06-.88l.66.97a4.33 4.33 0 0 1-2.84 1.13c-2.33 0-4.1-1.67-4.1-4.57 0-2.93 1.96-4.6 4.2-4.6zM667.79 348.36a1.03 1.03 0 0 1 2.05 0 1.03 1.03 0 0 1-2.05 0zm.27 2.76h1.48v8.75h-1.48zM671.23 351.12h1.53l1.65 4.97c.26.86.54 1.74.81 2.57h.08c.25-.83.54-1.7.79-2.57l1.65-4.97h1.46l-3.1 8.75h-1.72zM680.62 348.36a1.03 1.03 0 0 1 2.05 0 1.03 1.03 0 0 1-2.05 0zm.27 2.76h1.48v8.75h-1.48zM688.88 350.9a3.61 3.61 0 0 1 2.56 1.05l-.74.95a2.65 2.65 0 0 0-1.76-.77c-1.59 0-2.74 1.37-2.74 3.38 0 2 1.1 3.35 2.7 3.35a3.12 3.12 0 0 0 2.06-.88l.66.97a4.33 4.33 0 0 1-2.84 1.13c-2.33 0-4.1-1.67-4.1-4.57 0-2.93 1.95-4.6 4.2-4.6zM697.42 352.32h-1.3v-1.11l1.37-.1.18-2.44h1.24v2.45h2.36v1.2h-2.36v4.87c0 1.08.34 1.69 1.35 1.69a3.17 3.17 0 0 0 .99-.24l.29 1.12a5.4 5.4 0 0 1-1.62.32c-1.87 0-2.5-1.18-2.5-2.91zM706.35 350.9c2.23 0 3.49 1.6 3.49 4.1a5.2 5.2 0 0 1-.06.82h-5.9c.1 1.89 1.24 3.08 2.91 3.08a3.95 3.95 0 0 0 2.18-.69l.53.97a5.2 5.2 0 0 1-2.89.9c-2.34 0-4.2-1.7-4.2-4.57 0-2.86 1.94-4.6 3.94-4.6zm2.2 3.95c0-1.79-.8-2.78-2.17-2.78-1.22 0-2.34 1.01-2.52 2.78zM715.56 350.9a3.61 3.61 0 0 1 2.56 1.05l-.74.95a2.65 2.65 0 0 0-1.77-.77c-1.58 0-2.73 1.37-2.73 3.38 0 2 1.1 3.35 2.7 3.35a3.12 3.12 0 0 0 2.05-.88l.67.97a4.33 4.33 0 0 1-2.85 1.13c-2.32 0-4.1-1.67-4.1-4.57 0-2.93 1.96-4.6 4.21-4.6zM720.2 347.05h1.48v3.5l-.05 1.8a4.19 4.19 0 0 1 2.91-1.45c1.84 0 2.67 1.2 2.67 3.42v5.55h-1.48v-5.35c0-1.64-.5-2.34-1.66-2.34-.9 0-1.5.47-2.39 1.35v6.34h-1.48zM733.88 352.32h-1.3v-1.11l1.38-.1.18-2.44h1.24v2.45h2.36v1.2h-2.36v4.87c0 1.08.34 1.69 1.35 1.69a3.17 3.17 0 0 0 .99-.24l.29 1.12a5.4 5.4 0 0 1-1.62.32c-1.88 0-2.5-1.18-2.5-2.91zM742.94 350.9c2.14 0 4.05 1.68 4.05 4.61 0 2.9-1.9 4.57-4.05 4.57s-4.05-1.67-4.05-4.57c0-2.93 1.9-4.6 4.05-4.6zm0 7.96c1.51 0 2.52-1.35 2.52-3.35 0-2.01-1-3.38-2.52-3.38-1.5 0-2.52 1.37-2.52 3.38 0 2 1.02 3.35 2.52 3.35zM752.7 350.9c2.14 0 4.05 1.68 4.05 4.61 0 2.9-1.91 4.57-4.06 4.57s-4.05-1.67-4.05-4.57c0-2.93 1.91-4.6 4.05-4.6zm0 7.96c1.5 0 2.52-1.35 2.52-3.35 0-2.01-1.01-3.38-2.53-3.38-1.49 0-2.52 1.37-2.52 3.38 0 2 1.03 3.35 2.52 3.35zM759.05 347.05h1.47v11.16c0 .47.2.65.42.65a1.24 1.24 0 0 0 .32-.04l.2 1.12a2 2 0 0 1-.85.15c-1.11 0-1.56-.7-1.56-1.99zM763.4 357.89a3.94 3.94 0 0 0 2.58 1.04c1.15 0 1.73-.61 1.73-1.37 0-.9-1.05-1.3-2-1.65-1.24-.45-2.61-1.05-2.61-2.52 0-1.4 1.11-2.49 3-2.49a4.37 4.37 0 0 1 2.72 1l-.7.93a3.25 3.25 0 0 0-2-.78c-1.1 0-1.6.6-1.6 1.27 0 .8.95 1.13 1.94 1.5 1.26.48 2.67 1 2.67 2.65 0 1.43-1.14 2.61-3.2 2.61a5.27 5.27 0 0 1-3.27-1.2zM97.5 304.86h1.78l2.28 6.34.85 2.4h.07l.83-2.4 2.27-6.34h1.76v11.8h-1.42v-6.5c0-1.04.13-2.44.2-3.48h-.07l-.94 2.62-2.27 6.18h-.86l-2.27-6.18-.94-2.62h-.07c.07 1.04.18 2.44.18 3.49v6.5H97.5zM113.8 307.7c2.15 0 4.05 1.68 4.05 4.61 0 2.9-1.9 4.58-4.05 4.58s-4.05-1.68-4.05-4.58c0-2.93 1.91-4.6 4.05-4.6zm0 7.96c1.52 0 2.52-1.35 2.52-3.35 0-2.02-1-3.38-2.52-3.38-1.5 0-2.52 1.36-2.52 3.38 0 2 1.03 3.35 2.52 3.35zM120.16 307.92h1.22l.13 1.58h.05a3 3 0 0 1 2.48-1.8 2.17 2.17 0 0 1 .94.18l-.29 1.3a2.45 2.45 0 0 0-.84-.15c-.74 0-1.62.54-2.22 2.02v5.62h-1.47zM129.5 307.7c2.23 0 3.5 1.6 3.5 4.1a5.2 5.2 0 0 1-.06.82h-5.9c.1 1.89 1.23 3.08 2.9 3.08a3.95 3.95 0 0 0 2.19-.69l.52.97a5.21 5.21 0 0 1-2.88.9c-2.34 0-4.2-1.7-4.2-4.57s1.93-4.6 3.93-4.6zm2.2 3.95c0-1.79-.8-2.78-2.17-2.78-1.22 0-2.34 1.01-2.52 2.78zM142.06 307.7c2.23 0 3.5 1.6 3.5 4.1a5.2 5.2 0 0 1-.06.82h-5.9c.1 1.89 1.24 3.08 2.91 3.08a3.95 3.95 0 0 0 2.18-.69l.52.97a5.21 5.21 0 0 1-2.88.9c-2.34 0-4.2-1.7-4.2-4.57s1.93-4.6 3.93-4.6zm2.2 3.95c0-1.79-.8-2.78-2.16-2.78-1.23 0-2.34 1.01-2.52 2.78zM156.79 305.06a2.6 2.6 0 0 0-1-.22c-.82 0-1.24.58-1.24 1.7v1.38h1.86v1.2h-1.86v7.55h-1.47v-7.55h-3.64v7.55h-1.48v-7.55h-1.18v-1.11l1.18-.1v-1.14c0-1.82.9-2.96 2.72-2.96a4.03 4.03 0 0 1 1.6.33l-.3 1.11a2.83 2.83 0 0 0-1.17-.23c-.86 0-1.37.63-1.37 1.78v1.12h3.64v-1.39c0-1.78.8-2.9 2.56-2.9a3.97 3.97 0 0 1 1.45.3zM161.14 307.7c2.23 0 3.5 1.6 3.5 4.1a5.2 5.2 0 0 1-.06.82h-5.9c.1 1.89 1.24 3.08 2.91 3.08a3.95 3.95 0 0 0 2.18-.69l.52.97a5.21 5.21 0 0 1-2.88.9c-2.34 0-4.2-1.7-4.2-4.57s1.93-4.6 3.93-4.6zm2.2 3.95c0-1.79-.8-2.78-2.16-2.78-1.23 0-2.34 1.01-2.52 2.78zM170.36 307.7a3.6 3.6 0 0 1 2.55 1.05l-.73.95a2.64 2.64 0 0 0-1.77-.77c-1.58 0-2.74 1.36-2.74 3.38 0 2 1.1 3.35 2.7 3.35a3.12 3.12 0 0 0 2.06-.88l.66.97a4.33 4.33 0 0 1-2.84 1.14c-2.32 0-4.1-1.68-4.1-4.58 0-2.93 1.96-4.6 4.2-4.6zM175.25 309.12h-1.3v-1.11l1.37-.1.18-2.44h1.25v2.45h2.36v1.2h-2.36V314c0 1.08.34 1.69 1.35 1.69a3.18 3.18 0 0 0 .99-.24l.29 1.12a5.4 5.4 0 0 1-1.62.33c-1.88 0-2.5-1.2-2.5-2.92zM180.81 305.16a1.03 1.03 0 0 1 2.06 0 1.03 1.03 0 0 1-2.06 0zm.27 2.76h1.48v8.75h-1.48zM184.25 307.92h1.53l1.66 4.97c.25.86.54 1.74.8 2.57h.08c.25-.83.54-1.7.8-2.57l1.65-4.97h1.46l-3.1 8.75h-1.73zM197.12 307.7c2.24 0 3.5 1.6 3.5 4.1a5.2 5.2 0 0 1-.06.82h-5.9c.1 1.89 1.24 3.08 2.91 3.08a3.95 3.95 0 0 0 2.18-.69l.52.97a5.21 5.21 0 0 1-2.88.9c-2.34 0-4.2-1.7-4.2-4.57s1.94-4.6 3.93-4.6zm2.2 3.95c0-1.79-.8-2.78-2.16-2.78-1.22 0-2.34 1.01-2.52 2.78zM209.98 307.7a3.6 3.6 0 0 1 2.55 1.05l-.74.95a2.65 2.65 0 0 0-1.76-.77c-1.59 0-2.74 1.36-2.74 3.38 0 2 1.1 3.35 2.7 3.35a3.12 3.12 0 0 0 2.06-.88l.66.97a4.33 4.33 0 0 1-2.84 1.14c-2.33 0-4.1-1.68-4.1-4.58 0-2.93 1.95-4.6 4.2-4.6zM214.35 305.16a1.03 1.03 0 0 1 2.05 0 1.03 1.03 0 0 1-2.05 0zm.27 2.76h1.47v8.75h-1.47zM217.79 307.92h1.53l1.65 4.97c.25.86.54 1.74.81 2.57h.07c.26-.83.54-1.7.8-2.57l1.65-4.97h1.46l-3.1 8.75h-1.72zM227.18 305.16a1.03 1.03 0 0 1 2.05 0 1.03 1.03 0 0 1-2.05 0zm.27 2.76h1.48v8.75h-1.48zM235.44 307.7a3.61 3.61 0 0 1 2.56 1.05l-.74.95a2.65 2.65 0 0 0-1.76-.77c-1.59 0-2.74 1.36-2.74 3.38 0 2 1.1 3.35 2.7 3.35a3.12 3.12 0 0 0 2.06-.88l.66.97a4.33 4.33 0 0 1-2.84 1.14c-2.33 0-4.1-1.68-4.1-4.58 0-2.93 1.95-4.6 4.2-4.6zM243.98 309.12h-1.3v-1.11l1.37-.1.18-2.44h1.24v2.45h2.36v1.2h-2.36V314c0 1.08.34 1.69 1.35 1.69a3.18 3.18 0 0 0 .99-.24l.29 1.12a5.4 5.4 0 0 1-1.62.33c-1.87 0-2.5-1.2-2.5-2.92zM252.9 307.7c2.24 0 3.5 1.6 3.5 4.1a5.2 5.2 0 0 1-.06.82h-5.9c.1 1.89 1.24 3.08 2.91 3.08a3.95 3.95 0 0 0 2.18-.69l.53.97a5.21 5.21 0 0 1-2.89.9c-2.34 0-4.2-1.7-4.2-4.57s1.94-4.6 3.94-4.6zm2.2 3.95c0-1.79-.79-2.78-2.16-2.78-1.22 0-2.34 1.01-2.52 2.78zM262.12 307.7a3.61 3.61 0 0 1 2.56 1.05l-.74.95a2.65 2.65 0 0 0-1.77-.77c-1.58 0-2.73 1.36-2.73 3.38 0 2 1.1 3.35 2.7 3.35a3.12 3.12 0 0 0 2.05-.88l.67.97a4.33 4.33 0 0 1-2.85 1.14c-2.32 0-4.1-1.68-4.1-4.58 0-2.93 1.96-4.6 4.21-4.6zM266.76 303.85h1.48v3.5l-.05 1.8a4.19 4.19 0 0 1 2.91-1.45c1.84 0 2.67 1.2 2.67 3.42v5.55h-1.48v-5.35c0-1.64-.5-2.34-1.66-2.34-.9 0-1.5.47-2.39 1.35v6.34h-1.48zM280.44 309.12h-1.3v-1.11l1.38-.1.18-2.44h1.24v2.45h2.36v1.2h-2.36V314c0 1.08.34 1.69 1.35 1.69a3.18 3.18 0 0 0 .99-.24l.29 1.12a5.4 5.4 0 0 1-1.62.33c-1.88 0-2.5-1.2-2.5-2.92zM289.5 307.7c2.14 0 4.05 1.68 4.05 4.61 0 2.9-1.9 4.58-4.05 4.58s-4.05-1.68-4.05-4.58c0-2.93 1.9-4.6 4.05-4.6zm0 7.96c1.51 0 2.52-1.35 2.52-3.35 0-2.02-1.01-3.38-2.52-3.38-1.5 0-2.52 1.36-2.52 3.38 0 2 1.02 3.35 2.52 3.35zM299.25 307.7c2.15 0 4.05 1.68 4.05 4.61 0 2.9-1.9 4.58-4.05 4.58-2.14 0-4.05-1.68-4.05-4.58 0-2.93 1.91-4.6 4.05-4.6zm0 7.96c1.52 0 2.52-1.35 2.52-3.35 0-2.02-1-3.38-2.52-3.38-1.5 0-2.52 1.36-2.52 3.38 0 2 1.03 3.35 2.52 3.35zM305.6 303.85h1.48V315c0 .47.2.65.42.65a1.24 1.24 0 0 0 .32-.04l.2 1.12a1.98 1.98 0 0 1-.85.15c-1.11 0-1.56-.7-1.56-1.99zM309.96 314.69a3.94 3.94 0 0 0 2.58 1.04c1.15 0 1.73-.6 1.73-1.37 0-.9-1.05-1.3-2-1.65-1.25-.45-2.61-1.05-2.61-2.52 0-1.4 1.11-2.49 3-2.49a4.37 4.37 0 0 1 2.72 1l-.7.93a3.25 3.25 0 0 0-2-.78c-1.1 0-1.6.6-1.6 1.26 0 .82.95 1.14 1.94 1.52 1.26.47 2.67.99 2.67 2.64 0 1.43-1.14 2.62-3.2 2.62a5.27 5.27 0 0 1-3.27-1.21zM62.45 329.52h1.5v5.35c0 1.63.48 2.34 1.63 2.34.9 0 1.53-.45 2.36-1.48v-6.21h1.48v8.75h-1.23l-.12-1.37H68a3.7 3.7 0 0 1-2.88 1.59c-1.85 0-2.68-1.2-2.68-3.43zM72.13 336.29a3.94 3.94 0 0 0 2.58 1.04c1.15 0 1.73-.6 1.73-1.37 0-.9-1.05-1.3-2-1.65-1.25-.45-2.61-1.05-2.61-2.52 0-1.4 1.11-2.49 3-2.49a4.37 4.37 0 0 1 2.72 1l-.7.93a3.25 3.25 0 0 0-2-.77c-1.1 0-1.6.59-1.6 1.26 0 .8.95 1.13 1.94 1.5 1.26.48 2.67 1 2.67 2.66 0 1.42-1.14 2.6-3.2 2.6a5.27 5.27 0 0 1-3.27-1.2zM83.19 329.3c2.23 0 3.49 1.6 3.49 4.1a5.2 5.2 0 0 1-.06.82h-5.9c.1 1.89 1.24 3.08 2.92 3.08a3.96 3.96 0 0 0 2.17-.69l.53.98a5.21 5.21 0 0 1-2.88.9c-2.35 0-4.2-1.72-4.2-4.58 0-2.86 1.93-4.6 3.93-4.6zm2.2 3.95c0-1.79-.8-2.78-2.17-2.78-1.22 0-2.34 1.01-2.52 2.78zM92 329.3a3.6 3.6 0 0 1 2.45 1.01l-.07-1.5v-3.36h1.5v12.82h-1.23l-.12-1.03h-.06a3.95 3.95 0 0 1-2.64 1.25c-2.2 0-3.62-1.66-3.62-4.58 0-2.84 1.8-4.6 3.8-4.6zm.15 7.94a2.96 2.96 0 0 0 2.23-1.2v-4.58a3.05 3.05 0 0 0-2.12-.92c-1.4 0-2.52 1.36-2.52 3.35 0 2.1.88 3.35 2.4 3.35zM102.46 325.45h1.48v3.5l-.04 1.58a4.32 4.32 0 0 1 2.74-1.23c2.27 0 3.47 1.75 3.47 4.45 0 2.99-1.78 4.74-3.78 4.74a3.96 3.96 0 0 1-2.5-1.08h-.05l-.13.86h-1.19zm3.62 11.8c1.44 0 2.5-1.32 2.5-3.48 0-1.93-.64-3.23-2.3-3.23a3.6 3.6 0 0 0-2.34 1.2v4.59a3.42 3.42 0 0 0 2.14.91zM112.45 340.8c1 0 1.62-.78 1.98-1.86l.2-.65-3.51-8.77h1.53l1.78 4.84.85 2.47h.07l.74-2.47 1.57-4.84h1.44l-3.3 9.47c-.61 1.73-1.51 3.04-3.28 3.04a2.92 2.92 0 0 1-1.02-.18l.29-1.17a2.55 2.55 0 0 0 .66.13zM124.42 329.52h1.23l.12 1.26h.06a3.85 3.85 0 0 1 2.71-1.48 2.3 2.3 0 0 1 2.42 1.68 4.14 4.14 0 0 1 2.88-1.68c1.8 0 2.66 1.2 2.66 3.42v5.55h-1.47v-5.35c0-1.64-.53-2.34-1.62-2.34a3.21 3.21 0 0 0-2.2 1.35v6.34h-1.48v-5.35c0-1.64-.52-2.34-1.64-2.34a3.28 3.28 0 0 0-2.2 1.35v6.34h-1.47zM142.75 329.3c2.14 0 4.05 1.68 4.05 4.61 0 2.9-1.91 4.58-4.05 4.58s-4.06-1.68-4.06-4.58c0-2.93 1.91-4.6 4.06-4.6zm0 7.96c1.5 0 2.52-1.35 2.52-3.35 0-2.01-1.01-3.38-2.52-3.38-1.5 0-2.52 1.37-2.52 3.38 0 2 1.02 3.35 2.52 3.35zM149.1 329.52h1.22l.13 1.58h.05a3 3 0 0 1 2.49-1.8 2.17 2.17 0 0 1 .93.18l-.28 1.3a2.45 2.45 0 0 0-.85-.15c-.74 0-1.62.54-2.21 2.02v5.62h-1.48zM158.44 329.3c2.23 0 3.5 1.6 3.5 4.1a5.2 5.2 0 0 1-.06.82h-5.9c.1 1.89 1.24 3.08 2.91 3.08a3.96 3.96 0 0 0 2.18-.69l.52.98a5.21 5.21 0 0 1-2.88.9c-2.34 0-4.2-1.72-4.2-4.58 0-2.86 1.93-4.6 3.93-4.6zm2.2 3.95c0-1.79-.8-2.78-2.16-2.78-1.23 0-2.34 1.01-2.52 2.78zM171.3 329.3a3.61 3.61 0 0 1 2.55 1.05l-.74.95a2.65 2.65 0 0 0-1.76-.77c-1.59 0-2.74 1.37-2.74 3.38 0 2 1.1 3.35 2.7 3.35a3.12 3.12 0 0 0 2.05-.88l.67.97a4.33 4.33 0 0 1-2.84 1.14c-2.33 0-4.11-1.68-4.11-4.58 0-2.93 1.96-4.6 4.21-4.6zM175.67 326.76a1.03 1.03 0 0 1 2.05 0 1.03 1.03 0 0 1-2.05 0zm.27 2.76h1.47v8.75h-1.47zM180.62 330.72h-1.3v-1.11l1.37-.1.18-2.44h1.24v2.45h2.36v1.2h-2.36v4.87c0 1.08.34 1.69 1.35 1.69a3.17 3.17 0 0 0 1-.24l.28 1.12a5.4 5.4 0 0 1-1.62.33c-1.87 0-2.5-1.2-2.5-2.92zM186.18 326.76a1.03 1.03 0 0 1 2.05 0 1.03 1.03 0 0 1-2.05 0zm.27 2.76h1.47v8.75h-1.47zM189.96 337.48l4.6-6.76h-4.1v-1.2h5.98v.8l-4.61 6.74h4.75v1.21h-6.62zM201.62 329.3c2.24 0 3.5 1.6 3.5 4.1a5.2 5.2 0 0 1-.06.82h-5.9c.1 1.89 1.24 3.08 2.91 3.08a3.95 3.95 0 0 0 2.18-.69l.52.98a5.2 5.2 0 0 1-2.88.9c-2.34 0-4.2-1.72-4.2-4.58 0-2.86 1.93-4.6 3.93-4.6zm2.2 3.95c0-1.79-.8-2.78-2.16-2.78-1.23 0-2.34 1.01-2.52 2.78zM207.27 329.52h1.23l.12 1.26h.06a4.13 4.13 0 0 1 2.93-1.48c1.84 0 2.67 1.2 2.67 3.42v5.55h-1.48v-5.35c0-1.64-.5-2.34-1.66-2.34-.9 0-1.5.47-2.39 1.35v6.34h-1.48zM216.88 336.29a3.94 3.94 0 0 0 2.58 1.04c1.15 0 1.73-.6 1.73-1.37 0-.9-1.05-1.3-2-1.65-1.24-.45-2.61-1.05-2.61-2.52 0-1.4 1.12-2.49 3-2.49a4.37 4.37 0 0 1 2.72 1l-.7.93a3.25 3.25 0 0 0-2-.77c-1.1 0-1.6.59-1.6 1.26 0 .8.96 1.13 1.95 1.5 1.26.48 2.66 1 2.66 2.66 0 1.42-1.13 2.6-3.2 2.6a5.27 5.27 0 0 1-3.26-1.2zM228.55 330.72h-1.3v-1.11l1.37-.1.18-2.44h1.24v2.45h2.36v1.2h-2.36v4.87c0 1.08.35 1.69 1.35 1.69a3.17 3.17 0 0 0 1-.24l.28 1.12a5.4 5.4 0 0 1-1.62.33c-1.87 0-2.5-1.2-2.5-2.92zM237.6 329.3c2.15 0 4.06 1.68 4.06 4.61 0 2.9-1.91 4.58-4.06 4.58s-4.05-1.68-4.05-4.58c0-2.93 1.91-4.6 4.05-4.6zm0 7.96c1.52 0 2.52-1.35 2.52-3.35 0-2.01-1-3.38-2.52-3.38-1.5 0-2.52 1.37-2.52 3.38 0 2 1.03 3.35 2.52 3.35zM250.76 329.3a3.6 3.6 0 0 1 2.45 1.01l-.07-1.5v-3.36h1.5v12.82h-1.23l-.13-1.03h-.05a3.95 3.95 0 0 1-2.65 1.25c-2.2 0-3.62-1.66-3.62-4.58 0-2.84 1.8-4.6 3.8-4.6zm.15 7.94a2.96 2.96 0 0 0 2.23-1.2v-4.58a3.05 3.05 0 0 0-2.13-.92c-1.4 0-2.52 1.36-2.52 3.35 0 2.1.88 3.35 2.42 3.35zM260.99 329.3c2.14 0 4.05 1.68 4.05 4.61 0 2.9-1.91 4.58-4.05 4.58-2.15 0-4.06-1.68-4.06-4.58 0-2.93 1.91-4.6 4.06-4.6zm0 7.96c1.5 0 2.52-1.35 2.52-3.35 0-2.01-1.01-3.38-2.52-3.38-1.5 0-2.53 1.37-2.53 3.38 0 2 1.03 3.35 2.53 3.35zM271.23 330.72h-1.3v-1.11l1.37-.1.18-2.44h1.24v2.45h2.36v1.2h-2.36v4.87c0 1.08.34 1.69 1.35 1.69a3.17 3.17 0 0 0 1-.24l.28 1.12a5.4 5.4 0 0 1-1.62.33c-1.87 0-2.5-1.2-2.5-2.92zM277.06 325.45h1.48v3.5l-.06 1.8a4.19 4.19 0 0 1 2.92-1.45c1.83 0 2.66 1.2 2.66 3.42v5.55h-1.47v-5.35c0-1.64-.5-2.34-1.66-2.34-.9 0-1.51.47-2.4 1.35v6.34h-1.47zM286.58 326.76a1.03 1.03 0 0 1 2.05 0 1.03 1.03 0 0 1-2.05 0zm.27 2.76h1.48v8.75h-1.48zM291.28 329.52h1.22l.13 1.26h.05a4.13 4.13 0 0 1 2.94-1.48c1.83 0 2.66 1.2 2.66 3.42v5.55h-1.47v-5.35c0-1.64-.5-2.34-1.66-2.34-.9 0-1.51.47-2.4 1.35v6.34h-1.47zM301.74 337.96v-.07a1.61 1.61 0 0 1-.78-1.42 2.05 2.05 0 0 1 .96-1.62v-.07a3.09 3.09 0 0 1 2.16-5.48 3.5 3.5 0 0 1 1.24.22h3.04v1.13h-1.8a2.54 2.54 0 0 1 .72 1.8 3 3 0 0 1-3.2 3.05 3.05 3.05 0 0 1-1.32-.3 1.33 1.33 0 0 0-.56 1.03c0 .56.36.96 1.55.96h1.7c2.03 0 3.06.63 3.06 2.09 0 1.62-1.71 3.02-4.43 3.02-2.15 0-3.62-.84-3.62-2.36a2.53 2.53 0 0 1 1.28-1.98zm2.55 3.32c1.68 0 2.78-.87 2.78-1.79 0-.8-.63-1.08-1.77-1.08h-1.51a4.28 4.28 0 0 1-1.14-.14 1.84 1.84 0 0 0-.9 1.48c0 .93.96 1.53 2.54 1.53zm1.64-8.86a1.86 1.86 0 1 0-3.7 0 1.87 1.87 0 1 0 3.7 0zM309.96 336.29a3.94 3.94 0 0 0 2.58 1.04c1.15 0 1.73-.6 1.73-1.37 0-.9-1.05-1.3-2-1.65-1.25-.45-2.61-1.05-2.61-2.52 0-1.4 1.11-2.49 3-2.49a4.37 4.37 0 0 1 2.72 1l-.7.93a3.25 3.25 0 0 0-2-.77c-1.1 0-1.6.59-1.6 1.26 0 .8.95 1.13 1.94 1.5 1.26.48 2.67 1 2.67 2.66 0 1.42-1.14 2.6-3.2 2.6a5.27 5.27 0 0 1-3.27-1.2zM118.82 347.05h1.48v11.16c0 .47.2.65.41.65a1.23 1.23 0 0 0 .33-.04l.2 1.12a2 2 0 0 1-.85.15c-1.12 0-1.57-.7-1.57-1.99zM123.14 348.36a1.03 1.03 0 0 1 2.06 0 1.03 1.03 0 0 1-2.06 0zm.27 2.76h1.48v8.75h-1.48zM127.84 347.05h1.46v8.68h.05l3.73-4.61h1.64l-2.94 3.5 3.33 5.25h-1.62l-2.55-4.21-1.64 1.9v2.3h-1.46zM139.7 350.9c2.24 0 3.5 1.6 3.5 4.1a5.2 5.2 0 0 1-.06.82h-5.9c.1 1.89 1.24 3.08 2.91 3.08a3.96 3.96 0 0 0 2.18-.69l.52.97a5.21 5.21 0 0 1-2.88.9c-2.34 0-4.2-1.7-4.2-4.57 0-2.86 1.94-4.6 3.93-4.6zm2.2 3.95c0-1.79-.8-2.78-2.16-2.78-1.22 0-2.34 1.01-2.52 2.78zM149 347.05h1.47v3.5l-.06 1.8a4.18 4.18 0 0 1 2.92-1.45c1.84 0 2.66 1.2 2.66 3.42v5.55h-1.47v-5.35c0-1.64-.5-2.34-1.66-2.34-.9 0-1.51.47-2.4 1.35v6.34H149zM162.19 350.9c2.14 0 4.05 1.68 4.05 4.61 0 2.9-1.91 4.57-4.05 4.57s-4.06-1.67-4.06-4.57c0-2.93 1.91-4.6 4.06-4.6zm0 7.96c1.5 0 2.52-1.35 2.52-3.35 0-2.01-1.01-3.38-2.52-3.38-1.5 0-2.53 1.37-2.53 3.38 0 2 1.03 3.35 2.53 3.35zM168.54 347.05H170v11.16c0 .47.2.65.42.65a1.24 1.24 0 0 0 .32-.04l.2 1.12a2 2 0 0 1-.85.15c-1.11 0-1.56-.7-1.56-1.99zM176.3 350.9a3.6 3.6 0 0 1 2.45 1.01l-.08-1.5v-3.36h1.5v12.82h-1.23l-.12-1.03h-.06a3.95 3.95 0 0 1-2.64 1.25c-2.2 0-3.62-1.66-3.62-4.58 0-2.84 1.8-4.6 3.8-4.6zm.14 7.94a2.96 2.96 0 0 0 2.23-1.2v-4.58a3.05 3.05 0 0 0-2.12-.92c-1.4 0-2.52 1.36-2.52 3.35 0 2.1.88 3.35 2.41 3.35zM188.23 360.6v2.96h-1.48v-12.44h1.23l.12 1h.06a4.52 4.52 0 0 1 2.79-1.22c2.25 0 3.46 1.75 3.46 4.47 0 2.97-1.79 4.71-3.79 4.71a4.06 4.06 0 0 1-2.43-1zm2.14-1.76c1.44 0 2.5-1.31 2.5-3.47 0-1.93-.64-3.23-2.3-3.23a3.68 3.68 0 0 0-2.34 1.2v4.58a3.46 3.46 0 0 0 2.14.92zM200.15 350.9c2.14 0 4.05 1.68 4.05 4.61 0 2.9-1.91 4.57-4.05 4.57-2.15 0-4.06-1.67-4.06-4.57 0-2.93 1.91-4.6 4.06-4.6zm0 7.96c1.5 0 2.52-1.35 2.52-3.35 0-2.01-1.01-3.38-2.52-3.38-1.5 0-2.53 1.37-2.53 3.38 0 2 1.03 3.35 2.53 3.35zM205.38 351.12h1.52l1.3 5.06c.2.83.35 1.62.51 2.43h.08c.2-.81.37-1.62.6-2.43l1.34-5.06h1.44l1.37 5.06c.22.83.41 1.62.61 2.43h.07c.2-.81.36-1.6.54-2.43l1.28-5.06h1.4l-2.33 8.75h-1.8l-1.27-4.7c-.21-.83-.37-1.64-.59-2.52h-.07c-.2.88-.38 1.7-.61 2.54l-1.23 4.68h-1.73zM222.56 350.9c2.23 0 3.49 1.6 3.49 4.1a5.2 5.2 0 0 1-.05.82h-5.91c.1 1.89 1.24 3.08 2.92 3.08a3.95 3.95 0 0 0 2.17-.69l.53.97a5.2 5.2 0 0 1-2.88.9c-2.34 0-4.2-1.7-4.2-4.57 0-2.86 1.93-4.6 3.93-4.6zm2.2 3.95c0-1.79-.8-2.78-2.17-2.78-1.22 0-2.34 1.01-2.52 2.78zM228.2 351.12h1.23l.13 1.58h.05a3 3 0 0 1 2.49-1.8 2.17 2.17 0 0 1 .93.18l-.29 1.3a2.45 2.45 0 0 0-.84-.15c-.74 0-1.62.54-2.22 2.02v5.62h-1.47zM238.34 352.32h-1.3v-1.11l1.37-.1.18-2.44h1.24v2.45h2.36v1.2h-2.36v4.87c0 1.08.35 1.69 1.36 1.69a3.17 3.17 0 0 0 .99-.24l.28 1.12a5.4 5.4 0 0 1-1.62.32c-1.87 0-2.5-1.18-2.5-2.91zM247.4 350.9c2.14 0 4.05 1.68 4.05 4.61 0 2.9-1.91 4.57-4.05 4.57-2.15 0-4.06-1.67-4.06-4.57 0-2.93 1.91-4.6 4.06-4.6zm0 7.96c1.5 0 2.52-1.35 2.52-3.35 0-2.01-1.01-3.38-2.52-3.38-1.5 0-2.53 1.37-2.53 3.38 0 2 1.03 3.35 2.53 3.35zM262.34 354.32c0-1.11-.38-2.2-1.8-2.2a4.7 4.7 0 0 0-2.62.94l-.59-1.02a6.5 6.5 0 0 1 3.44-1.14c2.14 0 3.04 1.42 3.04 3.6v5.37h-1.22l-.13-1.05h-.03a4.75 4.75 0 0 1-2.9 1.27 2.39 2.39 0 0 1-2.58-2.49c0-1.9 1.66-2.86 5.39-3.28zm-2.4 4.58a3.58 3.58 0 0 0 2.4-1.17v-2.43c-2.94.36-3.93 1.08-3.93 2.2a1.34 1.34 0 0 0 1.53 1.4zM270.17 350.9a3.61 3.61 0 0 1 2.55 1.05l-.74.95a2.65 2.65 0 0 0-1.76-.77c-1.59 0-2.74 1.37-2.74 3.38 0 2 1.1 3.35 2.7 3.35a3.12 3.12 0 0 0 2.06-.88l.66.97a4.33 4.33 0 0 1-2.84 1.13c-2.33 0-4.1-1.67-4.1-4.57 0-2.93 1.96-4.6 4.2-4.6zM278 350.9a3.61 3.61 0 0 1 2.55 1.05l-.74.95a2.65 2.65 0 0 0-1.76-.77c-1.59 0-2.74 1.37-2.74 3.38 0 2 1.1 3.35 2.7 3.35a3.12 3.12 0 0 0 2.06-.88l.66.97a4.33 4.33 0 0 1-2.84 1.13c-2.33 0-4.1-1.67-4.1-4.57 0-2.93 1.96-4.6 4.2-4.6zM285.66 350.9c2.15 0 4.05 1.68 4.05 4.61 0 2.9-1.9 4.57-4.05 4.57-2.14 0-4.05-1.67-4.05-4.57 0-2.93 1.91-4.6 4.05-4.6zm0 7.96c1.52 0 2.52-1.35 2.52-3.35 0-2.01-1-3.38-2.52-3.38-1.5 0-2.52 1.37-2.52 3.38 0 2 1.03 3.35 2.52 3.35zM291.9 351.12h1.48v5.35c0 1.63.5 2.34 1.64 2.34.9 0 1.53-.45 2.36-1.48v-6.21h1.48v8.75h-1.23l-.12-1.37h-.06a3.7 3.7 0 0 1-2.88 1.59c-1.85 0-2.68-1.2-2.68-3.43zM301.8 351.12h1.23l.13 1.26h.05a4.13 4.13 0 0 1 2.94-1.48c1.83 0 2.66 1.2 2.66 3.42v5.55h-1.47v-5.35c0-1.64-.5-2.34-1.66-2.34-.9 0-1.51.47-2.4 1.35v6.34h-1.47zM311.9 352.32h-1.29v-1.11l1.37-.1.18-2.44h1.24v2.45h2.36v1.2h-2.36v4.87c0 1.08.34 1.69 1.35 1.69a3.17 3.17 0 0 0 1-.24l.28 1.12a5.4 5.4 0 0 1-1.62.32c-1.87 0-2.5-1.18-2.5-2.91zM128.87 179.24h3.51c2.4 0 4.07.8 4.07 2.88a2.57 2.57 0 0 1-2.07 2.57v.07c1.73.27 2.74 1.21 2.74 2.83 0 2.32-1.84 3.46-4.47 3.46h-3.78zm3.26 5.04c2 0 2.84-.72 2.84-2.04 0-1.28-.95-1.82-2.77-1.82h-1.82v3.86zm.3 5.58c2.02 0 3.21-.74 3.21-2.34 0-1.46-1.13-2.13-3.2-2.13h-2.06v4.47zM142.55 182.08c2.23 0 3.5 1.6 3.5 4.1a5.2 5.2 0 0 1-.06.82h-5.9c.1 1.89 1.24 3.08 2.91 3.08a3.95 3.95 0 0 0 2.18-.69l.52.97a5.21 5.21 0 0 1-2.88.9c-2.34 0-4.2-1.7-4.2-4.57s1.93-4.6 3.93-4.6zm2.2 3.94c0-1.78-.8-2.77-2.16-2.77-1.23 0-2.34 1.01-2.52 2.77zM148.2 183.5h-1.3v-1.11l1.37-.1.18-2.44h1.25v2.45h2.35v1.2h-2.35v4.87c0 1.08.34 1.69 1.35 1.69a3.18 3.18 0 0 0 .99-.24l.28 1.12a5.4 5.4 0 0 1-1.62.32c-1.87 0-2.5-1.18-2.5-2.91zM154.29 183.5h-1.3v-1.11l1.37-.1.18-2.44h1.24v2.45h2.36v1.2h-2.36v4.87c0 1.08.34 1.69 1.35 1.69a3.18 3.18 0 0 0 1-.24l.28 1.12a5.4 5.4 0 0 1-1.62.32c-1.87 0-2.5-1.18-2.5-2.91zM163.21 182.08c2.24 0 3.5 1.6 3.5 4.1a5.2 5.2 0 0 1-.06.82h-5.9c.1 1.89 1.24 3.08 2.91 3.08a3.95 3.95 0 0 0 2.18-.69l.53.97a5.21 5.21 0 0 1-2.89.9c-2.34 0-4.19-1.7-4.19-4.57s1.93-4.6 3.92-4.6zm2.2 3.94c0-1.78-.8-2.77-2.16-2.77-1.22 0-2.34 1.01-2.52 2.77zM168.87 182.3h1.22l.13 1.58h.05a3 3 0 0 1 2.48-1.8 2.17 2.17 0 0 1 .94.18l-.29 1.3a2.45 2.45 0 0 0-.84-.15c-.74 0-1.62.54-2.22 2.02v5.62h-1.47zM182.15 182.08c2.14 0 4.05 1.68 4.05 4.61 0 2.9-1.9 4.57-4.05 4.57-2.14 0-4.05-1.67-4.05-4.57 0-2.93 1.9-4.6 4.05-4.6zm0 7.96c1.51 0 2.52-1.35 2.52-3.35 0-2.02-1-3.38-2.52-3.38-1.5 0-2.52 1.36-2.52 3.38 0 2 1.03 3.35 2.52 3.35zM188.38 182.3h1.5v5.35c0 1.63.48 2.34 1.63 2.34.9 0 1.53-.45 2.36-1.48v-6.21h1.47v8.75h-1.22l-.13-1.37h-.05a3.7 3.7 0 0 1-2.88 1.58c-1.85 0-2.68-1.18-2.68-3.42zM198.55 183.5h-1.3v-1.11l1.37-.1.18-2.44h1.24v2.45h2.36v1.2h-2.36v4.87c0 1.08.34 1.69 1.35 1.69a3.18 3.18 0 0 0 1-.24l.28 1.12a5.4 5.4 0 0 1-1.62.32c-1.87 0-2.5-1.18-2.5-2.91zM207.76 182.08a3.6 3.6 0 0 1 2.56 1.05l-.74.95a2.65 2.65 0 0 0-1.76-.77c-1.59 0-2.74 1.36-2.74 3.38 0 2 1.1 3.35 2.7 3.35a3.12 3.12 0 0 0 2.05-.88l.67.97a4.33 4.33 0 0 1-2.84 1.13c-2.33 0-4.1-1.67-4.1-4.57 0-2.93 1.95-4.6 4.2-4.6zM215.43 182.08c2.15 0 4.05 1.68 4.05 4.61 0 2.9-1.9 4.57-4.05 4.57s-4.05-1.67-4.05-4.57c0-2.93 1.91-4.6 4.05-4.6zm0 7.96c1.51 0 2.52-1.35 2.52-3.35 0-2.02-1-3.38-2.52-3.38-1.5 0-2.52 1.36-2.52 3.38 0 2 1.03 3.35 2.52 3.35zM221.79 182.3H223l.13 1.26h.05a3.85 3.85 0 0 1 2.72-1.48 2.3 2.3 0 0 1 2.41 1.68 4.13 4.13 0 0 1 2.88-1.68c1.8 0 2.67 1.19 2.67 3.42v5.55h-1.48v-5.35c0-1.64-.52-2.34-1.62-2.34a3.21 3.21 0 0 0-2.2 1.35v6.34h-1.47v-5.35c0-1.64-.53-2.34-1.64-2.34a3.28 3.28 0 0 0-2.2 1.35v6.34h-1.47zM239.98 182.08c2.24 0 3.5 1.6 3.5 4.1a5.2 5.2 0 0 1-.06.82h-5.9c.1 1.89 1.24 3.08 2.91 3.08a3.95 3.95 0 0 0 2.18-.69l.52.97a5.21 5.21 0 0 1-2.88.9c-2.34 0-4.2-1.7-4.2-4.57s1.94-4.6 3.93-4.6zm2.2 3.94c0-1.78-.8-2.77-2.16-2.77-1.22 0-2.34 1.01-2.52 2.77zM245.4 189.07a3.94 3.94 0 0 0 2.58 1.04c1.15 0 1.72-.61 1.72-1.37 0-.9-1.04-1.3-2-1.65-1.24-.45-2.6-1.05-2.6-2.52 0-1.4 1.11-2.49 3-2.49a4.37 4.37 0 0 1 2.72 1l-.7.93a3.25 3.25 0 0 0-2-.78c-1.1 0-1.6.6-1.6 1.26 0 .81.95 1.14 1.94 1.52 1.26.46 2.67.99 2.67 2.64 0 1.43-1.14 2.61-3.2 2.61a5.27 5.27 0 0 1-3.27-1.2zM108.19 201.03a2.46 2.46 0 0 0-.99-.21c-.83 0-1.22.57-1.22 1.7v1.38h1.85v1.2h-1.85v7.55h-1.48v-7.55h-1.19V204l1.19-.1v-1.38c0-1.78.81-2.9 2.56-2.9a3.97 3.97 0 0 1 1.45.29zM112.73 203.68c2.14 0 4.05 1.68 4.05 4.61 0 2.9-1.91 4.57-4.05 4.57s-4.05-1.67-4.05-4.57c0-2.93 1.9-4.6 4.05-4.6zm0 7.96c1.5 0 2.52-1.35 2.52-3.35 0-2.02-1.01-3.38-2.52-3.38-1.5 0-2.52 1.36-2.52 3.38 0 2 1.02 3.35 2.52 3.35zM119.08 203.9h1.22l.13 1.58h.05a3 3 0 0 1 2.49-1.8 2.17 2.17 0 0 1 .93.18l-.28 1.3a2.45 2.45 0 0 0-.85-.15c-.74 0-1.62.54-2.21 2.02v5.62h-1.48zM128.73 210.67a3.94 3.94 0 0 0 2.57 1.04c1.15 0 1.73-.61 1.73-1.37 0-.9-1.04-1.3-2-1.65-1.24-.45-2.6-1.05-2.6-2.52 0-1.4 1.1-2.49 3-2.49a4.37 4.37 0 0 1 2.72 1l-.7.93a3.25 3.25 0 0 0-2-.78c-1.1 0-1.6.6-1.6 1.26 0 .81.95 1.14 1.94 1.52 1.26.46 2.66.99 2.66 2.64 0 1.43-1.13 2.61-3.2 2.61a5.27 5.27 0 0 1-3.26-1.2zM139.9 203.68c2.15 0 4.06 1.68 4.06 4.61 0 2.9-1.91 4.57-4.05 4.57s-4.06-1.67-4.06-4.57c0-2.93 1.91-4.6 4.06-4.6zm0 7.96c1.52 0 2.53-1.35 2.53-3.35 0-2.02-1.01-3.38-2.52-3.38-1.5 0-2.52 1.36-2.52 3.38 0 2 1.02 3.35 2.52 3.35zM149.82 203.68a3.6 3.6 0 0 1 2.56 1.05l-.74.95a2.65 2.65 0 0 0-1.76-.77c-1.59 0-2.74 1.36-2.74 3.38 0 2 1.1 3.35 2.7 3.35a3.12 3.12 0 0 0 2.05-.88l.67.97a4.33 4.33 0 0 1-2.84 1.13c-2.33 0-4.11-1.67-4.11-4.57 0-2.93 1.96-4.6 4.21-4.6zM154.2 201.14a1.03 1.03 0 0 1 2.05 0 1.03 1.03 0 0 1-2.05 0zm.27 2.76h1.47v8.75h-1.47zM162.17 203.68c2.23 0 3.5 1.6 3.5 4.1a5.2 5.2 0 0 1-.06.82h-5.9c.1 1.89 1.24 3.08 2.91 3.08a3.96 3.96 0 0 0 2.18-.69l.52.97a5.21 5.21 0 0 1-2.88.9c-2.34 0-4.2-1.7-4.2-4.57s1.93-4.6 3.93-4.6zm2.2 3.94c0-1.78-.8-2.77-2.16-2.77-1.23 0-2.34 1.01-2.52 2.77zM167.82 205.1h-1.3V204l1.37-.1.18-2.44h1.25v2.45h2.36v1.2h-2.36v4.87c0 1.08.34 1.69 1.35 1.69a3.17 3.17 0 0 0 .99-.24l.29 1.12a5.4 5.4 0 0 1-1.62.32c-1.88 0-2.5-1.18-2.5-2.91zM173.73 215.19c.99 0 1.62-.8 1.98-1.88l.2-.64-3.52-8.77h1.53l1.79 4.84c.27.76.57 1.66.84 2.47h.07c.26-.8.5-1.7.74-2.47l1.57-4.84h1.44l-3.3 9.47c-.6 1.73-1.5 3.04-3.27 3.04a2.9 2.9 0 0 1-1.03-.18l.29-1.17a2.57 2.57 0 0 0 .67.13zM190.65 207.1c0-1.11-.38-2.2-1.8-2.2a4.7 4.7 0 0 0-2.61.94l-.6-1.02a6.5 6.5 0 0 1 3.44-1.14c2.14 0 3.04 1.42 3.04 3.6v5.37h-1.22l-.13-1.05h-.03a4.75 4.75 0 0 1-2.9 1.26 2.39 2.39 0 0 1-2.58-2.48c0-1.9 1.66-2.86 5.39-3.28zm-2.4 4.58a3.58 3.58 0 0 0 2.4-1.17v-2.44c-2.94.36-3.93 1.08-3.93 2.2a1.34 1.34 0 0 0 1.53 1.4zM194.91 199.83h1.48v11.16c0 .47.2.65.41.65a1.24 1.24 0 0 0 .33-.04l.2 1.12a2 2 0 0 1-.85.14c-1.12 0-1.57-.7-1.57-1.98zM199.5 199.83h1.48v11.16c0 .47.2.65.41.65a1.24 1.24 0 0 0 .33-.04l.2 1.12a2 2 0 0 1-.85.14c-1.12 0-1.57-.7-1.57-1.98zM207.73 203.9h1.22l.13 1.58h.05a3 3 0 0 1 2.49-1.8 2.17 2.17 0 0 1 .93.18l-.29 1.3a2.45 2.45 0 0 0-.84-.15c-.74 0-1.62.54-2.22 2.02v5.62h-1.47zM217.2 203.68c2.14 0 4.05 1.68 4.05 4.61 0 2.9-1.91 4.57-4.05 4.57-2.15 0-4.05-1.67-4.05-4.57 0-2.93 1.9-4.6 4.05-4.6zm0 7.96c1.5 0 2.52-1.35 2.52-3.35 0-2.02-1.01-3.38-2.52-3.38-1.5 0-2.52 1.36-2.52 3.38 0 2 1.02 3.35 2.52 3.35zM223.42 203.9h1.5v5.35c0 1.63.48 2.34 1.64 2.34.9 0 1.53-.45 2.35-1.48v-6.21h1.48v8.75h-1.22l-.13-1.37H229a3.7 3.7 0 0 1-2.88 1.58c-1.86 0-2.69-1.18-2.69-3.42zM233.34 203.9h1.23l.12 1.26h.06a4.13 4.13 0 0 1 2.93-1.48c1.84 0 2.67 1.19 2.67 3.42v5.55h-1.48v-5.35c0-1.64-.5-2.34-1.66-2.34-.9 0-1.51.47-2.4 1.35v6.34h-1.47zM246.36 203.68a3.6 3.6 0 0 1 2.44 1l-.07-1.48v-3.37h1.5v12.82H249l-.12-1.03h-.06a3.95 3.95 0 0 1-2.64 1.24c-2.2 0-3.62-1.65-3.62-4.57 0-2.84 1.8-4.6 3.8-4.6zm.14 7.94a2.96 2.96 0 0 0 2.23-1.2v-4.58a3.05 3.05 0 0 0-2.12-.92c-1.4 0-2.52 1.35-2.52 3.35 0 2.1.88 3.35 2.41 3.35zM181.28 55.02h1.78l2.29 6.34.84 2.42h.07l.83-2.42 2.27-6.34h1.76v11.82h-1.42v-6.5c0-1.05.13-2.45.2-3.5h-.07l-.94 2.63-2.27 6.18h-.86l-2.27-6.18-.94-2.63h-.07c.07 1.05.18 2.45.18 3.5v6.5h-1.38zM197.58 57.87c2.15 0 4.06 1.67 4.06 4.6 0 2.9-1.91 4.58-4.06 4.58s-4.05-1.67-4.05-4.57c0-2.94 1.91-4.61 4.05-4.61zm0 7.96c1.52 0 2.53-1.35 2.53-3.35 0-2.02-1.01-3.39-2.53-3.39-1.49 0-2.52 1.37-2.52 3.39 0 2 1.03 3.35 2.52 3.35zM203.94 58.09h1.22l.13 1.58h.05a3 3 0 0 1 2.49-1.8 2.17 2.17 0 0 1 .93.18l-.29 1.3a2.45 2.45 0 0 0-.84-.15c-.74 0-1.62.54-2.22 2.02v5.62h-1.47zM213.28 57.87c2.23 0 3.5 1.6 3.5 4.1a5.2 5.2 0 0 1-.06.82h-5.9c.1 1.89 1.24 3.07 2.91 3.07a3.95 3.95 0 0 0 2.18-.68l.52.97a5.21 5.21 0 0 1-2.88.9c-2.34 0-4.2-1.7-4.2-4.57s1.93-4.61 3.93-4.61zm2.2 3.94c0-1.78-.8-2.77-2.16-2.77-1.23 0-2.34 1-2.52 2.77zM225.84 57.87c2.24 0 3.5 1.6 3.5 4.1a5.2 5.2 0 0 1-.06.82h-5.9c.1 1.89 1.24 3.07 2.91 3.07a3.95 3.95 0 0 0 2.18-.68l.52.97a5.21 5.21 0 0 1-2.88.9c-2.34 0-4.2-1.7-4.2-4.57s1.94-4.61 3.93-4.61zm2.2 3.94c0-1.78-.8-2.77-2.16-2.77-1.22 0-2.34 1-2.52 2.77zM231.5 58.09h1.22l.12 1.26h.06a4.13 4.13 0 0 1 2.93-1.48c1.84 0 2.67 1.19 2.67 3.42v5.55h-1.48v-5.35c0-1.64-.5-2.34-1.65-2.34-.9 0-1.52.47-2.4 1.35v6.34h-1.48zM241.95 66.53v-.07a1.61 1.61 0 0 1-.77-1.42 2.05 2.05 0 0 1 .95-1.62v-.08a3.09 3.09 0 0 1 2.16-5.47 3.5 3.5 0 0 1 1.25.22h3.04v1.13h-1.8a2.54 2.54 0 0 1 .72 1.8 3 3 0 0 1-3.2 3.04 3.05 3.05 0 0 1-1.32-.3 1.32 1.32 0 0 0-.56 1.04c0 .56.36.96 1.55.96h1.7c2.03 0 3.05.63 3.05 2.08 0 1.63-1.7 3.03-4.43 3.03-2.14 0-3.62-.85-3.62-2.36a2.53 2.53 0 0 1 1.28-1.98zm2.56 3.31c1.67 0 2.77-.86 2.77-1.78 0-.8-.63-1.08-1.76-1.08H244a4.26 4.26 0 0 1-1.14-.14 1.84 1.84 0 0 0-.9 1.47c0 .94.95 1.53 2.54 1.53zm1.64-8.86a1.86 1.86 0 1 0-3.71 0 1.87 1.87 0 1 0 3.7 0zM255.08 61.3c0-1.13-.38-2.2-1.8-2.2a4.7 4.7 0 0 0-2.61.93l-.6-1.03a6.5 6.5 0 0 1 3.44-1.13c2.14 0 3.04 1.42 3.04 3.6v5.37h-1.22l-.13-1.05h-.03a4.75 4.75 0 0 1-2.9 1.26 2.39 2.39 0 0 1-2.58-2.48c0-1.91 1.66-2.86 5.39-3.28zm-2.4 4.56a3.58 3.58 0 0 0 2.4-1.17v-2.43c-2.94.36-3.93 1.08-3.93 2.2a1.34 1.34 0 0 0 1.53 1.4zM259.95 66.53v-.07a1.61 1.61 0 0 1-.77-1.42 2.05 2.05 0 0 1 .95-1.62v-.08a3.09 3.09 0 0 1 2.16-5.47 3.5 3.5 0 0 1 1.25.22h3.04v1.13h-1.8a2.54 2.54 0 0 1 .72 1.8 3 3 0 0 1-3.2 3.04 3.05 3.05 0 0 1-1.32-.3 1.32 1.32 0 0 0-.56 1.04c0 .56.36.96 1.55.96h1.7c2.03 0 3.05.63 3.05 2.08 0 1.63-1.7 3.03-4.43 3.03-2.14 0-3.62-.85-3.62-2.36a2.53 2.53 0 0 1 1.28-1.98zm2.56 3.31c1.67 0 2.77-.86 2.77-1.78 0-.8-.63-1.08-1.76-1.08H262a4.26 4.26 0 0 1-1.14-.14 1.84 1.84 0 0 0-.9 1.47c0 .94.95 1.53 2.54 1.53zm1.64-8.86a1.86 1.86 0 1 0-3.71 0 1.87 1.87 0 1 0 3.7 0zM271.44 57.87c2.23 0 3.5 1.6 3.5 4.1a5.2 5.2 0 0 1-.06.82h-5.9c.1 1.89 1.23 3.07 2.9 3.07a3.95 3.95 0 0 0 2.19-.68l.52.97a5.21 5.21 0 0 1-2.88.9c-2.34 0-4.2-1.7-4.2-4.57s1.93-4.61 3.93-4.61zm2.2 3.94c0-1.78-.8-2.77-2.17-2.77-1.22 0-2.34 1-2.52 2.77zM277.09 58.09h1.22l.13 1.26h.05a3.85 3.85 0 0 1 2.72-1.48 2.3 2.3 0 0 1 2.41 1.67 4.13 4.13 0 0 1 2.89-1.67c1.8 0 2.66 1.19 2.66 3.42v5.55h-1.48v-5.35c0-1.64-.52-2.34-1.62-2.34a3.21 3.21 0 0 0-2.2 1.35v6.34h-1.47v-5.35c0-1.64-.52-2.34-1.64-2.34a3.28 3.28 0 0 0-2.2 1.35v6.34h-1.47zM295.29 57.87c2.23 0 3.49 1.6 3.49 4.1a5.2 5.2 0 0 1-.05.82h-5.9c.1 1.89 1.23 3.07 2.9 3.07a3.95 3.95 0 0 0 2.19-.68l.52.97a5.21 5.21 0 0 1-2.88.9c-2.34 0-4.2-1.7-4.2-4.57s1.93-4.61 3.93-4.61zm2.2 3.94c0-1.78-.8-2.77-2.17-2.77-1.22 0-2.34 1-2.52 2.77zM300.94 58.09h1.22l.13 1.26h.05a4.13 4.13 0 0 1 2.94-1.48c1.83 0 2.66 1.19 2.66 3.42v5.55h-1.47v-5.35c0-1.64-.5-2.34-1.66-2.34-.9 0-1.51.47-2.4 1.35v6.34h-1.47zM311.04 59.3h-1.3v-1.12l1.37-.1.18-2.44h1.24v2.45h2.36v1.2h-2.36v4.86c0 1.08.34 1.7 1.35 1.7a3.18 3.18 0 0 0 1-.24l.28 1.12a5.4 5.4 0 0 1-1.62.32c-1.87 0-2.5-1.19-2.5-2.91zM217.51 79.47c2.14 0 4.05 1.67 4.05 4.6 0 2.9-1.9 4.58-4.05 4.58s-4.05-1.67-4.05-4.57c0-2.94 1.9-4.61 4.05-4.61zm0 7.96c1.51 0 2.52-1.35 2.52-3.35 0-2.02-1-3.39-2.52-3.39-1.5 0-2.52 1.37-2.52 3.39 0 2 1.03 3.35 2.52 3.35zM225.34 89.17v2.96h-1.48V79.69h1.23l.12 1h.06a4.53 4.53 0 0 1 2.79-1.22c2.25 0 3.46 1.75 3.46 4.47 0 2.97-1.79 4.71-3.79 4.71a4.06 4.06 0 0 1-2.43-1zm2.14-1.76c1.44 0 2.5-1.31 2.5-3.47 0-1.93-.64-3.23-2.3-3.23a3.69 3.69 0 0 0-2.34 1.19v4.6a3.47 3.47 0 0 0 2.14.91zM235.33 89.17v2.96h-1.48V79.69h1.23l.12 1h.06a4.53 4.53 0 0 1 2.79-1.22c2.25 0 3.46 1.75 3.46 4.47 0 2.97-1.79 4.71-3.79 4.71a4.06 4.06 0 0 1-2.43-1zm2.14-1.76c1.44 0 2.5-1.31 2.5-3.47 0-1.93-.64-3.23-2.3-3.23a3.69 3.69 0 0 0-2.34 1.19v4.6a3.46 3.46 0 0 0 2.14.91zM247.25 79.47c2.14 0 4.05 1.67 4.05 4.6 0 2.9-1.91 4.58-4.05 4.58s-4.05-1.67-4.05-4.57c0-2.94 1.9-4.61 4.05-4.61zm0 7.96c1.5 0 2.52-1.35 2.52-3.35 0-2.02-1.01-3.39-2.52-3.39-1.5 0-2.52 1.37-2.52 3.39 0 2 1.02 3.35 2.52 3.35zM253.6 79.69h1.22l.13 1.58h.05a3 3 0 0 1 2.49-1.8 2.17 2.17 0 0 1 .93.18l-.28 1.3a2.45 2.45 0 0 0-.85-.15c-.74 0-1.62.54-2.21 2.02v5.62h-1.48zM260.1 80.9h-1.3v-1.12l1.37-.1.18-2.44h1.24v2.45h2.36v1.2h-2.36v4.86c0 1.08.34 1.7 1.35 1.7a3.17 3.17 0 0 0 1-.24l.28 1.12a5.4 5.4 0 0 1-1.62.32c-1.87 0-2.5-1.19-2.5-2.91zM265.7 79.69h1.49v5.34c0 1.64.49 2.34 1.64 2.34.9 0 1.53-.45 2.36-1.47v-6.21h1.47v8.75h-1.22l-.13-1.37h-.05a3.7 3.7 0 0 1-2.88 1.58c-1.86 0-2.68-1.19-2.68-3.42zM275.61 79.69h1.23l.12 1.26h.06a4.13 4.13 0 0 1 2.93-1.48c1.84 0 2.67 1.19 2.67 3.42v5.55h-1.48v-5.35c0-1.64-.5-2.34-1.66-2.34-.9 0-1.5.47-2.39 1.35v6.34h-1.48zM285.19 76.93a1.03 1.03 0 0 1 2.05 0 1.03 1.03 0 0 1-2.05 0zm.27 2.76h1.48v8.75h-1.48zM290.14 80.9h-1.3v-1.12l1.37-.1.18-2.44h1.24v2.45H294v1.2h-2.36v4.86c0 1.08.35 1.7 1.35 1.7a3.17 3.17 0 0 0 1-.24l.28 1.12a5.4 5.4 0 0 1-1.62.32c-1.87 0-2.5-1.19-2.5-2.91zM295.7 76.93a1.03 1.03 0 0 1 2.05 0 1.03 1.03 0 0 1-2.05 0zm.27 2.76h1.48v8.75h-1.48zM303.67 79.47c2.24 0 3.5 1.6 3.5 4.1a5.2 5.2 0 0 1-.06.82h-5.9c.1 1.89 1.24 3.07 2.91 3.07a3.95 3.95 0 0 0 2.18-.68l.53.97a5.21 5.21 0 0 1-2.88.9c-2.35 0-4.2-1.7-4.2-4.57s1.93-4.61 3.92-4.61zm2.2 3.94c0-1.78-.79-2.77-2.16-2.77-1.22 0-2.34 1-2.52 2.77zM309.1 86.46a3.94 3.94 0 0 0 2.57 1.04c1.15 0 1.73-.61 1.73-1.37 0-.9-1.05-1.3-2-1.65-1.25-.45-2.61-1.05-2.61-2.53 0-1.4 1.11-2.48 3-2.48a4.37 4.37 0 0 1 2.72.99l-.7.94a3.25 3.25 0 0 0-2-.78c-1.1 0-1.6.6-1.6 1.26 0 .81.95 1.14 1.94 1.52 1.26.46 2.67.99 2.67 2.64 0 1.42-1.14 2.61-3.2 2.61a5.27 5.27 0 0 1-3.27-1.2z" fill="#1d1d1b"/><path d="M479.62 89.6h3.59v-9.54h-3.1V77.7a11.5 11.5 0 0 0 4.11-1.51h2.81v13.42h3.1v3.1h-10.51zM361.63 313.47h-1.9v3.95h-3.56v-3.95h-7.15v-2.63l6.03-9.93h4.68v9.65h1.9zm-5.46-2.91v-2.68c0-1.07.1-2.65.16-3.7h-.1c-.42.92-.89 1.85-1.36 2.79l-2.18 3.59zM544.48 202.28c4.21-3.98 7.18-6.81 7.18-9.15a2.22 2.22 0 0 0-2.34-2.5 4.22 4.22 0 0 0-2.94 1.7l-2.08-2.06a7 7 0 0 1 5.54-2.63c3.25 0 5.46 2.08 5.46 5.25 0 2.79-2.6 5.75-5.28 8.56a25.42 25.42 0 0 1 2.76-.21h3.32v3.22h-11.62zM480.14 313.72a5.23 5.23 0 0 0 3.61 1.66c1.62 0 2.68-.7 2.68-1.95 0-1.45-.86-2.36-4.44-2.36v-2.7c2.96 0 3.9-.89 3.9-2.22 0-1.14-.73-1.82-2.03-1.82a4.59 4.59 0 0 0-3.1 1.46l-1.92-2.34a7.76 7.76 0 0 1 5.2-2.1c3.4 0 5.7 1.63 5.7 4.52 0 1.71-1 2.9-2.76 3.66v.1a4.1 4.1 0 0 1 3.27 4.04c0 3.07-2.8 4.8-6.13 4.8a7.18 7.18 0 0 1-5.75-2.33zM359.08 80.84a3.79 3.79 0 0 0-2.57-1.17c-1.82 0-3.28 1.3-3.4 5.15a4.65 4.65 0 0 1 3.3-1.74c2.83 0 4.9 1.61 4.9 5.1a5.31 5.31 0 0 1-5.48 5.53c-3.2 0-6.24-2.39-6.24-8.19 0-6.16 3.2-8.94 6.68-8.94a6.56 6.56 0 0 1 4.82 1.97zm-1.24 7.33c0-1.74-.91-2.39-2.16-2.39a3 3 0 0 0-2.5 1.64c.34 2.6 1.43 3.43 2.58 3.43 1.14 0 2.08-.8 2.08-2.68zM287.32 201.82a5.3 5.3 0 0 0 3.56 1.63c1.69 0 2.78-.88 2.78-2.57a2.38 2.38 0 0 0-2.6-2.55 3.91 3.91 0 0 0-2.44.83l-1.72-1.09.47-8.34h9.36v3.22h-6.06l-.29 3.1a4.14 4.14 0 0 1 1.85-.4c2.84 0 5.25 1.62 5.25 5.13 0 3.66-2.83 5.77-6.06 5.77a7.84 7.84 0 0 1-5.82-2.32z" fill="#fff"/><path d="M390.7 167.64h-4.32v-2.98h12.15v2.98h-4.3v12.67h-3.53zM400.95 164.66h3.55v15.65h-3.55zM414.87 164.38a6.58 6.58 0 0 1 4.63 2.04l-1.94 2.18a3.7 3.7 0 0 0-2.64-1.18c-2.18 0-3.89 1.9-3.89 5.04 0 3.22 1.51 5.1 3.8 5.1a3.84 3.84 0 0 0 2.97-1.4l1.94 2.14a6.39 6.39 0 0 1-4.96 2.3c-4.06 0-7.37-2.76-7.37-8.02 0-5.18 3.43-8.2 7.46-8.2zM424.86 167.64h-4.32v-2.98h12.14v2.98h-4.3v12.67h-3.52zM437.94 168.12c3.38 0 5.06 2.47 5.06 5.71a6.96 6.96 0 0 1-.14 1.49h-7.13a2.88 2.88 0 0 0 3.1 2.6 4.8 4.8 0 0 0 2.56-.8l1.18 2.14a7.78 7.78 0 0 1-4.23 1.34c-3.4 0-6.02-2.3-6.02-6.24 0-3.86 2.76-6.24 5.62-6.24zm2.06 5.02c0-1.37-.58-2.33-2-2.33-1.1 0-2.06.74-2.3 2.33zM452.43 164.38a6.58 6.58 0 0 1 4.63 2.04l-1.94 2.18a3.7 3.7 0 0 0-2.64-1.18c-2.18 0-3.89 1.9-3.89 5.04 0 3.22 1.51 5.1 3.8 5.1a3.84 3.84 0 0 0 2.97-1.4l1.94 2.14a6.38 6.38 0 0 1-4.96 2.3c-4.06 0-7.37-2.76-7.37-8.02 0-5.18 3.43-8.2 7.46-8.2zM373.54 193.64h-4.32v-2.98h12.15v2.98h-4.3v12.67h-3.53zM383.53 189.49h3.53v4.13l-.17 2.13a5.47 5.47 0 0 1 3.67-1.63c2.6 0 3.7 1.82 3.7 4.8v7.4h-3.53v-6.94c0-1.73-.46-2.26-1.47-2.26a3.01 3.01 0 0 0-2.2 1.15v8.04h-3.53zM402.15 194.12c3.39 0 5.07 2.47 5.07 5.71a6.96 6.96 0 0 1-.15 1.49h-7.13a2.88 2.88 0 0 0 3.1 2.6 4.8 4.8 0 0 0 2.57-.8l1.17 2.14a7.79 7.79 0 0 1-4.22 1.34c-3.4 0-6.02-2.3-6.02-6.24 0-3.86 2.76-6.24 5.61-6.24zm2.07 5.02c0-1.37-.58-2.33-2-2.33-1.1 0-2.06.74-2.3 2.33zM414.78 194.12c3 0 5.78 2.28 5.78 6.24s-2.78 6.24-5.78 6.24c-3.03 0-5.81-2.28-5.81-6.24s2.78-6.24 5.8-6.24zm0 9.62c1.44 0 2.18-1.32 2.18-3.38 0-2.06-.74-3.38-2.18-3.38-1.47 0-2.19 1.32-2.19 3.38 0 2.06.72 3.38 2.19 3.38zM422.98 194.4h2.88l.24 2.1h.1a3.99 3.99 0 0 1 3.38-2.38 3.42 3.42 0 0 1 1.42.24l-.58 3.05a4.45 4.45 0 0 0-1.3-.2 2.94 2.94 0 0 0-2.6 2.19v6.91h-3.54zM433.71 208.18a2.02 2.02 0 0 0 2.09-1.56l.17-.62-4.59-11.6h3.56l1.7 5.12c.34 1.08.62 2.2.93 3.38h.1c.27-1.12.53-2.25.82-3.38l1.44-5.11h3.38l-4.13 12.02c-1.12 3-2.4 4.54-5.2 4.54a5.41 5.41 0 0 1-1.68-.24l.62-2.69a3.86 3.86 0 0 0 .8.14zM455.26 194.12c3 0 5.79 2.28 5.79 6.24s-2.79 6.24-5.79 6.24c-3.02 0-5.8-2.28-5.8-6.24s2.78-6.24 5.8-6.24zm0 9.62c1.44 0 2.19-1.32 2.19-3.38 0-2.06-.75-3.38-2.19-3.38-1.46 0-2.18 1.32-2.18 3.38 0 2.06.72 3.38 2.18 3.38zM470.07 192.22a3.81 3.81 0 0 0-1.22-.24c-.87 0-1.37.48-1.37 1.7v.73h2.14v2.76h-2.14v9.14h-3.53v-9.14h-1.58v-2.62l1.58-.12v-.65c0-2.52 1.18-4.58 4.4-4.58a7.12 7.12 0 0 1 2.37.43zM390.86 216.38a6.58 6.58 0 0 1 4.63 2.04l-1.94 2.18a3.7 3.7 0 0 0-2.64-1.18c-2.19 0-3.89 1.9-3.89 5.04 0 3.22 1.51 5.1 3.8 5.1a3.84 3.84 0 0 0 2.97-1.4l1.94 2.14a6.39 6.39 0 0 1-4.97 2.3c-4.05 0-7.36-2.76-7.36-8.02 0-5.18 3.43-8.2 7.46-8.2zM397.8 215.49h3.52v4.13l-.16 2.13a5.47 5.47 0 0 1 3.67-1.63c2.59 0 3.7 1.82 3.7 4.8v7.4H405v-6.94c0-1.73-.46-2.26-1.47-2.26a3.01 3.01 0 0 0-2.2 1.15v8.04h-3.53zM417.76 224.66a1.66 1.66 0 0 0-1.87-1.73 6.4 6.4 0 0 0-3.17 1.08l-1.24-2.33a9.84 9.84 0 0 1 5.08-1.56c3.05 0 4.73 1.73 4.73 5.38v6.81h-2.88l-.26-1.22h-.07a5.24 5.24 0 0 1-3.48 1.51 3.42 3.42 0 0 1-3.53-3.6c0-2.5 1.99-3.86 6.7-4.34zm-1.96 5.2a2.65 2.65 0 0 0 1.96-1v-2.1c-2.52.34-3.33 1.06-3.33 1.98 0 .76.53 1.12 1.37 1.12zM424.31 220.4h2.89l.24 1.52h.1a5.49 5.49 0 0 1 3.8-1.8c2.6 0 3.7 1.82 3.7 4.8v7.4h-3.52v-6.94c0-1.73-.46-2.26-1.47-2.26a3.01 3.01 0 0 0-2.2 1.15v8.04h-3.54zM439 231.95v-.1a2.28 2.28 0 0 1-1.1-2.01 2.88 2.88 0 0 1 1.34-2.23v-.1a3.8 3.8 0 0 1-1.6-3.1c0-2.85 2.35-4.29 4.92-4.29a5.53 5.53 0 0 1 1.84.29h4.35v2.57h-1.9a3.17 3.17 0 0 1 .39 1.56c0 2.73-2.07 4-4.68 4a4.75 4.75 0 0 1-1.44-.24 1 1 0 0 0-.44.9c0 .6.48.88 1.8.88h1.92c2.93 0 4.54.89 4.54 3.02 0 2.48-2.57 4.28-6.65 4.28-2.78 0-5-.92-5-3.03a2.8 2.8 0 0 1 1.71-2.4zm3.84 3.22c1.59 0 2.74-.65 2.74-1.47 0-.74-.65-.93-1.82-.93h-1.23a6.9 6.9 0 0 1-1.68-.15 1.56 1.56 0 0 0-.65 1.18c0 .89 1.06 1.37 2.64 1.37zm1.35-10.75c0-1.25-.7-1.92-1.63-1.92s-1.64.64-1.64 1.92c0 1.32.7 1.99 1.64 1.99s1.63-.67 1.63-2zM455.35 220.12c3.38 0 5.06 2.47 5.06 5.71a6.96 6.96 0 0 1-.14 1.49h-7.13a2.88 2.88 0 0 0 3.1 2.6 4.8 4.8 0 0 0 2.57-.8l1.17 2.14a7.79 7.79 0 0 1-4.22 1.34c-3.41 0-6.03-2.3-6.03-6.24 0-3.86 2.76-6.24 5.62-6.24zm2.06 5.02c0-1.37-.57-2.33-1.99-2.33-1.1 0-2.06.74-2.3 2.33z" fill="#1d1d1b"/></svg>