<svg width="586" height="662" xmlns="http://www.w3.org/2000/svg"><g fill="none" fill-rule="evenodd"><path d="M31 161.8L277.2 19.7a31 31 0 0 1 31 0l246.2 142.1a31 31 0 0 1 15.5 26.9V473c0 11-5.9 21.3-15.5 26.8L308.2 642a31 31 0 0 1-31 0L31 499.8A31 31 0 0 1 15.5 473V188.7c0-11.1 6-21.4 15.5-26.9z" stroke="#1D1D1B" stroke-width="31"/><path d="M184.7 378.7v117.8H152V378.7h-41.4v-28.3H226v28.3zM314.9 480.2a62.9 62.9 0 0 1-44.6 18 55.4 55.4 0 0 1-59-58.1c0-17.7 5.6-31.8 17-42.2a57.4 57.4 0 0 1 40.2-15.7c15.4 0 28.6 4.7 39.4 14a48.2 48.2 0 0 1 16.2 38.5v16.7h-82c1 6.1 4.2 11.1 9.7 15a30.8 30.8 0 0 0 18.3 5.9c11 0 20.1-3.7 27.2-11l17.6 19zm-30.1-66.6A23.7 23.7 0 0 0 269 408c-6.2 0-11.9 2-17 5.7a21.6 21.6 0 0 0-9 15.2h49.3a22.3 22.3 0 0 0-7.5-15.4zM412.7 467.7c16 0 29.1-6.3 39.3-19l20.9 21.5a76.1 76.1 0 0 1-58.6 28c-22.5 0-41-7.1-55.6-21.3a72 72 0 0 1-21.9-53.8c0-21.7 7.4-39.8 22.3-54.3a75 75 0 0 1 54.4-21.7c24 0 44 9.1 60.2 27.4l-20.3 23a47.5 47.5 0 0 0-38.4-19.3c-12.3 0-22.8 4-31.5 12s-13 18.9-13 32.5c0 13.5 4 24.4 12.3 32.7a40.7 40.7 0 0 0 29.9 12.3zM204.5 182.4v117.9H172V182.4h-41.4v-28.2H246v28.2zM265.6 154.2h32.6v146h-32.6zM392.8 271.4c16 0 29.2-6.3 39.3-19l21 21.6a76.1 76.1 0 0 1-58.7 28c-22.5 0-41-7.1-55.6-21.4a72 72 0 0 1-21.8-53.8 75 75 0 0 1 76.7-76c24 0 44 9.2 60.2 27.4l-20.3 23A47.5 47.5 0 0 0 395 182c-12.2 0-22.7 4-31.4 12s-13 18.8-13 32.4c0 13.6 4 24.5 12.2 32.7a40.7 40.7 0 0 0 30 12.3z" fill="#000"/></g></svg>