<svg id="Layer_1" data-name="Layer 1" xmlns="http://www.w3.org/2000/svg" viewBox="0 0 586 663"><defs><style>.cls-1{fill:none;stroke:#1d1d1b;stroke-linecap:round;stroke-linejoin:round;stroke-width:31px;}.cls-2{isolation:isolate;}.cls-3{fill:#1d1d1b;}</style></defs><title>Artboard 1</title><g id="Page-1"><path id="Stroke-1" class="cls-1" d="M31,162.81,277.22,20.65a31,31,0,0,1,31,0L554.44,162.81a31,31,0,0,1,15.5,26.85V474a31,31,0,0,1-15.5,26.85L308.22,643a31,31,0,0,1-31,0L31,500.81A31,31,0,0,1,15.5,474V189.65A31,31,0,0,1,31,162.81Z"/><g id="T" class="cls-2"><g class="cls-2"><path class="cls-3" d="M153.71,497.54V373.24H109.32V347.93H228.21v25.31H183.92v124.3Z"/></g></g><g id="e" class="cls-2"><g class="cls-2"><path class="cls-3" d="M288.41,463l28.57,4.8q-5.51,15.72-17.4,23.93T269.83,500q-28.27,0-41.84-18.47-10.72-14.8-10.72-37.35,0-26.94,14.08-42.2T267,386.71q24.19,0,38.17,16t13.37,48.93H246.67q.31,12.76,6.94,19.85a21.7,21.7,0,0,0,16.53,7.09,17.56,17.56,0,0,0,11.33-3.67Q286.06,471.21,288.41,463Zm1.63-29q-.31-12.45-6.43-18.93a20.69,20.69,0,0,0-30.41.36q-6.12,6.84-6,18.57Z"/></g></g><g id="C" class="cls-2"><g class="cls-2"><path class="cls-3" d="M438.55,442.53l29.29,9.29q-6.74,24.49-22.4,36.38t-39.75,11.89q-29.8,0-49-20.36t-19.19-55.67q0-37.35,19.29-58t50.72-20.67q27.45,0,44.6,16.23,10.2,9.59,15.31,27.55l-29.9,7.14q-2.65-11.63-11.07-18.37T406,371.2q-16.63,0-27,11.94t-10.36,38.68q0,28.37,10.21,40.41t26.53,12a30.26,30.26,0,0,0,20.72-7.65Q434.78,459,438.55,442.53Z"/></g></g><g id="T-2" data-name="T" class="cls-2"><g class="cls-2"><path class="cls-3" d="M173.57,301.28V177H129.18V151.68H248.06V177H203.77v124.3Z"/></g></g><g id="I" class="cls-2"><g class="cls-2"><path class="cls-3" d="M261.86,301.28V151.68h30.21V301.28Z"/></g></g><g id="C-2" data-name="C" class="cls-2"><g class="cls-2"><path class="cls-3" d="M418.7,246.28,448,255.57q-6.74,24.49-22.4,36.38t-39.75,11.89q-29.8,0-49-20.36t-19.19-55.67q0-37.35,19.29-58t50.72-20.67q27.45,0,44.6,16.23,10.2,9.59,15.31,27.55l-29.9,7.14q-2.66-11.63-11.07-18.37t-20.46-6.74q-16.63,0-27,11.94t-10.36,38.68q0,28.37,10.21,40.41t26.53,12a30.26,30.26,0,0,0,20.72-7.65Q414.92,262.71,418.7,246.28Z"/></g></g></g></svg>